<mxfile host="app.diagrams.net" modified="2022-10-24T01:17:36.627Z" agent="5.0 (X11; Ubuntu)" etag="bxly0-HkbXnZjGMouNN5" version="20.5.1" type="github">
  <diagram id="V1z0-Qp4QSWNPph_JK8G" name="페이지-1">
    <mxGraphModel dx="1460" dy="1127" grid="1" gridSize="10" guides="1" tooltips="1" connect="1" arrows="1" fold="1" page="1" pageScale="1" pageWidth="1169" pageHeight="827" math="0" shadow="0">
      <root>
        <mxCell id="0" />
        <mxCell id="1" parent="0" />
        <mxCell id="Xx8ExSLFacamj1ndaEl0-18" value="" style="line;strokeWidth=2;html=1;strokeColor=#3700CC;fontColor=#ffffff;fillColor=#6a00ff;" parent="1" vertex="1">
          <mxGeometry x="466" y="540" width="174" height="10" as="geometry" />
        </mxCell>
        <mxCell id="mBrAhiSf3WmQumyYKtSQ-1" value="" style="verticalLabelPosition=bottom;verticalAlign=top;html=1;shadow=0;dashed=0;strokeWidth=1;shape=mxgraph.android.phone2;strokeColor=#006658;fillColor=#21C0A5;fontColor=#5C5C5C;" parent="1" vertex="1">
          <mxGeometry x="246" y="500" width="50" height="90" as="geometry" />
        </mxCell>
        <mxCell id="mBrAhiSf3WmQumyYKtSQ-5" value="" style="shape=image;verticalLabelPosition=bottom;verticalAlign=top;aspect=fixed;imageAspect=0;image=data:image/png,iVBORw0KGgoAAAANSUhEUgAAANEAAADyCAYAAADTAiB3AAAkyElEQVR4Xu1dCVhWRfcfUCRFxUpN/VSw0twSTdxTFhE1s89AFCmLDDf4UAsDUTETDUUpAVFRNMpdAlvUEhBccqFw3/WvYZoamkqIiQv8z9z3fQER5L33veu8Z56HJ5I7Z2Z+Z353Zs495wwhWBABRAARQAQQASURsFCycWy7YgROXT/fJuvyYadL+dda5N8vsK1TwyavWZ1GF7o17birTYOXTiFu6kIASaQSfRQ8+LfWF/tWzgg7sjyEPPyHEMua8GNV2ruiB4QU/UtI9bok3GH0/I97jJppY1Xzrkq6b9bdQBKpQP2Jh5LH+e6asYTrilXdqnv0AEgGJbHPrHG+nTzjq66AT0iJAJJISnSrkL3z4m+uYzNmbTqdd6YuqfE8/57c/5u0tn0l9+t+s4d0a+qwj78ArCEGAkgiMVDkKePKneuNA1NnrUi+uGUgRx6L6jwllHm8+CEhhbnE0/6tLbHuM/ya1G5wTbgwrCkEASSRENQE1il89KBG5J5ln4VlR04hNerDmaeGQEkVVCu6T8j9GyTcMfjz4F5jZlpXs4JDFBY5EEASyYEytJF8ctsIzx0z1xJ6njHm3CO0X3r5KS6fDfNo454kVAzWMx4BJJHxWAl68njuuQ6+26b9kH3jkB2xhtVHrlJ4gzjW73Q2sf8cz/YNWx6Xq1lzbAdJJJHWbxfm205On7c44XSiD3mmsWnnHqF9pOele1eJX2vfNQvcQvzrWdfRmfWwiIoAkkhUOHXCYn9dFRK4b+5c7jtPNfjeo3R5BN+X4DtTbI8pIYFdR0Yq3R3W2kcSiajRHTlZbsPSpqXl3r0q7blHaJ/hvNSwVmOysd+cfs723dKFisF6jyOAJBJhRuTcvmLvvTkobf/1rJdNNlmL0J+niqBbPPi+1L1Bt5Pr34waZF+vSY7UTbIu35L1AUo5PnruCU6PjLFf2eP3/bfPvkysX1Dm7MNnkPSbFPQT+tuW9pv2n46Djwh8FlciUeYAuOr4+/4SHscJU8O5R+io6HkJSuLrYf7gQqRzPcLCCwHczvGCi5CSc0/BH0SQqw7P9mR7HLZ4DW2akx8HRvVEFyJ+qCOJjMSLnnvGbJuxLvXPtO7EuqH6t21Gjuuxx/Qmca8XPbdE95s+GlyIwEKCpSoEkERVIERDFD7bGTs38tjSQGL1rLiuOlVpR6m/0y3eo7sk/LWJEeBC9Cm6ED1dEUiip+DDO0RBqUkvVbvUhQi+daW4RXqDC9EGqZrRulwkUQUazLp8pMf7adO/P337dANZXXXUOpsK/wIXIscLy9xmDn+tcdtstXZTqX4hicogT0MUZuyMXpBwZpUPs+ceoTNNH3Lh98pI6kIUAC5EeUJFsVYPSaTXaPiuuNlhB6OnkWq1tG2ylnqGlroQfQIuRAukbk4L8s2eRCmnUr090oPXUd8ySUMUtDAb+PRRH3Kx442FZu9CZLYkOnj1pKP/9vDV4KrzCudpgEUYAnBecm/iuifaNXQMZCI6KUyItmuZHYlKQhTw3CPezKVRtQ9ukaD2o5fOcp4UZG5ZiMyKRBCi8Engnk8jadopTbvqiDf9xZWk/74U33vWxLGdvWPEFa5eaWZBInDV6QchCqmqDVFQ7/wQ1jN9FqJ41xkjnOy6ZAgTop1aTJMIMom2nZgRsTz1SkZP1YcoaGfOGNdTfciFl/3gzeBCNIZlFyImSaR31YmMPBoXIHpWHeOmED5lQECfhSi4Q0DMp06BoSyel5gjEbjqjIVsoktVE5qNdNIhoHchgpCLsRBysYwlWJghEbjq9OJcdfLOPM9UiAJLs42ORXdeugZZWz0h5GIvC8PTPIn02URXQjbRAXju0ciULD0v/QjnpbFaPy9plkSQTdSKyyb6W0Qo97FUzGyiGpmLmu8mNYnD9yXI2kpDLmjWVvjgpL2iSRJBNlEfz8zpa8hDuFlEymyi2tOnNntcmrVVkyEXmiKRYtlEtTk1tddryNravYHjiQT3WSMga+sxrQxAEyRSRTZRrWhU6/0szdq6GkIu/qeFkAvVkwhcdaYE7g2PwBAFrbODZ/9LQy6CIeRiPs/asj6uWhLRrDrOWyelSX6LgqxwY2O8ESjN2uoGWVu3864vQwXVkQhcddoFZMxZnXFlR0c0WcswA7TQhN4k7trEef/K/rNHqC1rq2pIRM89n+9e8nnkkRh/NFlrYWYr0EfqQgTxS8EOE2Kn9h4fppbzkipIVJJNFKNLFZiZGmyy1IVoPLgQLVV6BIqSCFx1eg7+KWhPLmvZRJXWqrm0r3MhugkuRIOVdCFShEQ0m2hQRkR8cs4P7phVx1xmvETjLL34+aco11B/Jc5LspKoxFXnQFSo2WQTlWjuoNhyCFCT+MN/SHjnINmztspGIs5VJ2PqGvLoHrrqIAOkQ4Cel6rXIskus9/xbNt/rXQNlUqWnEQ0q47PzyFpkE20HmYTlUOl2AaHALgQta7XOnftgHlvQNbWA1KiIhmJ9NlEv4Bsot547pFShSi7UgRKs7auneU0cbJUIReSkAhcdYLBVWceuurgBFcFAvosRLE9wyRxIRKVRFw20Yxp6zBEQRVTBztRHgH9eWnHoEWiuhCJQiKaVQdcdRLBVacLZhPFuat6BMDrAVyIsuNcp70vRtZWk0hEs+qEZiyIjjn5lR+arFU/dbCDZRHQZ22d0PaD5RGukyeZkoVIMIniD6wPHLt7Rgyee3BuahqB0qytgZC1dZGQsfAm0c6Lv7l4pYZmoKuOELixjmoR0F/8nOQe4QpZWzP59NNoEulddRZDVp2BGKLAB2J8VjMI6EMuPO0GbQUXovHgQgRXxFddqiQRddUJy/xyAWQTnYDZRKsGFJ9gAIHSrK2Lwl0++riqi5+fSiIum+gv4UvxAiwGJgYOgT8CRmZtrZBE1GT99uZJO8FVpz666vDHHmswhoDOhejGpjcX9gGT+Knyo7Ms/w+w+vi1WeV64vTda0ggxuYCDkcgAtb1CeUD8OIk8OPDp5IILv+d5ZsxcTl5pgkhFtUFtojVEAEGEaB8AF4APxIoT8qOsGQ7By47Xh5bR20kNZsxiAAOCREQEYF/L5GUN1YO82jjnkSlciSCJCF16y3tnocpeUUEGkWxjQB8pL09ZnddSJaSz52JIMvObLZHjKNDBERGAJLqAG/mcSsRfAeytI5t9wjv9BEZZBTHPgLg5UAmnbWw3HfpYDv2R4sjRASkQQAy9fa23P1Hdh/OiRQLIoAI8EMAeAP86W95Mf9qG2JRjV9lfBoRQATgMFSNAH9aVv/jzrWOxOKJb67sQ0SdDYuL4OeRbqz0RUJxwO9j/HRPcaSZa80RP5gvwJ8O1R+SIit+qGn0aapserMedS6Eqykdn2v3R4vajc82r93o4oOih9X/LMhtfiIv57XT/1ywJcUwKWih29xqNTU6YAm7TX3KiiDPG1zz6Vr/1UPt67U4fPdhYa3DN892y755wp7DuLqNWWBH+UPdEuB1zHjRx4qEdZkQ7Nai52bq/5RNTpDsSoYNmYoa7L90yGnrhV1eCRc2DyOP6LWWtrhK6a+FXNxzatAbLV02QqjA5Qyyj2SUwxHSQ3ddc+KHcTGnVn1gDi8iC9cNo/Zk3DjWk8ltDI1ahJUkxeWz4fB1eaOQVwWEwNf8+dyu/07LWrTkdN6Zemb7KQBeRJAtZ/KYzt4xVYUGGHCGGDS7TzLnLU3K2TqASUdm2N3ASnyerkTFQiaX6uuA561fq+Gr4wZ8OspYpVc0Joi9ByaS9fQHsrh6e6YGrjOHt+tjWMAKdNxnSwd6j2ogGWm06mGluggPD4QUapMDf5k+n/PJZLCwaVGAt2Z450nhCYNmjzSFQOX1DWlp1xcEHLHxauq0lWbYNIsCmXFy3k+zN+UiYrguckG807wJ9G4hBgtnlqsyulVTA4ctnF/LYV+H9QmYIUW/aVaYpLejBy1+febH5N4VKZpQj0yY9DveXtdXv6KY1C9IAhILmXVWErrFZqtYUhKxtRpZWhHYwo2WWk/+Xd75MnnAshEEPHqZLPRl1MrnG7gntbzdQPBwITVVAGcOZ6twKxE7JIJtXIrrHC8xt3BP0zfd3iUPXOHD5DYFLJKQvzpEzPkOq/i9+NfDJnCXWbNTOBKx465gYUXACvetnPoBIq2L7fVZCFNE0m2J10IC+GtiY+nb0XNxyXc4sYUrI48hElHFv/z2KiVwhINzpJf94J+ZecPCKvTGi302SYEl7BIeedkN3MZ9kGWjMLSdg73260067VBKL2BsGNj9+Q4nmTg4w/eP1xq33ysVlm7Ne2zmLntjo3CGBTasc+CqY/9s0/NK6uVnr2U9OTch6mKk5QL+hGCRk8z0+MrzLU4wtKVjaCWibwMLS703qTIzGEKF8055rW5PCnOV6YBGWlVaTyLDxJz7tuKrKvjlndjhsbEfs6ZvcWYgU14y7GznxFGuKFLg20p6bO+IYLPxauCPmuIvO/5drrwGO9+IxERFBFlgsZsPvnvrmbHYiYAJqyKQRBJqFnz3RkDc0kmGzLkSoqVd0ayRSHV77Z3eX3ehQYCat9hpd45L3fNiPBNJDDF1WAWLXTvyIE/illC8UgjgSiQD8vRy3R1DVrmhxU4GsOVvgluJsMiAAFjstoPFbjJTPnYy4KaFJpBEMmoJLHZREFOTiBY7GUGXoSkkkQwgFxcXu8PPEtpUTP+wD5jxsZMBOw00wdx2TnXWOf0kcIP/jgMicfE524ev7MKEj50GZrgcXcSVSA6UCTG4LM8FIl2qVf2ZX3N8ks8RmhAdi9YRYG4lUqtC5pfpWFP4vZ2dbeOWkL8A6CWZs7RasWCtX0giOTRqYWGRD+3M1bf1N/w/V8BiZwFZcCaixU4OLUjXBm7npMP2McnAmVD4B2/4WVT2D5AFJwYsdkfRYieTIiRoBkkkAaiViQQibYCfmeX/Hu0+PQUsdoSJqFgZ8VRJU7idU4kiVoDFTpcAXutRsSoBVM5u4EokJ9qVtAWr02Ww2NmAxS6Hu7kCi5YQwJVILdoCIt2FvAYtdg5JjEEfO7Voxbh+4EpkHE6yPeVk12VivPOCCWj6lg1ykxtCEpkMofgCuLzV7fwS0GInPrYSSOS2c2p1lREyXknHUvjogWzZYsHHbrR7ox570GInZBrIWwdXIh54D/52fGWX6/GQYvyjPw5d4tLwmfpFaLEzHjMFnkTDAh/QUy8kdAzfFRfJp44pz9LE/IdHrGuGUbGmoCh5Xea2c9IiZm1HwrIjP0k8lPyhtA2VSoek8leyhib1QtcguRDn3w5r2zlJz0QcvHBlom/GxAS43LcHf7iF1ejW1GFvovP88UgkYfhJXAtXIkEA12xGuiX77IVbxhsLqi+gkm8nz6VB7UcvZcRix1LyRjwTCZjPuirVa5GO60b8DhY7K8EyeFaM6hc63rVRt31oseMJnLSP40okGF+L6iT33g1rsNj9LFiGgIo/DY13AotdIVrsBIAnTRXmViLpz0RlFQEOo6lXd7kGp0culEY/T0qlFrtfvb5pjRY7uRCvsh3mSFTliEV/oMbzJPJo3ESw2I0SXXYlAsHHLoez2LF66bJcQIrTDpJIFBypxS7z4xVgsesmijwjhHAWO9fosehjZwRY0j6CJBINXyASWOz2y2yxWxbcISAOE56IpkUhgpBEQlCrtI7OYndOTotdpFvw/9wb90EfO1EVyUsYcySS17BQHmudxc4GLHapvNRg4sOpwxNeB4sdRsWaiKPQ6ngrhFDkKquns9g5g8UuRmzRT5MHPnb/wahYOREvaYu5lUgRFJ9oVGexC5Tdx85zbS80NMg+BZBEkkFe6mPXXbI2ygmmFrvkAct8kEhyIc61gySSFG6dj90+OS12nm37rwOL3WK02Emq2ceEs+bFLR9yxrakgI8dWOwC0GJnrIJMf441EilrnatIH3ofu4Hfjt1uurqMl6CPin2Aly4bj5nQJ1kjkVAcpK0HFruMa1m9g9IiHkshLGWj+qhYO1L8SMpmULb+TKS+tzeLqrGqS6KOLw8Ai52fXMODqNirB4eu7YI+dtIijiuRtPg+Lt36Bepjt3znxd+c5Wr2tcZts5MHrvBGi510iCOJpMO2Yslg+nba9E5mzu0r9nI1DRa7DeGOwRFosZMGcSSRNLg+XaqVLema9N5pOX3swvoETPVs3n8bRsWKr3AkkfiYVi2x1GKXWfXD4j2R7BE7AHzsHqHFTjxMqST0nRMXT+Ol6Sx2vcBit9j4SqY/efa9Tc9zFjtlr3BhKVEJRyIsSiGgs9iNjz+wPkCuLtSzrpPHWezw0mXRIMeVSDQoBQoCi93YHZMXgcXORaAE3tU4i13/Jehjxxu5iivgSiQSkCaJAR87sNhlyGyxWwcWu7m4IpmkOa4yrkSmYyiOBJ3F7v8KHvxbSxyBVUsBi12ol93ArYwkhKx6wBI9gSSSCFjeYnUWu2p9N4z6hXddEyokvR09qHXdFy+ixU4wiBZIIsHYSVARLHb7/z7aacK28GUSSK9U5H6ftQ4qsNjJOWRR20ISiQqnCMLAYhdz8qvRYLH7nwjSjBJBLXbHhyc5kMJco54X4SGW/DWZW4nYUA612O0MiZXTx659w5ZHUwYuH47OqvxfEWid44+ZPDWoj13KcFl97DzauG8M7xI6jxRelGeMbLTCrURY1IoAJDyxX+v5u8wWuynuL/odUCskauwXnonUqBVDn8BiRx1GB6cEyBoVu8kjto+aYVFZ33AlUplCnuyOzseuO1jsVsjVVxurmnflaouFdnAl0oIWdRa7UYt/WzNJC901sz7iSqQZhYPFzn9XyJc7crL6aqbPZtJRXIm0pGjwsXP+flS6nD52WoJHqb4iiZRCXmi7kMdOboud0K6aST0uAypLAVJsfGx92uzTW+zAx26PmUxS1Q+Tkgi/FaleTeU6qPOx6yi3j51YMBUXFzE151hbicTSs/rl6H3swGI3Uf2dZbqH3HaOqbcC0+oqPzhqsds9dSFY7FzNatwqGyyuRCpTCO/ugI+d86YR29Fixxs50SqwthKxZCQxXskK+NgZ3zn2n2SNROxrrKIRllrs9ponAMqOGkmkLP7ita6z2Dn4bZm+RjyhKMkIBDi3HzQsGIGUJh4Bi13C2bU+sb+u+kgT/WWjk8xFtrKhFlNGARa7wN2hX6jZYmdhYVlkyhBVVhdXIpUpRJzuUB+770ZuP3X9fFtxBKKUpyDAnBe3eVrnKtIw5LFrk/TuCTmjYo2lGmMeC7idM1bxmnuOWuyK7pPOq4cd01zftdVhJJG29MWzt5Y1yOl/LrwIFrtveNbEx41HgLntnPFDN5cnOYvdhpFgsZtkLkOWe5zo9iM34kq0Z12fWuy+TDmV+rYSzbPeJmvfiNCwUNmMBYudx9ZRKWCxa8P6pJZ7fJREzASy/X33VgOpALxdmG9LLKpJJV4euc80Jm02ep/kxoJFLAS4UAg2ioUVuXbnenOpBnP73/xnpZItm1xqsSsuIt3X+hyXrc0KGsq5dfllAvpipbCzElV7hnx3IdNHKsUcuHKsF7GsKZV4+eTqLHZNvTZN/FG+Rh9v6Zcrh/oS0BcrhR0SweRIvfzz63CtPbxuxS/rz2z1Y0bxYLFLytn6ZviuuHDxkapaYsK5jcMJ6IuRwtB2jmqkui1Zd/SH98VWzpU71xsn/ZHuzJDiCQGLXdiBqOmJh5L9xMbrafKST27zZmkrR8fKzpmIjgbesL6/hCfAaiTqhnvGzuhoYimqSDnnbeVtgbOqb8bE5UCkUXJ0CFyQanpuD1lH9cRSYfI70dSMBV+KpSS4I8gVwgu8CMTrMFnA9O2b+fEKObZ2vpunbGQRQ/ZIBJM96vjyADG2KTRvAdwRtJ3AG5vpAnkawg5GT3ff4LcDzN+SLBNBaRGLky7+9CaDLyPmkjfq5jrdpmR+vNyUt2vW5SM97ROdf2eeQIa3A+RpSL1+yKneYoc8uOrSX6yXBt1aU0tg1ImvxhNog8HCcMos/dvVMyVwK6woRn8/okoH8kV0Sxq6h1GlVz6PqcWMXnW5e0Zcw+Vu98EIMNSU8yW4GXlZL+15P+nyzjcZxrLYwnXDqLsZN47VJPRDHIsFwgHIg1tkQtsPvnqn3VvLuzV12FfRMCnRtp7LHOr/68Io8hCu52Hs8MtbtcUPAbc8QqrVIkGthy8b3NJ1fav6L55sUrvBX0+TBTg223Z+13/DDibE5hb8QRgmD3y4fkhc6796gn0SGTQON86RR7q7qxraNCdO9dul2tao88/hm2e7ZN8+a0ceFoCtEt7E5k6eihhiwK4YPMSq2xD3ho5ZzWs3uvScdd2b9PHf8/9s8fudqy8Dji1KcITE+8y+mA0Y6Uh03AIOkzdTbxx5lvkBl50c9C0L7i+k+BEQB0zXrK7CvJcfIytQ/IoelD5MfQppVI254Qg4uNd3OGQJb5TD3IQyp0KVTVcdarY2N8WLoWeKGcXO8EOxNEccgTfAn1OWdnUaH+DeyFgQAUSAHwLAG+DPOcvezR2/M5wV+EnApxEBM0cAztjAn1RdENvCVsVMW1HMXNc4fIkQuP83IZPO6nIsBLf3iycP/pGoJRSLCDCIAPAFeBNNR8atRODqUbvest75DLpkMKg9HJIqEACz/+0xu+vUs65zh1uJ6C8pbpHe5N9LqugfdgIRUDUCwBPgyzDKG9rPklAIjzbuG8K7hM5GIqlafdg5pREAAsX2jpgEfEkydOWJ7DjU+5nGmBBIamGWtn+llYTtqxMB+oH53lWS6Brt59vJc0XZTlaYYup47rn2Q7d8nHn69un6NAISCyJg1ggU3iCt67W++u2gL/q1b9jyRHksnpqnDValsRApupRz8UCfMrOeR2Y5eGqxBrewxNfDRsPqk1AZBlUmO6Su8GGZX0ZFHo0LJDVgVWInwYRZzgsctBEIUM//+zdIcIeAmHCXjyZbV7Mq4yj4ZP0qSWSoQqM8gzIiliZf3NKf+zBrjr5SRuCPj2gYAXrugQ+onnaDtkS5ho63r9fEKHO10SQyQAM5B1y8UkMzmI8V0fBcwK4LQADIQ0NkktwjXJzsuuzgI4E3iQzCIYQ4ECIgY2jQFn6k5QM5PqsqBPSxUvG9Z00Y29k7VkjfBJOINkZvYQvNWBAbc/KrUcQKsuzieUmIDrCOEgiURjwvj3CdPMnGqqYuYlNAMYlEhvbAJP7qhMyIrzOu7OhkNok9BICNVVSCQOFfxLWJ84E412kj2zR46ZSpvRKFRIZOQGKK4R4Z09ZjjgJT1YL1JUGAmqwhbD3Fdc5w8DgQLQeeqCQyDBxuZQsO3Bs+D89LkkwFFMoXAf25J7Zn2OTAriOj+Fav6nlJSEQbpfmrIf1uVMKZVSOIdUM0iVelCfy7+AhQk3VhLvF7ZeSaWU4Tg6rKVCS0A5KRyNChg1dPOvr8HEJdiGqjC5FQNWE93gjoXHWurx0wb+Brjdse4F2fRwXJSWToCyQC9PHMmLqGPLqHLkQ8FISP8kRAf+5Jdpnt49m2/zqetQU9LhuJaO+oC1HknmXhcKVHCJrEBekLK1WGAD33PPyHhHcOmhfca8wMcNUB3x15iqwkMgxJ70K0PDnnBzc8L8mjaGZb0Z97PO3f2gauOuPAVSdH7rEqQiLDIMGFqC+4EKWjC5HcamekPb2rzo8Do3pBeui9So1KURIZBg0hF+Mh5GIx9/+s3gOklIZZbLc0RGE8hCgsVXqIqiARBYFeC//57iVzI4/EjOO8HtCFSOm5ob72qasOeBsEO0xYNLX3+OmQ4wAy7itfVEMiAxSnrp9vF5AxZx24EL2KIRfKTxBV9EAfokBddVb2n+0J556LquiXvhOqI5EBnB05Wf2ct05K5fLhYVStmuaMvH0B/Tes1Zhs7DfHzdm+23Z5GzeuNdWSyNB9cCGaAi5EEehCZJxCmXmKmqwhLUFsjynB4KozX83jUj2JDOelyenzliScThyBWYjUPJ1E6Js+q45fa9+1C9xC/JU891y8eLF9YWEhBMzBBYLW1vfs7OyOVjRCTZDI0HHqQjQmfeYP2TcONUYXIhEmrNpEgKtO9waOZxPcZw2FrDrHlOjenTt36u3fv3/4kSNHBjZr1uz4c8899yf0w+LatWst//rrr1e6d+++vlevXt+U7ZumSGToOOdClDl9DYZcKDHNJGhTf+5NcflsBIQorJegBaNEAklarF69egEQZRMQZXX5SkCw54BgI8+fP9/tnXfe8a9du/Zt+owmSUQ7XuJC9FtECJrEjZoj6nuInnvgPt1wx2DqqhNWVVYdKQdACfTNN99Ev/feex+98MIL55/W1oEDB4ZlZ2d7jx071kPTJDIMkoZcBKbOSoQsRO5oEpdymokoW2+y9rIf/FN0v+kfQojCVRGlCxIVHx+/3MXF5etWrVr9AoR6CVYkeuMDTZUFF9WSGpRYXbt2/Rb+vps2kJ6eHkz/5ubmNr8kF7egllVQiSog2SO2/06PDX1b12pUQFMeYVExAqAfx7otLmV5beqV9Hb0G2og0NmzZ7va2NjkUwLpkaM7tFrvvvvuJ0FBQR6w4rzXokWL7O+//34+EKwVfQbIEwnnJk/Y4tXXPIkM0wXSHGWc/uDH2olOEeO5b0t0q4BFPQjodUL1kz1yY3Mlfd3Kg3L8+PF+sMokl/n34qKiIkokugoROPvchDPSKvi1Wl5eXhPDcw4ODpvPnDkzmBkSGQZGfakK/LNtgtv4LCH3rsC3Btk84tUzYdXUE4o/6CG43ftxBeP22ajB1608PNevX3/J1tb2WlkSwe+UGyX8gNWqt6Wl5Z0mTZqUWA2fffbZP27duvUyXAPNXtGnP/KHkIvIMdtmrE+9ktENz0sy67n03LMNzj0f0G1bJKHHCPUVanWD7dzNsiQCwhSmpaUFwtmIFBQUNMjMzCSwrRsKq1LJeaFOnTpXgEStmSSRAQx9bEl3cCFyG5Y2LS33Lpxf0YVI+lkM557Wtq/kx7+5eAjdZicRekZXbwGjwQUgynPQw1v6XtKtnCU1JMAKxRk9gFCTUlNTg+DXqYaR5OfnN6xZs2Yuc9u5ilQFPlfpuaPTLcCFJJR6AeN5SaIJTc+hQCB67oHzaV1KIIlaElVso0aNzl2+fNmhjFALOBNZUwIBwc7RnyFDhoTB9yEnumoZnqP/37Rp031mQSLDoMEHa+5t/yP1JrTyXMmdl+iWA4vpCBhCFOAcWhBwRJXnnqcN8tVXX90G332GliUR/F6tbB1qXID/L4YVC25zIISS6dKlS63AFSjLrEhEB099sWL6h314/N10h+62L/8ftzJhEY4A4OfeoFPWqXfT2ke6Bfubko5XeCdMq0m3cw0aNDi/Z88eXyoJzkd/d+rUaWO5cxKBf0uhf6PPfPfdd3OdnZ2X0N8167FgGmyltbmsrenB6/EiM56I6l11dryxULUhCjxHROCD62pHR8dNnTt3LmvufkJMSkpKBPyjpYeHRwiSqAw84bviIsIORk/BkIsqpl5piEIIbI8j+U5UtT+v91Sw6N27dyJs1Q4a+gvbN1v4JtQPtn3DX3rppT3wsXWh4W9mvxKVVSq4EDWBrK1fQNbW4ZiFqNx0L80mqniIgtREhG9CvQ4fPvwmnHnawVmIs9hRzwTwWjgIH11XwPYvp2wfkEQVaCTr8pGe76dN33o674wt933J3AucexzrO15I7D9niFIhCkqpAMhjQ9sGMhVU1gck0VO0w138vGuGLpuMOX5foueeas+QlL4Rot6ioBQhpGoXSVQFsvQis892xi6IPLZ0vNlkbdXfohD+2sQICFH4VMkQBakmvphykURGokmztoIL0cbUP9O6MHte0odme73oWeKqYyQ8Zv0Ykoin+mkWInAhSmUua6vOVefW1/1mDwIP6308YTHrx5FEAtVfkrUVMtJo+rxUmk10HHhYxwuEw6yrIYlMUL8+a+vnkUfj/EmN+trK2kpdde7fIMEdAmI+dQoM1aKngQmqE7UqkkgEOOl5adS26Sncxc/UJG6hYud4/fce1//0pdlEhypxi4IIkKtKBJJIRHWUnJfUGnJRmk20H/VsF3HoZi0KSSSB+rmLn/fNnUcsrdRxy4WGsolKoA7JRSKJJIKYnpcga2s8ZG0drljW1tJsoqsgm2igktlEJYJZFWKRRBKr4XjuuQ6+26ZthqytzWTN2grZRB3rdzJLVx2JVfqEeCSRTIhDyIW3R+an6yS/5aI0m6g3ZBPdINPwzLoZJJGM6oesrTXg4udZYdmRIaKbxPUma8gm+jm46sxEVx35FIskkg/rkpZoyAVkbV0JWVv7m2wSL734d0us+wyaTRRDdWXWKZJIZsDLNkcvfh6bMet7CLmwERRyoXPVuQGuOm+hq45yikQSKYd9ScvgQuQPIRdx3D8YE3JBzz1QEvvMQlcdFegPSaQCJdAu0JCLlYe+DQzMippLHgJJLGvCD3xnMhTqo1cEKamq1yWx3YJCRnUaughdddShPCSROvTwWC8gsrbX4b9Odcst+Ps/+fcL6tSpYZPf0Ob5yx1faJOlphzWKoQOu4QIIAKIACKACJghAv8Pi3zSDKM1oW8AAAAASUVORK5CYII=;fillColor=#21C0A5;strokeColor=#006658;fontColor=#5C5C5C;" parent="1" vertex="1">
          <mxGeometry x="406" y="510.26000000000005" width="60" height="69.48" as="geometry" />
        </mxCell>
        <mxCell id="Xx8ExSLFacamj1ndaEl0-19" value="" style="line;strokeWidth=2;html=1;strokeColor=#3700CC;fontColor=#ffffff;fillColor=#6a00ff;" parent="1" vertex="1">
          <mxGeometry x="296" y="540" width="110" height="10" as="geometry" />
        </mxCell>
        <mxCell id="mBrAhiSf3WmQumyYKtSQ-16" value="" style="group;fontColor=#5C5C5C;" parent="1" vertex="1" connectable="0">
          <mxGeometry x="910" y="410" width="157" height="100" as="geometry" />
        </mxCell>
        <mxCell id="mBrAhiSf3WmQumyYKtSQ-18" value="&lt;div&gt;음성채팅 서버&lt;br&gt;&lt;/div&gt;&lt;div&gt;Web RTC&lt;/div&gt;" style="text;html=1;strokeColor=none;fillColor=none;align=center;verticalAlign=middle;whiteSpace=wrap;rounded=0;fontColor=#5C5C5C;fontStyle=1" parent="mBrAhiSf3WmQumyYKtSQ-16" vertex="1">
          <mxGeometry x="10" y="99.52" width="80" height="0.48" as="geometry" />
        </mxCell>
        <mxCell id="VRWgpDQhtX4QynFnC1eO-12" value="" style="shape=image;verticalLabelPosition=bottom;labelBackgroundColor=default;verticalAlign=top;aspect=fixed;imageAspect=0;image=data:image/png,iVBORw0KGgoAAAANSUhEUgAAAPMAAADPCAYAAAAgTufpAAAfLElEQVR4Xu2dB3gVVRqGhxAghIQEVjpEmhSBSEApogRFkEXiyhLpijSD6IIUpZilaASUJqj0IiIobUFgXYpUsdAjvYoQegmBFEhI2e+/3ImXkNw79965LfnmefKgyZlzzrxnvjn/f8p/FIUXCZAACZAACZAACZAACZAACZAACZAACZAACZAACZAACZAACZAACZAACZAACZAACZAACZAACZAACZAACZAACZAACZAACZAACZAACZAACZAACZAACZAACZAACZAACZAACZAACZAACZAACZAACZAACZAACZAACZAACZAACZAACZAACZAACZAACZAACZAACZAACZAACZAACZAACZAACZAACZAACZAACZAACZAACZAACZAACZAACZAACZAACZAACZAACZAACZAACZAACZAACZAACZAACZAACZAACZAACZAACZAACZAACZAACZAACZAACZAACZAACZAACZAACZAACZAACZAACZAACZAACZAACZAACZAACZAACZAACZAACZAACZAACZAACZAACZAACZAACZAACZAACZAACZAACZAACZAACZAACZAACZAACZAACZAACZAACeReAmFhYbtbtGhx7Ndff30m9z4ln4wE8gCB6tWrp9SuXTujVKlSGa+99tq6I0eO1MkDj+2yR/RyWcksONcTKFCgQLK3t7dSpkwZZdeuXS+2atUq+oMPPvji9u3b/rn+4V3wgBSzC6DnoSIz36/ChQsrxYsX91q+fPnb6K1jp0+fPigPcXDKo1LMTsHMQlQCRlF7jx07dgLM8NurVq3qSDr6EKCY9eHIXKwkgF5agbD9IyIivoU/vdrK25k8GwL5SIUEHEUA5nQCfOYilvKPjo5Wzp8/X6F8+fLnLaXl33MmwJ6Zb4fLCUgvjYsdi50tQTHbCZC3k4C7EKCY3aUlcmc92Ns6sV0pZifCzoNFUcxObHSK2YmwWRQJOJIAxexIusybPbMT3wGK2Ymw82BRFLMTG51idiJsFkUCjiRAMTuSLvNmz+zEd4BidiLsPFgUxezERqeYnQibRZGAIwlQzI6ky7xJwIkEKGYnws6DRWXkwWd22SNTzC5DnycKps/sxGbOs2JG6JoiiHYxeMCAAQvcOTbVoZiDL/x57cwTTnwnrC4K/IKtvsmJNxw4cKA+giB0YrgiJ0J3VlFo2A5VqlRJDAoKykC0iwxswctAbKqp7tTY0TG7Xh2yqmd8xHftMrrP/0dG1Pejdl2IPV/DWYy0lLNp06a/g1+C8Ktbt+4N/H9r0/uwn/kOfi9/M/sj98t+Zi1lWpNGPtIIfLBe8pe2xk/q4sWLe1qThyelzVNmEEK+Nh0xYsS048eP1zLuoc1sq/j4eAUb6RNHjhzZr3PnzvNc1YjohZ9afeSrOYcvHQoO9AlU0tPu1yTu9h0lITlJaVmzzaxXG3Yc4ufjF+eqOqKnqzd+/PgxGzZseFGC9cmVmpqqXLt2TWnZsuWPw4YNG/z444//LtE5EU2kgKV6njt3TkGeQQhOEGMprZa/46PsN23atGGTJ08eHhgYKBFNMm+LjY1VUK/jH374YUTjxo23acnPU9LkCTHjq19u4sSJUQsWLHijbNmyItoc20caG7328cjIyAHNmzf/n7MaMuFuQuD3RxbM2H9tawfvNB+oo4CSkZ4vU8x37t5T4pPuKSlpdxS/Qr7JnRr0eOf5Wi/McVb9pBwRySeffDIO7snbOXG8c+eOIj9PPPHEvjNnztQzx1qtu55iRs/ba8yYMZNRBz9//+yDgMqH5+LFi0q3bt3mDxo0aERuiXCSq8UsfjG+0EM//fTTyBIlSjzwhTYnArWxX3rppXXoZYaglzngSNGsP7k8cv2fi0Z4pXsXECHnS88PIXs9IObU1HQlISlZSUm9P0Asoi7hVybmzdC+r9euUGerI+sneUPAAxGEb5z0tKY9XU7lCkMtQpb79RCzWF3Dhw+fc/r06ceyWl051VE+OmJNvP/++1F9+/b9tGjRovGO5ujI/HOtmGXAY9SoUVNhPj+S0xfaElhjL5MOv2vakCFDPkBj37Z0jzV/h1/c5utjY7+5lz85oNC9IopXhrcCQeco5nupaYbeWa6C3vebTkzvWmXqbu3+bK+IcsXLn7CmfC1p4Qe3gpUy48KFC49qFYmWfE3T2CNmWF1B+ODOhsnfUj7YWj8gpuWLi4V35Brel36vvPLKd9bW313S5zoxiz8H0+kr+MV1ID6bGjdr40hjoze6hS//QD38afjFwUv/nDLzyK2fGvl7lVIKpBUyiNiSmA3iNemdVUEb65v8fPWXJnZ6ussHerxcGDyqjZ74E4ikta0i0VoPW8Rs9IuHwvIagrbx1mItmKuPWBLIU9yDPXAlejraGtPKxpp0uUbM+EKXj4qKmrx06dJwS36xNYBM04o/Xa5cuTOTJk16HYMnO6zNB35x0RWnZk3ecnlRjyLexSHg+2NDWsUsPbNcau9s2kOrvTT86djXGvV5p2nNpt9aWz9Jb/SLo2BW97fGNbGlLPUea8UssxGwFqbDcipmq9WVU31N/OkF6BQiPcmf9ngxy3SSjFzCLx7mjJcviz/9Pr7gB7W8yPCLB317duwESStClstWMSenpGb6zll6Z0O+YnqX8i93ulfTPr3hT2/RUj9Jg8Gjbph3n+Pn5+ett0jM1UGrmOEXP4vZiC9gdQU7yuRX6ykuVlxcXDpM7/feeuutSVoZujKdR4tZ/KU2bdrsRo9Z0tGNm7WR1MGTZcuWtcKo9/qcGhFzw1Wm7HpvzVXvEzVVEatpbRWz3K8KOjsxq/mnKolKSNlmi/q9OKCruZdMTmmECzEDg0cPTdk54+XUImZ8ZObhY9Pd0SZ/1uc1WmNn586d+7K7m94evQJsz549TS5duuR0IUuDi48m5vy4cePMfrXn/zRnUvSJCw8JWS+RyOi2OsKdNc8iBQOUpdGLu2w/ur1dTuWJZdOhQ4fNGNV1iZC1cJBBOEwrdpc5bVsGuLSUkVMa6SQg6EflOB178nHGvR4tZgDKV6hQIWdwyrEMmN0FzVXgesK1KgXTCytJsfl1r6dpr5ydoKX3vp5kGIA3Z4FlJCQkFHC2SKyBgQHIAJj+1tySXdp0/DIFP/enA6y4cJqlmNwlrLjFJUk9Xcw2QxMzWUwo/Jsmo9W2XhBBqoV7DWK/exULQZx8Xbp1Qy3R3O4lu3Y2qRxlLMEdL6mXtDN+vFBXaQtV1FZVFyvJYq26wQWJ85yYpXFhmivPPffcil9++SVo9+7dgYMHD34fgr4rL6YNl6Vxh0zGjuid0zLk3Xz4unMvTYm7E6/kz2exiS3VP9v8TTj+Z8mSJc+HhIRsEq7uJGoRMUzzs6jfC9LWDRo0kDoWMlpT0kMbF8tqanWbOGnKWadEFltap3LcIht52SpVqhSNqY3nZsyYES5rgTEXnYDRyvH79+8v2bp16wUyGGPlC2mpkTMZO6J3TktPVlRBm/rPcUlxpszt6n2zNp5whEiOgWMzcGyHabotCxcufAEDVK1hqVwXEbnyEksLPykYz+i3cePGiqjfJmlrYx3bYqT+Muoo84LJYjRpqSvM7PtTEG585RkxSwNj4X3EmjVrQtC4W7O2iSzlw9/f2Lp1a32MmJ6yQtCWxOztW/Qvf/nm+ZzXhdvynmBeWTEVtOQhU1PSK5tcuohZmOAnAZx6QSQ1s25UkLXsONGxhGy0AG8Ril6XJcaZ5Yh11bt378n4OD+CBT6fG3hgfh8LdarJf6OOqzB6XwZC74NnEbPGoqBlMUnVqlU1TUHq9cC25OPpYtbUyNLAHTt2nIPGnWUJUnBw8D4s1O8lDajxssTQoOS0gjL2oigZCbLay+JGIo1F/5VMBK1ecBisvl/LDejRYmGulgPHuebSw9KZuG3btqoQtC4fES11kzTSzt27d/9s6NChA9V11hjJbxu5YshPkSuH7pm/bc5oEbakxTPMnDJlSif00AH4X3H4H/JXVFcCFtuK0aNH99VaD1els/QiuqpeupYrjQIz64zWTIsUKRKfnKxPx5LPOymzKxZBy8+Ni/q/4yJgMbdlA0aWXlkeW9NHzxwfYYgR5Vit69Nl5RRM7vtfMCddUseAgIA4tTjsAf921k9ffpOQnBDs4+3j//Ppn0a8u/jto2ov7evrm2hsZ/GdH/gCiquAj9dZoysR7gmbMPKEmI2Na/cLncM7aTZfb2+vjPSMB9/p1JR8DumdxU8WUQcWfmjrn6Oe3ZJM9Z+Ps1SiyYfr5NXjDSFiX9Nb7qWllD13PcZgcuNS33/plWVALNnobyfADO8Jc1z8bY/Z85yXxGz5NXBMimwZHz+U4JjSjLmKoOWnWGHD/Kyr2tlVHxEDhQL5C4p5lf1w/31Oav3SYaL7oDfOD3dsKvxtcSVcFqDC1hfDVY1sa33tuU9/2/bBFyKnunkVLFRAkd5Z7aHjEhKUpMRU5dZNq9cv2Pr8rmpnV5Vr4HQ39a7MKz8wAQ5XxFTcGVeuXJGpyr9h2mrjunXr6n388cf9tboStjaGo+5zKWwdHspRAtWhavez8EKcAflXBK2KWoQs1x8nEnUrx0JGevWQ1r4vrmifTLG++ezbA8HlJEzrW6JtiDuhefUWH9arVM+w+aRWrVq7+vTps2LmzJmdMG0la6/dfsTaXDvrO0/irFfTg8u5nfig/yyDYaVL6ftAMgCWxW/WRcyWlq6aPoVspcRCEqeKWZaknjhxoo5aD2wD/R7//f3ynUv+dezy0VAEcHgPARzOdFd6GZIYB7XCMVeubwO4KDdrv7Quqqb7Fuvj42N2HiifV4biXfgvS0/tldUnOhcjnYb+lxXzzJoEJ0LBZozyYWFhByV0rbkaY+CoWZcuXX7GZhSnDoDJ5pfVq1eHo47HUYcX1DqGN+zweeQ/RoWLkPUn7T45UsyObwuDkgv5ZijXY7M3q8+ds31tuMXq35/T1iRYS3mJoBGkr3aLFi32SLxx6X1N75FwuWK2IvTOFqQL1nHzhub6yz5slF0N8ds2oi7/dUQIX0ucXPX3vCRmzS+Ezo1hmLCOv5lqGPTK7rp8NUnnIu9nZ9I7W7MG2WxdRKCyFfGHH354vWLFivES6E+in2IqZwwW3JzbsmXLP12xVdG00lJHxMhWUJfWUifUbYI7xUR3SGMj07wkZkcxNPuRyOeVbnCSLQn2wPErjqqf5GtuesamcsWkFcFMmDBhYmho6B+zZ88eJv9vbywumyqTw01qHVG3QfDfL0qQRz3zd7e88pKYXdIzZ3il3UmKs1x0Tr22vS/MzeSbkoW5ntmuwTExa/FT0JlhhqxlYqyjX0RExGL40/slLK+1eXhC+twgZrNKkSV+CIejVKtWLVprg8B8PCXzjzZuiXygmLJFKu8+dE7bQQ2ISKK1iprTXUu5ohT3K3bR3A2u3uUk5WNkOcetVqVKlTovu9nsvcT8hz9dF/70NvjTSyQIpL15utP9uUHMOfI0rq+NkbAz2C2zTit4WTQgDY09z8vs3aPbL3R0r75P95l0/S4CBXiZXyQivfPN2/r4z8YeOfm7LkvDEdRvd07PLltAsXXxdTynrILSikiXdMbABvckkCDqkeOkO5ZU/gwT+VWkT7AnkIRU2sSfbl+/fn3xpz/KLf50bhDzQz2zMXh9kmzFg0kVZC7gXk5vJTYKXMD8Y3u8RKH4oh+2p/dCQL1B695ZV7NeuSd/NIjazHX4zCW7hGIY9MJHI6LxmxPXDdhQAkfYrLCUIZYuLty7d28QdgfNw3PCmHFs1BCT3UhfYxdWFZT/taU6YoR8OQJJlMH2xijU0e4Pj/jTaNd88KcjmzZtKhsqOliqg7v/PTeIOfMZRMRijoWHh3+Ohi8tW/HsbQD0Ctuxd7e2LLxH/onZ9AyWHWJUomKJSsemdp3eYlbH2WFY0HHJ2HNmW73L1wx+rtVXXHKs8mRQyLYlvVdWxAdkMA6X0zznJR8v7FPuuXbt2gb2frxyqrgawgf5HwHT+iivmzWHxYkVge2N/8YHoCKWX66312qSehp9/WLwp7/DlNvvEvHVavBucoOni9kweCMviYhYGnjHjh3BWF/bT+8ta7LwXj4Q0jNIWbaapFiVtHbtu+vLRraM7CeCzk7UJy9f0/x6SCCCGymxSumipc/O6Dzvmc+6fNkMiyPOas4gS0JM5ew3frx6geste81aNXvjKZtxU6dO7Yz8a8m+cVvraIwa0spoNR3UQ9RyWiTqFRwTE1PO1nq5+j5PF3OqCAuRQY4ifnVrrK9t5cj1tWrPIMePwp9ecujQIWk/m5xcHCPz+c6hu/07hXSYk53pfeWGeXNcChYhI9JI/NDmI96Y02NBRfjGP+v1QkkAAvSAZfHxGgOzNs3Wj5fRL85APmO3b98eBHPZppM2snsuo9UUjLXVHdHDnrfFFVI7ArgYc2WBCfL8VS+Gzs7HrmkJZ1c2a3kYuCi6efPmv+MFWeKKusAfb1KhQoUY9BR2DbUeijn41GcbJ0zdcfa3Ro/4/C3zUZrUrJl5pKtEuFGPp5EQuhLgvmnlsNk4q3mQNea0LZxkUQiO/pmycuXKdlqD0ItI5ITFtm3brsRRMv2tMadtqaPxxM9hcuqnLCO1NN+t1g/W3G4cADBYPgy2lOtO93i0mN0JpB512Xz4x3+OWD1iGUxvr2KFihk2S9SscH/2RBVzIjYAVSke8js2DXSCOX3UmnLx0Qi9evtKleplauyw5cRIWXONF38upvoqmztBRMxeWEinJPySszf3yywEzuL+yNxZ3NKDo/43kK6rNbMc1rB2RVqK2RXULZT57S+LBkZtiDIM3j332FNKYZ8CyvXb15VA3+LXez49sAvM6Q3WVBsifm7O9hnzrydef1RC70p4oQaPNlrVI7T3G+jVrd7pgamk3hDqRJjQsG7/impiPC0zAb14H1hLi6ypo95pcYplnf79+38Ll6iWak0Y/fbEkSNH9rcUx0zv+jgjP4rZGZRtKANnVFWavvmLKVtPbwprXDX43N9rdPoY00wWAxKaFoU8quN4nG8QPudJRN1QsK9Xom/IarD8xv9O79zwtXeRryGKpTWX0az9txypqt4nB5bj5yMZW7AmL0emxSBZexzROh5CLt61a9cpqN9Yc3PajqyLo/OmmB1N2M78IcjKAb6BV9GDahaIRKBcs+/7yHWH175nIuKk1xv3jMDG/P8u2/ld1KbjG/siPpZB4MV8i8fhxMgO1vb48mgylYOBrTaYq11r79iBnajM3i47vNzpI+OIZ6WYHUHVhXnC7+694Je5hh5cFXJY8CujsKd3dJZeuyZ67YXHrhytL6JGFA6lRqmaR+GLy77fIy58BBZtIwGK2UZw7nab+MXf7Vz0+Z+xZ2qp4oRfvAJ+cQ/06jkGAUdc6Z7/2bdk4s2k2ABV/M2qNZ+LUfIBjh4ldzeGnl4fitnDW1D84hW7l03cdfa3l1QRVyxe6XCv0IiuWHUWrfXxEFpn7JoDq4aqgg4oHJj0Ski7wfCnp2vNg+lcS4Bidi1/u0rHqPdE+MUDTfziZPGLscpsgS0Zw9cOnLdt9jx8GNqa+NOX4U93hj9tCILHy30JUMzu2zY51gymca+vf507DYNXBUz84g/hF4/U43Gkt8dI+nKY7LVN/Om98Ke7wJ8+bloGfPTh+P8i3l4FU6/evlQTdWivRx2Yh/UEKGbrmbn0Dhy5shNTTQ1UEdcPaiB+cU9b5ostPQg+Gq/Bn/4U/nRptbyez7z1htrzw09/uViRYldg5q/z9/FPbFmn1evHLx17HqZ5pKW8+Xf9CXj62mz9ibhxjvBrx6lCLl20zOn3Wg1/Abujwh0hZMEA0S7Exo0yMhpunJdWcHbTVyqiYxePtC1brNyu23dvyUnyqZhCO4V/C7sxwlxdNYrZg5r3YtzFRtJDQsgXo8LHVYUfu8kZ1ZdpLXw4nhdBy4WD14Ll35JFy+xLTE4sUS6w/KEqJastvZUUJ9sHbdp44oznyO1lMAi+Z7WwIW6uTwGfq+aqLeYx/NfaENth9K4PbPyHadxs9x87wy/EnQ+5nnBNFn5n+BXyjy3pX+pk7fJ1/tegSqPl2S1Qwe8eKhN5fw5rYdpTlRt+CnP73IaD6z7ClJbHb/L3rFfir9pSzJ7VcqanFuZY8w2HfxiEwasnMEV1AIkMYsZIdcBn6yesGve/qGbqSLWaAXziRy/fvhSy99yu9ot3LvwSH4PeEOpiLWjQa/dFT/3kzcSbJSHkVx1l8mupS15PQzF71hugRjUxO3CJnvuOCBb/Zpq8EPL3f944Eyq/9y3oeyWkwrPLMWhliIIQfze+5Olrp56JuXlWzGff6dsmLYJAD2Oe+ncteJBuj5Z0TONYAhSzY/nqnbsa/1rrsS+G9JhqemzI8kEGIQeXq7sUg2bZmsLokd+Yu2P6/CIFA5TV+1ZF4dYwkwcw/YBwFkTvltUhPw6A6QDRiVlo6plRH1VshvQwgcvKvzKAVTeo/n9zqi9M668eK1l9l6zThsn9YpZ0FLATG9qWotgz20LNdfeoPbNVwsLglCHkp4yEbz+x+U2Y0PthGmd7fCkWhnQ7feWPRvJBWKDoFuHHdcTyUMkUc+5sbNXiMpjjElUkcvnQvRjkqg+/uUnkyqEHus7qoMgaboxiHy0bWPYgRr5PBT1S4QDSSmCzYxawaIpImjvRuu9TUczu2zbZ1UyriB4Qs2Q0tE1kCwyCrcGWxyYSbUR6aYi7lvzApA6XNBKBpN83b2FwrP6y7qG9/uVZaFhbijl3vgMPjYVgykiCcT+DwbAaWHIZeuj8wRevxl95PCE5PjAhOSEA/rSPiDwpJanU1hOb3kFP/gwWpoSY4DE17bV+VHInXTd9KorZTRvGQrUs+czq3x86/RFmtJjQ8jNTLUN2S2H1VkmI/NnV0StHQ9zlME9dFwtMmjtrlZlnNoN71Zpidq/2sFQba0ezDWJGL7vj9PVjTao8UuM39LaNsxaCXjsOv5OfExgc2yU+tfTSiOT5GH7nlCWjlh6cf7dMgFNTlhl5Ygq1Zza0Lwa5rsrcMRaFNJSVYOYeSP4uQs7momnt5m8CxezmDZSlelqnptR2LSj3Y255pcwdY9Ar37i1Ub9KiKHsHhu/b4LQQ1NkcEwGwyqXrPKbZ+HJ27Wlme1Z7a+1d1TFbGhf2co4df3klxFBJByj1zXHrxuzWaamivsWP++Vz0u2QqVhfXYJrNsuilViXiL8l2q/PC5L2CGtZXsW0VxUW4rZMxvT0gCY+lSZ6bCE81VEBemFAa6PEQy/pJjSt+7EPXTYuF8hvxiEHhqOD8A3WdCYillr+Z5J10NrTTF7VsMZRHT33t1AC9XOVmyIADIH982R6Sms8mqYmp7iG5twowJ+l4FFIyeqlKq8U0a7P1O+zC57umRu/q5QzG7eQKbVK+Ff8hDmg5+HqVwaZvNqhAvqZpw/zvoUcmqFXNmaxibTU5qeHhswun62YcJ48aVTUm5lPOJfQiKK8HIzAvzaulmDmKtOWL1/jEII3IuyYeLAheiwPl/3jEVwgAeC28v9WAxiODC8qE/AeXseD9NUtRFz7CeEClqIuefS4ku3C+n0ET4gjCZiD1gH3Uvfx0FgHZUtpo6K4eiZEQix+64aZA/Hy1x5pmrTmTCVT0af2xsGobcXwSN21zgEDxhmbV1Qhj+OsBmHlWB91TIqFHv0ZMeGXd7GIpKN1ubH9M4hQDE7h7PupcDvrWU8XibENHKIiE8uEfOYduNrWXvUjAySIdrIFGTha4z5ld7t6Z794W9/oftDMENdCVDMuuJ0fmaYG26xat+KKInaKXPDcmE31CmcaNEBU0v7tNZI5p5nbZu2GCPchrC6YlI3r95iHkIBvQezOlZrPkznOgIUs+vY61oyTGM/ZCjtmc/0bCk5EdLcWVMShQQ9/Hx8DJqoIsYBcnKYe1fjdkhd68nMHEeAYnYcW5fmjMGregj98zH851DjkTULTSskmyvkaFf4xW9BxF7Go11v4CiajvCLf3Rp5Vm4TQQoZpuwufdNIlTsXV55+FJ0M1mTbTyu9Wf0tj0kUAH84u4ShRNPUVhEDPM8pUeT3v3gF2fupHLvJ2TtsiNAMefi9wJ+8ItYaz0D2xkrqoNk6IUTIGA/E794Ovzi4cadU7mYRu5/NIo597exgp44Aj3xBBGx+rgI3Le769PdIjBItj8PIMgTj0gx54lmNgTB9991+rf2WL4ZVKPs49vgF2/OI4/OxyQBEiABEiABEiABEiABEiABEiABEiABEiABEiABEiABEiABEiABEiABEiABEiABEiABEiABEiABEiABEiABEiABEiABEiABEiABEiABEiABEiABEiABEiABEiABEiABEiABEiABEiABEiABEiABEiABEiABEiABEiABEiABEiABEiABEiABEiABEiABEiABEiABEiABEiABEiABEiABEiABEiABEiABEiABEiABEiABEiABEiABEiABEiABEiABEiABEiABEiABEiABEiABEiABEiABEiABEiABEiABEiABEiABEiABEiABEiABEiABEiABEiABEiABEiABEiABEiABEiABEiABEiABEiABEiABEiABEiABEiABEiABEiABEiABEiABEiABEiCB3EPg/4AwyCgMYKGGAAAAAElFTkSuQmCC;" vertex="1" parent="mBrAhiSf3WmQumyYKtSQ-16">
          <mxGeometry x="-14.28" y="-10" width="128.57" height="109.52" as="geometry" />
        </mxCell>
        <mxCell id="4yjJaA-pow113zTlhAjS-2" value="" style="shape=image;verticalLabelPosition=bottom;labelBackgroundColor=default;verticalAlign=top;aspect=fixed;imageAspect=0;image=data:image/png,iVBORw0KGgoAAAANSUhEUgAAAmQAAAGXCAYAAAAd/0yWAACYD0lEQVR4Xu2dBWAcx9XH91jMMjOzY2psB+wwM3OaNtw2pbSBJm3SppT0KyVtGmjThpk5psTMzLJlgcV40uHC997srXyST9ZJupPudP91NqLdgd/M3rx980CScIAACIAACIAACIAACIAACIAACIAACIAACIAACIAACIAACIAACIAACIAACIAACIAACIAACIAACIAACIAACIAACIAACIAACIAACIAACIAACIAACIAACIAACIAACIAACIAACIAACIAACIAACIAACIAACIAACIAACIAACIAACIAACIAACIAACIAACIAACIAACIAACIAACIAACIAACIAACIAACIAACIAACIAACIAACIAACIAACIAACIAACIAACIAACIAACIAACIAACIAACIAACIAACIAACIAACIAACIAACIAACIAACIAACIAACIAACIAACIAACIAACIAACIAACIAACIAACIAACIAACIAACIAACIAACIAACIAACIAACIAACIAACIAACIAACIAACIAACIAACIAACIAACIAACIAACIAACIAACIAACIAACIAACIAACIAACIAACIAACIAACIAACIAACIAACIAACIAACIAACIAACIAACIAACIAACIAACIAACIAACIAACIAACIAACIAACIAACIAACIAACIAACIAACIAACIAACIAACIAACIAACIAACIAACIAACIAACIAACIAACIAACIAACIAACIAACIAACIAACIAACIAACIAACIAACIAACIAACIAACIAACIAACIAACIAACIAACIAACIAACIAACIAACIAACIAACIAACIAACIAACIAACIAACIAACIAACIAACIAACIAACIAACIAACIAACIAACIAACIAACIAACIAACIAACIAACIAACIAACIAACIAACIAACIAACIAACIAACIAACIAACIAACIAACIAACIAACIAACIAACIAACIAACIAACIAACIAACIAACIAACIAACIAACIAACIAACIAACIAACIAACIAACIAACIAACIAACIAACIAACIAACIAACIAACIAACIAACIAACIAACIAACIAACIAACIAACIAACIAACIAACIAACIAACIAACIAACIAACIAACIAACIAACIAACIAACIAACIAACIAACIAACIAACIAACIAACIAACIAACIAACIAACIAACIAACIAACIAACIAACIAACIAACIAACIAACIAACIAACIAACIAACIAACIAACIAACIAACIAACIAACIAACIAACIAACIAACIAACIAACIAACIAACIAACIAACIAACIAACIAACIAACIAACIAACIAACIAACIAACIAACIAACIAACIAACIAACIAACIAACIAACIAACIAACIAACIAACIAACIAACIAACIAACIAACIAACIAACIAACIAACIAACIAACIAACIAACIAACIAACIAACIAACIAACIAACIAACIAACIAACIAACIAACIAACIAACIAACIAACIAACIAACIAACIAACIAACIBAghEwJVh/0V0QiAqBZtWTWt5UO6pW8eVYJbN/SFru/nxbamVUKkOhINCLBBpUV2aJs2aCX1Ls6RZ7Q35KVmGGOaWxF5uEqkGgTxCAQNYnhhGd6E0CqxoPnvlB5foflLqqxrhVJdVvNScNsWfsuyBv2j9OyJ7yeprJ4u/N9qFuEIgEAZ/mMy9v2H71JzXb7ypy1493aCavyWSVB9hz9186+Pg/zE0d/mUk6kEZIJCoBKyJ2nH0GwQiQWBx7Z7Lnir47KFiR9N0JUmRTJIq+SySVOavyTtUVDSiWfVleDT5X0kmqxKJ+lAGCPQWgffLNn7/tcovfl6Zog7Uki2STTVLsmSR9rvqhpftre23srHw3vkZIz7vrfahXhCIdwLmeO8A2g8CvUWg2tsw4M2SFT8qNNVNtzokyWJWJcmkSVbVJDksSZLLbh34auGqH29qKlnYW21EvSAQCQLrnGXz3y7bdqfL7hhoNydLNhLETJpG/1ckW4pFKrY1TX2pcNkD1d7GgZGoD2WAQCISgECWiKOOPkeEwLbawpMPqbUTLKkWya/6SDdGAhmdJlqkTCopxEhTVmV3jf68bP3tZUpTfkQqRSEg0MMEahV/6hflm26rdNSN99GKodALh0LaMcVsluhbSdNoridrUoFcddyW2pL5Pdw8VAcCfYYABLI+M5ToSE8T2C7XfstjlTNU0oxpJIhpKgljqiaZWRgz+yXZ7JOkJEna4i4+ZUtjwVk+TYHNZk8PEurrNoHl1buvXtO0+1y/zSV5aU4rJlmf7/TqQSph8Z8i+SWfVcnY666Z3u0KUQAIJCgBCGQJOvDodvcIeDXN5JSUdL+k2vRlif6Z+KTvTcZjRcuWWZZqLO68T6s3f6/UXzmpe7XibhDoWQL7fLUTv6jfdFuN3ZmvWKwtc5vnun6ICS/mvkb/FMls4mejZ1uJ2kCgbxCAQNY3xhG96GECDpNJG+fI22yXTB6uWhP10//JhkwsUoGfeYlSHYq03VN8/Ir63Zd4NJ+th5uK6kCgywRW1xVcsst/6FvmZJVErYAA1k5pNovFOygjdz8/G12uEDeCQAITgECWwIOPrnePwPFZIz4fYsncJ8msF+AFi7YsWVtgps2cgLbMQkuThRYyLzlZftGw49sHvTVTu1cr7gaBniGww10549OGjbc022R6xTBLZjLip/+JU6O5rpHcpWuH6Xd+vzTQ5Ng/I3Pg1z3TOtQCAn2PAASyvjem6FEPERhqzzpwVr+Z/3PINr/ZZBHelaZWuzVmXTCj9ljsZumAv2rUopot1zb6vSk91ERUAwJdItCoyEmLa7bdWCCXjrba7WS4byUBrHVR7GVpJptJFtbsslk5q9+0/460ZR7sUoW4CQRAgJ4kHCAAAl0mcEbWlP9OSx66VHWxpsBOu5YBQ2f+SictWaJsFsvMVou0qHrLNdt9xSd2uULcCAI9QGCH5+Apyxt3XGy12gIvGYGteP4SOEXYC7Yd86jSzNRxn52dM+c/PdA0VAECfZYABLI+O7ToWE8QyLekVV2SP/uvmabUMo+QxeiRCghlmjB0Dhy8eJFAVml3Dnq3bPUPahRPZk+0D3WAQGcJVCtNOR9Xr7/jsK1hBL9EkHpMvFLorxXGd7x1SVvxFBo205RcfX7ezH/kmlOrO1sXrgcBEDhCAAIZZgMIdJPAjNRhX56YO+5DzUc+l7R4mSjqBa9hHKOJI5MZQhnHazLbzNLa5oPnrXUWnN/NanE7CESFwNqGggtWOA+cq5D/sCaEsaMP3ppnb2KLokpzM4Z9MiNp0LKoNAaFgkACEYBAlkCDja5Gh0CqOcl3Ztb4VwZbMg+5ZZkEMVrEaMGyyhy1n22gA8Y3tLjZNIuk2k3Sx6Xr7yyWncOi0yKUCgJdI1Dqbxz2UemG77psktWksH0YnQHn4WDfSbKOlHz0AjLcnL3vvLxp/063pjR3rUbcBQIgYBCAQIa5AAIRIDDRMWjlGdnHvWjXbJKf5C8WwtjDskUYE3WQpxpFOHdYrdImT9EJH1asvd2jKQiDEQH+KKL7BNyaz/pRxZq7digVJzhoq1Kfu0cs+YVwRiclTRK/dvgt0kmZM16a4Bi+svu1owQQAAEIZJgDIBABAg5zsv+0rCkvjU3qv0OjMBgahQbw0cnaMmPTR3hg0jYPRzlXMs3SV85N39nuOXRCBKpHESDQbQK7XEUnLW3cfpWczhOV87IevTzoVpE0txWvNCw5f89JWZPfcpjt/m5XjgJAAATgZYk5AAKRIjDKkbvn/Mzjnk6THF63heLFkjGZEMhalAwmSabvZfpdEkXZrNaa+i8u235dE4UYiFQbUA4IdIWAU3anfXl4882HTY0jzOJF4uhS9BBkKhnye6VULdl/Yd63/jLSlr27K/XhHhAAgRDPGKCAAAhEjsDC7EmvTEsZtlyifJaKxTDp173Ugs2jNbbPMdulNU3F5210Fp4euRagJBDoPIG1jQXnrfEcOpt2ISWNDPWN2BbBdmMqeQ3LtA/Pf5+ZNPLT09MnvWLnaMg4QAAEIkIAW5YRwYhCQEAnkGtJrj0/67inB3iyymUzGfBTmP62ygbhoca/NZulcmvjwM+rNt5S7W/IB0MQ6A0CJf6GYZ/Xbf1upc3dz0RzVoS3COFcqZhVyUdC2VA1r+SCnBnPZFocjb3RXtQJAn2VAASyvjqy6FevEZiXOe79+emTPrBQwEzWNJi0QGwy9lYLiuQkUv7ZZWmde++5y+p3XylrCp7HXhu1xKzYpyqmr+p2Xr/OVXiaibRf7WUFF/OWvITtXpM0P2PKO7PTR32RmMTQaxCIHgEsANFji5ITlECSyeq/qP+cf45Q+u8z+yzkbUmG/BwkltMoBeefIXnMqsiSy+RyfN6w67sF/oYJCYoM3e4lAgc9NVOWVO642mP20t6jTK04sgMZiN4iWsa772bZIg3S+u0/PXf6fx00x3upyagWBPosAQhkfXZo0bHeJDAhud/mi/NP+r9kl63Wz8nGRSBNUxtjaQ4hQEKZzSpt91Uc90X97uudquLozXaj7sQh4FJk26K6PdceUmqn2jgiv7ByPKIjC353YHtIm8fqPjtv/j9GO/K2Jg4l9BQEeo4ABLKeY42aEozAqTmjX5uUNWi9jzzTWCCjAP6SMJrm3R/BgkNikPbMYpFkhyp91bDl23u9ZXMSDBO620sEdnvK5n7RuP1mbxrlWaXtSKvKQtmRgxRi4gWCRTQPaXInZQ5ae17OuP8lm0ysSsMBAiAQYQIQyCIMFMWBgEEgz5pSf26/KS/k+K0NHO7CF5RKSc89ThozMuznRc9m8kuV6uEBn5atv6VOkVNAEQSiSYDn2OeVW28pN1cOkEweemEgbS1NRA4G2xKZn7YpKY6xJNPf0n2S+/y8ic/nW5JqotkulA0CiUwAAlkijz76HnUCM5KGfTU/dcyHqtsrWchKh+M4GQdryfR4TybJJquSw2KWljfsumSNs+CcqDcMFSQ0gbVNB89b6dx9oc2sUD5KUniFijtG9mS8QCh+WTo5Y/x7xyeN+CyhoaHzIBBlAhDIogwYxSc2gVxrTtWpudNfGmLKLJD9frIjE2JY4GS3S3oE6VQ4RAbFJWtM9WUtqlx3S6Xiyktscuh9tAhU+T25n5WuvLPa2pBjoW1KTufFopdMwYqPRLvQ0yT5/T5piDmr5Jy8bz2fZc2rilabUC4IgAAn18MBAiAQVQKTkod8PT9n0ocONsrhR87QRgRF8BcplWg1tJBx9Xpf0bmfVW/6DoXBaG3UE9VWovBEIKCoqunTyo13bJHLTrHabCSI8STUvYADKSoDgVl0Q0cHJWZdmDn5tclJg1clAh/0EQR6kwAEst6kj7oTgkCmJdl9Zu60FyfaB26WKEK/ZqRTYgVZmwCclG1J8lJssi9qNty611d5XEIAQid7jMBeX9WML+s23uRPpq1KjdKE04sAe/+KMxAQluckp0lSaSdzvG3gtrOzp7yYYk5y9VgjUREIJCgBCGQJOvDods8SGOvI33Rm6pT/pLpNXgv7VpI6TGOVWMvBmgrdqNpGi2ORqW70ZxUbbvCoPuS57Nmh6rO1Nam+5I8r1t9xyFw3lvNV8ttAsJKWtWQKZZZQ6G8K2Zal+q3yOWnTnh7pyN/WZ6GgYyAQQwQgkMXQYKApfZeAlcKgn5Yz9cU5ycO+MPtUsT2pR/FvI5QFPC9lm1laU7/rgvXO/af1XSroWU8SWO3cd+Gaxu0XyHYy1KdtSpbJSDV2RDvGu5RCGKO/y5o0wzFk8WlZk96wmKwhEin1ZMtRFwgkBgEIZIkxzuhlDBDITkqtO6PfjP9melPLPSppyUToi9YN05MnmSSryS6V2H2j3qvf9v0SxTkkBpqPJsQxgUK5ccSi6m3frjJ7B1jMNsmumESYi9YHvyCwjGaXBqi55efmf+ufWcmZ1XHcbTQdBOKKAASyuBouNDbeCczMGPfJ8WmTPrJQSiUfSWSq8Lg0wsSy/6W+dcm/0cjAf3Nz8WmrG/de4EOey3gf+l5rPwUmNm1s3H/B1uaSE/0ckZ9eBkgeE5qwFhtG8Q0JZKQxszZL0nzHmDePzxj7Sa81GhWDQAISsCZgn9FlEOg1Aukmm3tjc8Vz6w4WnH5Qqxnh4AUwYMnDYpiefJwPTXKQBsOjeKzLq3dfNjtl5Ff0y3291vBeqtirsguEapE12RbwgWCXCPEiKdwjONXBkePI1loAo9lkJtnDpNols5826RS72XwkEFwv9amnqy3zN45ZVb3n0kazN9XMalkOZ0FyGfmXUMiLgB2Z0IwRaVmWhqqZ+8/oP/3FJLPF19NtRX0gkMgEIJAl8uij771CYHJKv3Vn5U569YWqpfdrqbYWAYy/0TUWnIicFkcSNawOq7TRdei0T+q23uzR5EcocXncL5IyCVle0v+5NG+GV5JTfZKS3Ohz5Tn9niyKsmBza76Metmd7/f5k148vCLJL/kdbr8rgwPJy5JmZzKqpllUTRU5r9sMoi6UBQQyu8XmZoEs0+yooYTY7hfKv5HtVps7z5ZUkaRZ3Faz3Z1qTatJtTmcNpPZR3ybUkyOhiST3UXOFXFvO+VSFdt/K1Z9Z72reIGUyh/3etYjHZru8WscFsoakdLo85+RP/7lsSn9NvfKw4FKQSCBCUAgS+DBR9d7hwBpxdQif92/NzQWn7bRW/QtexJtXbYy7tcFM850ydnHPSmqtKx+57UnZI78lFq8vHda3flamzTN1iT5Ml3+5v5OuSmvXm7uVyu7Bvy74uvBtT53Xp3sHOy2yJnNZl9uo9+V55bdqZqZJE5FtrhlljtJe0NG5hplN1A1PZo8abmEJkfgYk/Vlma1cY4I4sl2eqQp08M6CEcKs5RktmsWM1lRaWY5yeJwZ1qTGlIlS2OqyV6TY0svzrPlFb1du6Ui22SvzLelHc6wp1WmWlMrMky2RjuNX+dp9M4du92H5y2q3n6lO0UyWUWz9W1JQ/DX5Vb9dx6vIs1KGbnmrH4zXko2Wfy902LUCgKJSwACWeKOPXreiwSG2bL3f16374miwuq/Nzrc/VlgCJIuWlqmaopkt5qkYn/tiA+q193ZqDZvzTCnNvZi00NW7dJ8jkbVk1/vbx5wuLl6bLnXOfLpoi9HHpYbxtep9SOcijOLhLP0ZtLQyGw5x1tlLHRSuiiFdhEpNKlkpe00C0lPQsyysZaQmJDWhj0fhFUdhWQQh4iZJeQIOshjlb9Vg2Uk+juVxdeoClnlCbM8jkbPhlN8vSb5JNLFmWQq0WzRJI+j1F+TxfufnATe4uHrLVSdTUpWTFqmOak+05pZnWXOLBxoTt/7+qEVh/qlZBQNTM3bl2VLK0+3JtWmmmx8V0wddaor4+9Fn99RotWMNAvbMdaOhciRRL+lIMRSli+1+rzhJ/x1oDXrQEx1BI0BgQQhAIEsQQYa3Yw9AnPThn4yJ330pV/6tl1tcoisgUHLpb5wsjBhpTyXst0srW4+eP4JruK36dfv9HZvajRPVoOneVC1p25Yoatiyt+KPzyuxFs3odLvHOoxyRkeyZ/kJq2WSuIOd4IyQ5HQxJot3WbORIKYSkKTn76ywslCBk1sJMZ/Y9FK4fAf3H82FxOJr+n7gFcgadFE90WCdhaihOQVJJBx0HndXZXup98b4R0CzhIs3FlI4NJD05MoSFo41SIaSAIhyYIU8oFtrDwUi8tNElq9yZctaU3ZZqV0rMmtncG2fUlOuy9ZsjbkW9NKhziydr9a8vWWUamDNmcnZxzOcWQUp0r2xmSyX+vNcVrvPnTu6ub951pTibHiD9qePCKUcewxwdEnS8dnjfpiXtqwLyjMRdxoAHuTL+oGgUgTCP26FOlaUB4IgEBIAiua9p/158KPnyl1uIaZKEw/CyVCMyREs4Dnm7jTLPloUT3BNO7Th0dffmWGxdrUU0jJDonkECWtxt809LCzevzu5sITd/lLTizx1o9utMq5rPNStMCCTxotE5+6s6iuCTMaSkKTYeDFW2SidywTBW0vmsWNwhHwqEP8JfD3tn9sHWQ3fDLcjiPHEfOzVoZo+v6x3lYW6oQEw/IbyVv0H/+Ot1JttL+cIzkqh6fl7Bpiytk+IWX46uEZA7blmJMq01VrfbItxR1+y7p3ZZnizf9j0dtvrfYfONnGwi9rxwKDondZF1jZTpHSKUlD/UnFPxl6/u1zUyfwtjgOEACBXiAADVkvQEeVIGAQmJY8YMXxGWM+o3hjt6mpFtpIU6UjYTh1qcaQTWyUe3CHs+TEL6u2X0d/+Fc0KTYq7vQGuXFQmatu9BulS47f56uYdchdO6VcaR7it1COTVrkyRCLRTGyz2KRhDVMhvAVkF5E64PEnSDhx7D+ams2H9omTC9DKLra7XTk7O+PakPgFy1tFT+zfRuNDWvrSNvGm4E+Gju32tyvtNnZz6QULnDUbb2zX1V6ycCUzMJR9vxNy5t2LxlozynItiSVZ5iTaijWXOQa3YbL8pqt1+xqLp5jSWGhmNWLwb4PurDPSkTeLLZ4zNK8zInvT0ke+nU05xTKBgEQODYBaMgwQ0CglwnsdB+e8/vCz17YI1VOspPtlL5Zd/TB2hzFr0oT1fzN94+55NpR9rxdkWq6X5XNNUrzwBJv49h9ruJv7fKUzD/QVDWjzteY12T2pSgsJZIdkolOkYia13iWu9hGi+21AgbjRzRVhqxhbL32lY+agOqPRRqh2dN/FgFVhZymB+XgsRJbryQMsR0gX5qq2aWBlvTi4UnZ26ekj/h6in3YN/0dmQcyLY6qJJNDd3+MwLHdVz3tTwVvvbLPWj05lASrawUDAhmZ0o1T+2//6fDzvjMteeDaCFSPIkAABLpIABqyLoLDbSAQKQKTkgete6l8zX8Pl9f80mtVyR9OL5lNpnjJZ7smcbAAZFWk3b7y4z6u3HQ7eSPea7dYu+UNV+ZvGlTiLZv2WtXXc7c0lZxywFc3rcpfn0VxvySrjbReyWR0T6E3WNwQ6Q9l+hqw12LtkGHP1ZaF2NYT3nuRohTb5QjzNuLDcb54C5aFNZU9OykqvtXMlnFkl0aC2QF/9dDdzZVDF7kKzhlgSq8fl5S/ZVrqwGWrnds3Dk0avqmfNa24O+E2vBQE9unDy27Zb6qerNIWuJms8gxvER4SbiePI4nWZFemSul+q/cUCsEyOqnfptgmjNaBQN8nAIGs748xehgHBBZmj31jQ/3uc9dIhxdwTiUrGVHJAcdLS8A0nLf5eONJptBl3zQUXDo3Y8IH9OPiznavRnPmHWgon7OtqeKEPxZ9cspBpXhWo+x0eNn7kf0OU6y0bWoXTo0cjsMik4ZHWEoJEavVvqEubwXCUAS0RfwbXRA7ssnYJqpHZ5scY9cb/TqyDajbtwWs/gJSqNhsJkcBE0dg1UVayWZ1iJRZCv2+QmvKqnI3LtjoLlqQZkr2jrAN3zoleeCSdU2Fi0el9l+Xa0qu7WzHd7gq561qKDhftrGDAo/WkV1RkaMyMDbiK+nkptgHLj8jZ8IrqQhz0VnUuB4EIk4gQd5fI84NBYJAxAm8U7v2+8+UL/uDM1lJZj83EaCBNRotO5j6AssLu0p2P6ckTXz9h8NPuzPbllrXUWOaNXfKIW/95C0Nhaduatp75l5v5ZxqshMTXpAUVoNjewlbsMD6fWzjpiPbdh3V23f/3jGDdhmyppHlWnJ+EAGA6WcKcitZFf39ONfscI3VctbPyRj90eTMEd8MJ+1Vmsnm7YhlreLK/kfR4r991rTjelMSacfYy9XwrgjczBoy4VBBNoBZ9aaa7w0944fn5M56qaOy8XcQAIHoE4CGLPqMUQMIhEVgQdakFzfVHThtha/gIs1mJS2KHqvryKFvG6r0PzlFk9Y37T7r64bBl9Lfn29bgUv1mf0mzd6kegdsbdx/2m8PvnPpbm/V8TVyU65iIb9ICrPBGjc7q0pEZAldvRM1K/OwCCTIRQFNmgFc+NSy2oxUoSyEV8relHKl4eT1NSUnZ1Wvq5qeNuzrz+u2vT81Y9RXgyypZaEo+f2K6Uvn9gtXNu06V3FQ2i0O6yGUmUdGVAhj9GMSe+w2uaXjUsd/c1L2pHcThDq6CQIxTwACWcwPERqYKARyzWn1a1wFT+3ZUzjtcKo8UraT7yJpxzhYqnHo8bloG5H+X2NzZS2q33pTuafhswFJmaXGNS7Fl7zfVzttTX3Reavqdl+8Ry6c6jf5JWuSXZIonpmNMjumki0YJzb3cQX6RiSOXiHA0hmLTeTvSN4ALCCbNCvFQTNJPnKkqJLc+V96tl+2uHnrZZNKRq17oXTD+9OyhywaR44BaWZ7S+iTWsU55MvKzTfVW5tz7NYk4UzQdkxlYQRI//kUqb/PcfDckd96Os2cTKnEcYAACMQCAXwOx8IooA0gEETgX0Wf//5/dct+LmVRSmzZLqLHBx9G7C723rO4LOrN/U755TUDZj7RqDTlF3pqpiyu2n3thuaShSVS4xCV9j5J2UaLfWvPTeEUSeoShRbpzmds7Hi7ru8PaMcMOtI2Cq1Y4DBSQenemrqQxnvVfIWZtzVZ00VRzMhOX8qh7ADHZQ1fvjBj9JuTkgesTLekV79Wtelnzx9e/JCaqllNnJWA7uf7gmcOZQAlG0G/ZG9SpGuzF/7m5oGn/zKe0kD1/TmFHiY6AQhkiT4D0P+YI1Dgr5702O5XXtqRVDXDSkbgHPbr6ENf7t1kcD/WmlN0bs7kFzY1FZ2xt7lyssvnzfCRdk2zcrjSgA0aPekqm3QHwjLo5XU1IHvHwkjMQY14gzpm0GmBTATOZc9UfdxElgE6xDZGIKUUO3pw1iebn7YlrXbn5Iwhm49LG/nlp3U7btrrqxxtD8TfEPkq20jaCgnnquKTpvn7b/jZ6KtuHG3L3xlxLCgQBECgywQgkHUZHW4EgegR+KBi461/LfnwL81ZphQbbWEdsQU6IggIsy9SdZnJi4+9Mt0cjsJqpTSQFNSAv6cLFNLCcFptXsdZoyYOTs4thLGORIb2+texMBI9MrFScscMOqIbrCET9nsBV1TjQ9nQagqNGY81jbGeIp00YCRs+zm0BoWuSNYooDAHeSVtZ7AmtJVARtcqtGOd7jQ3f6//Od87K2/6f22cuR0HCIBAzBAIDt8cM41CQ0Ag0QnMzx73ztz0UV9aKBBs6/Q+BhlamMlK20y5bzRKFOmjWFd2SzKl77GKqPEa2SOxHZJX2HazAKZvX/GJVTgGZ9exXo0DfxNpPemfTHZ/TTaZYp6pkoPHmGLTaWb6uc22dKtecs7OZrc0xzHk87lZ496HMBaDcwBNSngCEMgSfgoAQCwSyLOn1ZzR/7gX+8kp1QqFLxBBWFlLImJ+BU62LGKtCim7hAZMWBqxcTiHy9C1JXaxDcZ/oX+8bSkW9+A4WmJTs5MnFOvhzBlDAG7vayDehZ64M5Dzs5XNF9uCsSDF25Viy5ITsuv2YTbathTbz4HxbmtnqLcvMK5cDs2DYWpm4QX9ZzybF0aYlHD6h2tAAAQiSwACWWR5ojQQiBiBaWljv5iTO+kLlZJYc5yq1kewnkvXgJHKTAhbYnszYNDNm1LQiEVsSHqtIF2QPiJKc5w6lq5ZOGsVqTdEC1loV2hrc3b29C8npY5f1mudQMUgAALHJACBDBMEBGKUgCyZHKnWVKdIhMgR31vyEHXH/itGO4tmtUvAEMa6gojnjKwo5GlrldIcafU+VUvuSjm4BwRAIPoEsPcQfcaoAQQ6RaDZ705Z5yo79f3qjT/c6So43pXqT7PQVpVMxvvCcS4oqXWnCm65uKvelV2rrW/e1bFmqrf7bQjwvF3JWtMst6VyUvKIDWcP/tY/ZycNWZRucbh6u42oHwRA4AgBCGSYDSAQIwQ4MfQuV/EJS+rX37ikZu+F5XZffwsl+LYJcyGWxALJLSGQxcCIxYFAFvDOVElDxpud7KHplWVpgCWr/OS0Ue+fkjX5tckpI75xmI1sqTGAFU0AgQQmAIEsgQcfXY8dAvu9deOX1Gy54ZuGbVeWqJVjVTtFnwrkluTo/JqRkxAashgZtDgQyAJb3Bptd6vkNMD5K8k1U9L8MiWMl6Whpqz9Z2RPe+ms7On/G5yUezBGwKIZIJCwBCCQJezQo+OxQKBBlpNW1u27/JP6DXdv9R6YK1MIA7uF44hJFEMs4BXZkiBauFliyzIWBq4liEhMNCZkI47YHHICc02EQWEnDxsZpXlI3ldkt5TtM6mT7aOWn589+8njs8Z9lGG1UT4AHCAAAr1BAAJZb1BHnSBABLZ7aqe8e3j5z9d4919UZ/WkCymMY4CSRxwHevXSXiWFGaPQFUGBEyCQxcjciR8NGQNjgYwFfLZBtHBAWQ6LwtI92Zf5KdZdnpJcPT9j8gfnDTzxr+PsWduTTcJlFwcIgEAPEoBA1oOwURUIMIEG1Zv6Zd32b79TsfKHh5Sa0VIqReLn7UlaAkXOQvqPNRksh4mUhq3iVtB1bXJbgioIhEPAiD7H1wYHCA4ETZHMtJU5yJp96OLs4588N2/G05mmI8nLwykf14AACHSPAASy7vHD3SDQKQIFntoJr5Suum9R49arvcluh81mYyWFyF8o0uME0ue0XygEsk4Bx8VhEiANGiUe12gyJnmTtQUZU1+/IX/er0cn5SLfZZgEcRkIdJcABLLuEsT9IBAGgQbZk/K1c+c1HxavvWu7qW6mkmKSHBxbjNRfCoclYIGMDghkYcDEJVEgwNkdZLGtKVsoDZfbLE3Wcjef3W/mMwuzJr2SY0lpiEKlKBIEQCCIAAQyTAcQiDKBvZ6aye9VrP7+V7UbrnHbfBlWu0NP+s1WOvQE8iJoRFuHQBblwUDx7RAQiZloLiqSQvZldtUiabIqpXrtzadkH/fKJf2O/+vYpNwdwAcCIBA9AhDIoscWJYOA9KVz71WvV638xQ5PyRTNIkt2NqbmlDfk8UYimTh1gUw/IJBh0vQOAc59GsiVSsaM/L1VskiUtUuSZZM0NnXw7qvz5z1yatrYN6ww+O+dIUKtfZ4ABLI+P8ToYG8QKFeb8z+t2HjnZw0bv1tkbhiqUAwoizDW5yCdbDPGj54uiR0JTwCBrDfGCnWGJmBR9FcGP0lnnMS8nz+18tzM2U+fP3DWkwMsyVXgBgIgEFkCEMgiyxOlgYC0y1s5/eWyrx9Z6dpzkdehkSBGAQYo7REHetXEPmXrAwIZJk0sEmBvXgt79IrUSxS7jGzMLH6TdErS+LevHbzgkQkp/bbFYrvRJhCIVwIQyOJ15NDumCSwrHH7pa8Wf/PQHq32OF+ySfJZKI4YaRqS/WQrRnoGv1UEEmvVdghkMTmUaBQJYRbaXnfIkuSnbUwvBS3mOCxWCh073pS78YaRJz96Usbk9wEKBEAgMgQgkEWGI0pJcAJO1Z3ycfXGu94sX/HjKrN7oNlhp00eSQhkVvrGRhoyjivGATlDqMiO/CqMsBcJjhrd70ECZtaSUZBieqeg1whObq/bP3LMsnw55fCVA0764zm5055PtyQ19WCzUBUI9EkCEMj65LCiUz1JoEh2Dn27fMV9n9dv/nazXUk2cb7AIMFKPGRsMI2nrSeHBXVFlQDHwzNLyW6z+8ycaf+5euDcPwy2ZhZFtUoUDgJ9nACWiD4+wOhedAns8lZPf6l81aPfNOy6UE0iezEygFYpvhgOEOjLBFhbZqMtTZU8MTWfWTolbdzb1ww44dEJjrytfbnf6BsIRJMABLJo0kXZfZrAysbS016tXPzbjc7Cb5mSbWSwT1s6tEQF24T1aQDoXAIT0G0hOaCxmWKWSR5JmmQdtOaGIQsfmJcxdHECg0HXQaDLBCCQdRkdbkxUAoqmmT5t2PadV0tXPlBsqhzJAphCCxPb1tDShAMEEoQAew6rZCPJ4VtskuySpaHWjILrBp342JnZ01+wmUIZTCYIGnQTBLpAwNqFe3ALCCQsgWZNtr1Tu/nuN8u+/vlhc/0AjbwmzRqLYRRMk632yX4MBwgkBgE9uDEHNtY0ciNO06Q9vsOj/1H2xZ+bNCW9WfX9K9Vs9yYGC/QSBLpPAAJZ9xmihAQhUKd60t8rX/uDN6rW3VvrcGcqYjnipOAcPhMHCCQuAY5zzJuYySlpUr2sZP6vbOmvfX5PWr3q+WuWOak5ccmg5yAQPgEIZOGzwpUJTKBUcfV/pXT9vZ9VrbzVmeTLUGwW2p60SZT6T4QDwAECiU6At+4pQoawpWxIdme8XP3Nw05NSi9XPH8aYEmqTnQ+6D8IdEQAAllHhPD3hCdQLbv6vVi+5lcf1m28w5/qkygwE5vO0FYlu/63DWcBXVnCT5hEBcAmZRTuRTbRWwrF3XMlmRwf1K35mVtqzq2QXQ/3t6aUJyoa9BsEwiEAgSwcSrgmYQlU+psH/rP06z8vqtt4lZQi0+4kxxgTG5VCM3Z0bDEIZAk7WRKw42rbrBP0QNjYlpK28SmcrOS2NZk/rd9ya7NfySj1N/9ksC21NAExocsgEBYBCGRhYcJFiUigRG4e/Gzp10980bj9KouD/MhIEPORFoCjjEHsSsQZgT53REAPiEw5W9mmjPYv+SfVJktf1W25KklR3Yf9zocG2dJLOioHfweBRCQAgSwRRx197pBAoc8z+IVDy/+4xLX1artNpW0YVfJwwFcSytiAGQcIgMAxCIitfIvYwjRJsmRNMkmfuTbf7Cuy2Ep97p8NticfBj8QAIHWBCCQYUaAQBsCJbJz+H9Ll/5+SdP2q70pfsnB2y9CFmNvSpbGYMSPSQMCxyLATwnZ9gs7S9rjp9AYquRLkqSlTduukw4r5kNy44PDrRkHQREEQOAIAQhkmA0gEESgXHb3f6Zs2eNLGjZeITv8ZApjkXzCVsyILwZhDBMGBMIhEJDF6NnRtzAtJJj5kl3S4uYt16hlZlOJ7PrJEGsKNGXhwMQ1CUEAAllCDDM6GQ6BOtmT9e+q1Y9+2bD9CpONc/VZyFmMkyHpJvw4QAAEOkdABPEXBwll/I+0zF67JH1Ru/nqHLO9rE7xPJJtSWroXKm4GgT6JgEIZH1zXNGrThIoV/yZL5WvffjTujW32S0ybbHQ2zzFtDCRQIY4Y52EictBIAQBznspqZyOnF5xHJr0Xv3KH6k2h1quun8/wJyMOGWYNQlPAAJZwk8BAGjSfMmvVaz/2Ud16+/xO2RJ8vspwCWlQ+KtFoEH2jHMEhAITeBYHi6tnxsRu49UZuKpoheeZko79k7Vqp84NMXXqHl/k2FyuEAZBBKZAASyRB599F1yaX7b+9Wb7vmoauXdHDOJLF0kzUqPBYdSgjCGGQICxyTAGuRjH62FMn0Lk+8xSVbylFGtzdIHVWt/kGVOrvJq6t/IgYaiyuIAgcQkAIEsMccdvSYCbtVv+7h+y/deLVt5f53Nk6HQVopF5KbsaJEBPhAAge4R4HAYJslCz5rL5El9s3TlT1KstsYm1f1ymjnZ072ycTcIxCcBCGTxOW5odQQIfNN08LLXD3/z8xqLM0Ol3JQUY1xsTnI6JBwgAALRJEDOMvTeI5ORPy9ClaaGwS+XL/lVljW9jH78JJo1o2wQiFUCLT4wsdpAtAsEokFgvbv8xJcPr3r0sFTfX7Ny7H3yqqT9FAqXhAMEQKAHCPCLD295+smWzJ9skopNDUNeK1n+8GZXxeweqB5VgEDMEYBAFnNDggZFm0Cpr270iyVL/rBPLR1rdtgls8kqWUkY4zf2Dk1iot04lA8CCUSAg8daFdKSySbJbLFLm9zFx79UvOQ3Zb6GoQmEAV0FAUEAAhkmQkIRqFUac16qXPWLDa7C+Q47p3bhVEhsN5ZQGNBZEIgxAnoGDHuqTdriLjzj9fIVP69Wm/NirJFoDghElQBsyKKKF4XHGoFPqrfc8UnN1pulVNaIsWFx6z1KkRsZBwiAQI8T4C1MC+W9pO1L83uN2+7OrEor92ny7+wmKzwve3w0UGFvEIBA1hvUUWevEFhWv/uivxZ+dLfiUMi7i8K9qix9sYbsiBQGgaxXhgaV9kECQufVkeY5+AWInkOVHkDNTOnI6Rl9p2zVD0Y58rdSMR/0QTzoEggcRaCjxwXIQKBPEFjfdOjkfxz47F/7bVUTyGSMDkMzFmnDMVgB9IkJg050m4BIldSByzLbkIU8KByGKivSRHXAlrtHnHf79NTBa7rdIBQAAjFOAKtHjA8Qmtd9AmX+2qFvFH3z4AFzzQSzld9B2rpS8qpgnN2vDyWAAAh0kwBpyixWm1Sg1U9/q3T1zw8rTYO6WSJuB4GYJwCBLOaHCA3sDoFGrTnpo/INd27Vyk/z2+mN/ag9SeF7f+TsTmW4FwRAIGIE+FlVSJu9Wim85KPKtd9r1rwpESscBYFADBKADVkMDgqaFDkCK2t3X/lJzZbvuh1ei5mFsXb3SCJXJ0oCARCIBAHSZNPLksvslz6r23DrcEfOblVTXzSb8BBHgi7KiD0C0JDF3pigRREisKupeM57Rcu/X2Nz5Ws2ieLw08FWxh1aGkeoASgGBECgiwTYtMAsKRypmeSvWs2d93756nv2eCpmdrFA3AYCMU8AAlnMDxEa2BUC5Upz7muVa+/dZqmdraTZhecWgo11hSTuAYHeIcCWBFaFYpNR0AuzxSrt8lXMfIOe6TLF3b93WoRaQSC6BCCQRZcvSu8FArLmNS9u2HLL1569V0ipDtKI6bZjFIy/D+epZKcEdlZA7qdemHKoMgoEWJEt0zMrvDXp+fUmW6Qlrt1Xfd2w5Vq/5hMKbxwg0JcIQCDrS6OJvggCWz1lCz6sWP09v9UvOSgfks2vCdMxhT7gWSjTNWXtnbEEkZciXcgyvproO8MHoXXEAES0jaWR6+m2sPDCqb9E+q+gyvX494Gd+p5uVLfr0yQf5bn0WTh8BgWNpWfXZ/NK75SvvGebt2xut4tHASAQYwQgkMXYgKA53SNQpXqzXi1b+/MiqWmYlUJcKCYO8q0LMXy0LFaGLVnbr92rPqJ3izwC1HC2o9HMCi1KCvVDIeFSbTmFRoz72EG8p4g2DIXFHAEefp4fCs0TVcwHnveqEOeFsMY/tRHWYq4TrRqkh6Fx0JalhQI4s8mBhTpipz6UmJzDXz285r4qxYPUSrE9iGhdJwlAIOskMFwe2wS+qtlyy2pX4VlWu02yyHpbjaThvGjFm38W6fZIqKTI5bQQUQ5myU8aA79F1Y2dadE1C0FMLLuxPTBoXdQIaCSgSySos8u8jV8+SCjzWxTSJtFcsaqSLDRMLN7HnxWleGYDr1KsLzaTmttus0sbGg+cubh6y/V+1Y9IAVGbWSi4pwlAIOtp4qgvagTWuQsXvn142T0abVXyh7df2J/E62HSE5/THqviIS2Zm/rhtUpWr11Klh0kl9klRbNIXtIecG9bW47BlixeR70r7ZZpDngUVfLJJHT5TFKS16KkuyzulCbJZ3aTxsynSDIJbYqJPRZpXpGAH+7ZlfZE5x5WAervHTzb/cmK9d2K5Xfv8pbNiU59KBUEep4A3i56njlqjAKBOtmT8X/F73+/wuEcZqII36xVspBAEw8HrzMt2gv6gbcpNd5n8klSumZvHJzUr3BIUt7OgebMg4PtGQdSzJbmeknJrvA2Dy1Wqicc8JXMrvI2DPaaSH1gof/MZrF2sRINET7iYQaE10ZjnrCTCgtWQuwmYStZtvn6peZUjLJlbx5mzto1wJ5+KNNkrm9SldQSuWFMqVw/rkJuHF3hdw6p13zZqo3nCN+sCzktW5k05cQ8jNW3GNYSm2huUwPNJFwWmWrGvF2y8vv1ind7lsXhDI8irgKB2CUAgSx2xwYt6wSBz8mr8hvXnktVG2mVSBvAmiUhlZBgFsuHYePDbRSBa+kgRYeUoth801OGLD01bcIrUzKHrcp1ZBxySBafLTgTOl3bqMlJJe7qyZsaD56+yrXz0u3OwjkeB4XOpG0dK5VnJokMQlksz4Dw28aCk4XGlHatSTNKW5S0jz3J1G/jKbmTXp2WO2bZoKScvcmS3ekwsSpMP7wk2XskX0qj3Dxgr/PwrEWNu69d3XzgHE+Sarda6VkhzRoLYMbjQrvhMX0YsqIw8iezhHXeA+cvq99+haxp/7G2eTZiuiNoHAiEIBDbqxWGDATCILC7uXzGY4Vvv7bLWjEumTKHs7UMb8nwYXwVP9Cnuemo1ElhVNCpSzqnldO1E2zjwzE5eAVVpEGW7KIL8mf/85SMsW8MteYcCLf6g76KiUtrt17zTs3W2yosnv52cmowq+wAwEIZHvVwOcbqdTxPeJKwyViaz159Xt70/52XO+3fIx39d4Tb5jK5bshndbtueqd63Q/LbE15FquFtjjJzozmCgs5Vo75FVTY0anGwq3JmNfHVrd11qbTeJ65XfxPJtu5SergDT8ecclNk5LzwuYQfi9wJQj0HAFoyHqONWqKAoEG2Z367OGv7jio1YxLMtt1ISwK9USrSBYQWSgzk8CkeH3SFFP+uluGnP7w1JThi1NNdtq0DP8Yae+/y6P6f51lG1Dy34rlD5cr9YM5mbqNPNXii0r4fU6cK0kzxnaRtCudacmtumHICb86O2vc/zLN9qbOMBhozS5xa/Ljo5Jztz1f/NXjBb7acZLFQj4B5MHLkhht8+uK5dh/iui1S9IoYOwOuXzWopoNNzQrvl+lWuyezvDAtSAQSwQ69zofSy1HW0CACGxxl5y2tmnPhSYSPNgtPt4O3oJiT0lF9ksjtPS9tw499YE5jkFfdFYYM/qdZLb5T8qZ/L/r8ub/Ptdnq2ENmb7S4ohrAiQg+UhSSpPtVdflzP3NedmTn+2sMGb0n7TIvrkpwz69a+jCH09SM7bIql8YHJJjZly9zHB/aHNeUu2atLx60+WbGwsXxvUYo/EJTwCf1Ak/BeIXQJWvesgnVSu/f1hyDbCQlbIq3upbC2ViayNwxqbPJW0rKl4pQ9Oarxq88I9z0sZ/ZbGmdsuSJ89k9pydN+n5C3KP+0+yYhfempbAP3OrDan4HftEa7lKLxsOOUm9JGfWsxfmTnomzWQiKarrh8Oc7J+bNvnjS4csfCJZ03ya6o0LYezIs6z33USOCQ4yUyi1uEd/Vr/6jmq5dmDXqeBOEOhdAhDIepc/au8GgfWu4tPXu0tOtZBXJW+18NZfkL9iN0ruuVvZEdRPW4onpE965+SMCW9FquZ0s819Vr+pL4w39dsgvARwxDcB2lIcbx+wYWH/Ka+mmmwR25abkzHmkxOyp7zHaSyUzhp0xQBREQmD/melFGnr/EXnr2wqOE9W9XwcOEAg3ghg4sbbiKG9gkCRv3H4R1W7bm9wSGbetrDQ79j7LK4OduMnL7dB5vyyMzJn/DfbnNwQyfYPtWTvPDl74msmCpDLBtBwQosk3WiXxd4eZCPF2l02tifN5sl5Y98cYsnYG8ma88yptWdmznp+kCm/wu+XW7TJbTVRkawzUmXx407Wb5KVtGSsKauxKJbPa/beVCo3D41UHSgHBHqSAASynqSNuiJCwEOu/Evq91+7nfLZJdFSxZke+eU+1l3223ZevN3LqjTTNviLScmDV0UETlAhVpNdm5Yz5sv+qbnlIokOe5ny3+NNcI00mLgoT3fEoLcNiUK7Sv2SsyqmZwxZlmJydMrRI5yuTrIPWDPVMnAZe1jqQcjiZIKwoMqxbkloVei0k2Jsj7tyztdNBy6pp3Aw4fQd14BALBGAQBZLo4G2hEXgkL9x7JLytdcpFjd9ILMmQfdUjLuD2p0q2eSxqYM3Z1iSXNFoP4XQ2DPF0X+ZKrzoOD4bnXHgQRcNFvFVpvAh1IUjEjSmWoZ/MdCcHVHtmMEj25rcMCl18JoUzaZyQGJTnDiBtOSnDTz7Nmq71+5xfF6+6rYif/Wk+BpvtBYEWoecAQ8QiHkCZH1sWly5+dvFptrJJtqnVDkILLWaTGBErsd4OnhbKNlka8pNySqKVrszTBbPMGvWTk5KzhHO4yvBdLSoxEu5tBXH9lGkBRpuy9+eLCU1Rqvl+alZxUkmW1ReCqLVZi5XPPecYYCTDtD/bKQmL/FXTvymauvlXk0m41IcIBA/BOJsCYsfsGhpdAjscpcf/3XN5qs8SSRg8OzloOSBN+Q42Wg5AoYaTLHTXJn2lOro0NJLzUnNOmwh6VWmzS8/7e3ywoUjHgjQliUJ0naf7O+fkn7QwSrOKB1ZjvSKZIvDrVIGgO4Eg41S88IuljJ2SqZkSVpRs/PSbb6K2WHfiAtBIAYIQCCLgUFAE8Ij0Kyptq8at99caq0eadb8QhaL94O2XP2U6ibidkHBXOwmi9tCRuGsHYs3LWK8j2932i/eM2iOk4bMmyyZo6q9spnMfqvJTMmY4i8WWTBjtrdTbZpUYnaO/6Z2+1UezefozhjgXhDoSQIQyHqSNurqFoFdroJTNtZsP1uhmGMy71dyiqRAOiSOeM/GvfxVP/VtjLZntxoQ4ZuFnkoorKKrsuIdHTYb48C5FmGZFI8GdxGGH+PF8RzW6I3DQ0FPFYcl2W9WoipYcD578TTxRIljG0N6liQftd9LJv3rqredu8dd9K0YH2o0DwRaCEAgw2SICwLNqitpecPOy6s053Az7VWKs6XlLGLoBtCGuGG86Qd/jbWOstk22bkkO32erGi2rdbtGihTSANKJS2EsuiKf9HsSYKVTVNapvcOF/2/ytM8xM8W91E6nLIn26upSTwn4/mwkAOETSV9MAlllRbX2G9q9lzgVWFLFs9jmkhth0CWSKMdx33d7a2au9ZVcr7LRkIFfdiyobOuYNLDOcTlQWtfkyZnVnubB0Wr/W5NNRc1N4wjXwiJQp6JIJrxveRGi1TslcsaMtb6+jRZKnbXjPdLWtRyD1d5m4c0S3ImSTKxByLMFglzUn5R41AY9Bnhspukdc6Sc/a5auFxGSZDXNa7BCCQ9S5/1B4GAZ/qs66q23fhAX/9QI0XDHLL95Fg5qNIsC3B+cMoJ9YuMVFfvCYl6YCzYrpT9kUlblK96s0r9NZMN1stIl4b/8MR+wRYFyaSzrNwYbVKhe6KGQ2qJzcaLXfR3DvorJziNskWs5n0qCTMGGc06otWmRrn+ySNoo9WNWGqQD8fVBqnrKwvvFDWhAsQDhCIaQKYpDE9PGgcE9jrrpu2oX7fmfRRS2++FmGYzh+4FuHqHr+MeNvVR+3f4io99aCvbmI0erLLWbygWK2cpFDy9SO6MQhl0WAd+TJJOKItOIvZKh3y103c2VQ2L/J1SNI+X92UTc6iU33kYck2WPHsZckLGluXcqBojkumUazCtY1bL97prp4aDXYoEwQiSQACWSRpoqyoEFjvLj6zWKudmGSz6luU/KHLmoM497IUfbFbpf3mhqnrnfsvaIqwR1i15sv4qmH3TbUmZ6oah3kKozKZ4qhQMzthcGJ4Ei4aJHfW4ro9N1Rp/qxIdqFedqWvchZcWmBqmGIhLapGcf3i+RAZOyjjgJju/D3ZNhRqZdM3uArP9Ghq1LZ845kZ2h47BCCQxc5YoCUhCJR660asb9h6cbPNb6aUjCEP1pKJMw4JWmjl8Fl90uc1227d3lw2P5Jd+Lpmx83rvIXnaRbdIxXWY5Gk21NlsZk9aXooxOkmX8F5K+p2XkXG/RH73N7vr5++pHbbdV6rl7RJ8fgEHWsc6JWHtmCdFr9lQ8OO82v8Dchx2VPTFvV0iUDEHuwu1Y6bQKADAhvcB8/c4yqcbWGP/GOYo8fnUsJJkf2Sg4SyCrVhyLtlq+8t9NaPiMSkWNtUcOb7Zavv9nicwjBcP+J4fzcSUOKyDH3MzDT/XXK9/cPyVT/c2lx8EtlEdXswi3yNI94sX/5Aqb9qmM1EaiVyHojP15r2BpY+McgQz0bvI7ua9h+/vrngdJEbCgcIxCgBCGQxOjBoliTVyvX5ayu3XuA1aeRYyduVhlBxJJiFEfDiiMARKuBFT/6uCyNH+SVt5BG21nXgnP+WLP1tobehW0LZJteBU1+u/OaxAlPdOIeFY4/Fp7jaBZJ99hYzzxESqPdp1RP+c/irJ7a6Chd2p7P7fDWT/1O25PdrnPvOMSdZRegx3uYL7PQJw4C+MGtkWuFU0hA3WxXHyrrtlzSoDXnd4YZ7QSCaBCCQRZMuyu4Wga3eQ6dscxXNVW0O2pKkqSpiaLURxmgl4Zde/cU3Fs7OdFmPmsYLn5cSG2nJJmlp485r/lb05b9WN5eexJkJOlNas+ZP+qxh+w1PlH7yn1X+otlqCkXnt5sJ2xGvOSQW7wzR2LmWM7YqtP1mtpmlTd5Ds/9e9vFzX9RvvMGteShRUPiHjx6U5c2Hzvxz8WfPL2racZVCc4RTXlCSJuG9zHNF3/6PT49cdkhodYq+WOiFJ0Xa2Xxo3nbvoYiaBYRPHleCQMcEoL7tmBGu6AUCzZpi+2vpx8+927DuRoedEsd04FEpJnIfiLGl0oIoexVpmDWv+JSsyS8tyBj79vDk/ltSTKb2TOgkj+qzbXeVz13i3H7TiuodF5Wbm/OsdntQSJDWm70mtS/oPnphUvZylcaoKZxvUlGkQZKj+oSM8e8uyJn50qiUoevSJLPHagod9tejKdaD7prJSxr2XLO4bvt1JWrNEKuD8zawLiz0MiBeb7oxVYRI10EB0fQ1Ca6are5kn1e6KGvOv3446Pzv2SlNVC8PJ6oHgaMIQCDDpIhJAjs9DRN/u/ultw8m1050SLRdSW++HLX8WIeIPRSTvQmvUawr4+TIlI2P9GUWyaEmSyNNWXunpgxbOjyj37YcR1JZvpRSkqxaPE6zmlYjeQbWNtcN31dZOGur//BJhx3OIRIt1hwmgWUujVJM8dFWKwaBLLzxiKWreG4rAecVE21fWsnki2cJB0MdZMoqHZc8cN2YtJHrhqX035xntlekqJKLYnLZqjTXkApfw5h9DeWz9jaUziqWGic5HRRsheQR3srmDe2+KpAF3tGExo816wr9G+nP3f3Q6GsuG5+UszOWxhdtAQEmADdgzIOYI+Aljc/rDesurzDXTXCYaddOodVIBIQNGLnEXIsj0yBWRgiNAfXVxpoyi1/ar9WMO+CsHGetVaUUi82TaU6qtfsVl9dqTnNq/my37HMo9BTLlOnQRPZiFEWUcJHeQzhBxLeAGhmqfaMUFipanCB5fEmOUkU+V0kqlBoGF3vqB69wHbw4RXI0k6as3iFrzYrN7HBK/pwm1ZvuoZt5A9xusUpWtqvifK9x/frS2XHVJDvxKpXrx611HjiX+r+Lovl3Q//X2fpxPQh0TAACWceMcEUPE6jXPHkbarae705SKJi9lWIJ6QbGfVweE+KTRv01kqOzZ6lEcaE45IFMgV0bNDmpQWoaxK9RQuvFi6pDj/dB1j+6k1zA/od1Y/An6+GJ2wPViefASG8USAJOTwjNEZPkIY0ZZX5IrZG0VHGdcbJdGKlMOZ2QTP943uiZYONZnxwe7Lbbrj6rat5cs+f0C3KnPkcl1IdXCq4CgZ4hAKP+nuGMWjpBYHdz1ewiV90Is5k0ALR40O5Mn/H6Cg9DkHMCfxtwfRNRyGlRpdTJdLIZti6M6QdrEAP3CcPsxNJ/hMc1vq8yBOy2ah395yO/5blBYr2YI2IWHFMP1PeFMmPUWStopRebA+7S6VudxSfE92xA6/siAQhkfXFU47xPm5qKT680y/0U9pjify1xtOK8Y11sfkteQRa0ArKX/rW192RwDkJ4U3YRdh+4zQhdESyHBc+HI/OkD3S2U13gfV/KemD3DdjcdOA0WXN3you5U1XhYhDoAgEIZF2AhluiR6DYXz+y0Fk4S7PpqbB1zY/+JQF2WCIC9qjgH+zsEHRGpBIUAgLxRkC82FH+WNre3essnlct1w+Jty6gvX2bAGzI+vb4xl3vtjcVLij2lUy0O8gImeIi8TZDoh7taQY70hgebaqcuAwTbe50NDda80ic7UrRb363I/sHijMtHfJVTdjqLONty4OJNkfQ39glAA1Z7I5NwrWsSfM7troPn1JlU3LM5BFlUclKSthCcUBYwgG5IuHmBDoMApEkwOEv2KGhxuLP2uQuW+imYMqRLB9lgUB3CEAg6w493BtRAlVu58i9TZVzZIpGrpBBv0reZNipjChiFAYCCU2AA9WqFAKEty0LnGUzK7xN2LZM6BkRW52HQBZb45HQrdnrOjy7Qq4bxnG4fBSQS6GzrT1UQgNC50EABLpNgIUyjsVW6a8ftqu5eG63C0QBIBAhAhDIIgQSxXSPgEuV7VvdB051Ss5UzqnHHpYchRzG6N3jirtBAARaE9ATtZulWpMzd7un4GSX5utUPlDwBIFoEYBAFi2yKLdTBOr9rn5lnoaxLIFZ/JQahoUxIwBXy1c4WnYKKi4GARBoRUDPYEGfMRRwWSaXtkNe5+Rqv7s/MIFALBCAQBYLo4A2SEXuuvHFvrrxHOzCKquShdIlafQmK/FJH55s0d+iLQMvEAABEOgCAd6uFOF0yLhftlmkA/66qYdcNRO7UBRuAYGIE4BAFnGkKLCzBLyq37qtueB0sh/L57QwbDfGaV74H0cnFw6WIvyFfuqphUKccMPsLHpcDwJ9noD4DAmc3Fly3hZCmdlsluoUZ/re5uLjfarf3udBoIMxTwACWcwPUd9voFNx5+70HzzJY/PRh6SFjPk5OXaoGElBQhkLZm3Ovk8KPQQBEOgMgeCsBcFRc1T6eLEp9Ami+aUCb9mMZsWb2ZlycS0IRIMABLJoUEWZnSJANhyDyj31I202q54QWwTnb/tRiiBknYKKi0EABEISCA6cbKHPnGJ37fgqH+zIMF16nwAEst4fg4RvwX5v1XFV3qb+vE3JycTZWExov4JdLBEZNuHnCQCAQCQJ8EcKW6eWeOqH7/bUHBfJslEWCHSFAASyrlDDPREj4FL8jl3NJfPcFsVCcfmpXGjCIgYXBYEACLRLgO3IbGRH5rX4k3Y0HjyxUfGlAhcI9CYBCGS9SR91S7Waa8ABf+VMyW6hyEAJllsP4w8CINCrBFgpb6bkSQf9xd+qUV0If9Gro4HKIZBhDvQqgSp/09Byd80Ik8VCW5V0hjIda8ljCYGtVwcLlYNAHyOgqmQaQatgrewcWK00Io1SHxvfeOsOBLJ4G7E+1t6DzWUzGhVPjkYbliqHsiA9Gb2ztnP2sc6jOyAAAr1OQKNtSyd5WRa5K6bIqg9vfb0+IonbAAhkiTv2vd5zv+yz7W0qneU1KyLqmJ658lhH28yWyHTZ64OIBoBADBPo+BOD4pHRp0+T5Eve21w+2yfJKTHcHTStjxOg5BE4QKB3CDSbfRkHfTXTZBvFBOKA/BxAu8OmdCS0dVgALgABEEggAsFhLtp2W7wIUlAyv90sFci1M52SlE7XNCcQHnQ1hghAQxZDg5FoTamQ3UOqfE0DSR6TzHq0CxwgAAIg0GME1EDEQ5vFJFW56gbW+GHY32PwUdFRBCCQYVL0GoF9TdXTG1VPjp0+FK0yvauyde0xbcigHeu1wULFINAXCYg9TbJcpYjUjT5XZkFT+Yy+2E30KT4IQCCLj3Hqc61UNM1UKFdN8ZplO6dLUkWIRhwgAAIg0HMEONm4woGo+atZcRT7qieScxHe/HpuCFBTEAEIZJgOvULAp6mOg56SmZpNkXw0C90W/YMRBwiAAAj0BAH904Y08/QuaCHtvMmhSYXe0ul+SWUrChwg0OMEIJD1OHJUyASaJH96ldc5VOMZSC+kVjohj2FugAAI9BQBVoOZyZPIIryJTBInHK/yOQc3a3427McBAj1OAAJZjyNHhUygzOcc1qj5sjUzOfqqqmSjD0RSkuEAARAAgR4jYCHtGDsUaQpp6Mlsok5255T5Gof1WANQEQgEEYBAhunQKwSKnFWTGxV3lrDhpw9E/lDEAQIgAAI9SqDls4fdvCkemerNKm6qntCjbUBlIBAgAIEMU6FXCJRLVWNlE0UgY0GMtgogj/XKMKBSEEhoAmy+z1uVfFjon2LyJ5WqFRNlTaE8bjhAoGcJQCDrWd6ojQh4NdVa4a0fIquKvl1AH4gKzUQIZZgeIAACPUmAP3uMkxdDVVXN9Nk03C9JCJrekwOBugQBCGSYCD1OoEHz5Fb4G0aqQhpTKUI/nRDHenwcUCEIgMARAiJqP+nFqn2uIS5NTgMbEOhpAhDIepo46pMalaZ+dUrTAN3DEkBAAARAoPcJaORtqVrMUp3WPLBRbcrr/RahBYlGAAJZoo14DPTXI3tSnYo7QxOR+WnPgGMAifTiOEAABECg9who5OrdpDXkON0Nub3XCtScqAQgkCXqyPdiv+vdTfluvzvJTLPPZIYg1otDgapBAASCCJhJZd/sdafUepr6AwwI9DQBCGQ9TRz1SXWqN08xazZSiuEAARAAgdghQHHJKGOI1WmRs2KnUWhJohCAQJYoIx1D/TzsbxhFZvxWxB6LoUFBU0AABITpBHlYOir8TcN9yGmJGdHDBCCQ9TDwRK+uUVOTDmuNIzmXJfubsyFtIBRZoqNB/0GgUwRMIt1Yd08yG+CYqCHO7jrcsDFCR+0TNqQxdJrI08hnksxVSvNAWfhc4gCBniOAWCs9xxo1EQGf5E9x+przSRAz8Ye1EMawdYm5AQKdJhAP1pfx0MZW4ANxyRq8rv5+zZ9Cf2vs9MDgBhDoIgFoyLoIDrd1jYCqKnZNllPoJTTwZty1cnAXCIAACESagJleEm0qaclUOVNWSYuPAwR6kAA0ZD0IG1VJkqzKDvqwS5Gs5M8UMCJjLRk0ZZgdIAACvU6AY1XTRqXb5M/2SUpyr7cHDUgoAhDIEmq4e7+z1eROXu9pzvBbfZJNpg0N8mqSFD1Sv7A56f0mogUgAAIJSoA8LCWXWZGqvdX96zx1gwlDUYKiQLd7gQAEsl6AnqhVstdSla+h8poBc3/vlJpyTSZSkWkW1aSSVEbG/WaTEM9CHaHktFiV3cLJPRALbe+JNoTDou14h3NPT7Q93HnY0eNstDWcfnVUVnt/j2bZXGdv8W6vvx21JxSP4N+1/TuXF/idJvnNii1VSqvvb80s7OqA4D4QAAEQiGkCXlUx+TW15cNUIQFNhmt5TI8ZGgcCIAACIAACIAACIAACIAACIAACIAACIAACIAACIAACIAACIAACIAACIAACIAACIAACIAACIAACIAACIAACIAACIAACIAACIAACIAACIAACIAACIAACIAACIAACIAACIAACIAACIAACIAACIAACIAACIAACIAACIAACIAACIAACIAACIAACIAACIAACIAACIAACIAACIAACIAACIAACIAACIAACIAACIAACIAACIAACIAACIAACIAACIAACIAACIAACIAACIAACIAACIAACIAACIAACIAACIAACIAACIAACIAACIAACIAACIAACIAACIAACIAACIAACIAACIAACIAACIAACIAACIAACIAACIAACIAACIAACIAACIAACIAACIAACIAACIAACIAACIAACIAACIAACIAACIAACIAACIAACIAACIAACIAACIAACIAACIAACIAACIND3CSh+2RTvvVRkxcQn9yP4+3jvF9oPAiAAAiAAAiAAAiAAAiDQDQJx/6bTjb7jVhAAgRgj4Gp2JW3ZsmWGx+NJtpjNsiZJbT+jTIqiWEeMGHFg1OhRB2Ks+X26OYUHDw7/4P0PLtmwaeNst8uVmpmZWT9v3rzlF1948Ts5+bl18dL54kNFw/bt2zfOarX6NY1mmD7HxDf8vaqqlqSkJPekyZO2Z2ZlNcZLv9BOEAABEAABEIgYgYL9+0eOHjmyiBZLLcnh0Bx2e6vTbrNp/LdfPfzLX0esUhR0TAJ+n8/68ksvXT961Kgii9nCgkvLabFYtBnHHbf1s08/PZsEZXM8oPzLn//yE6tFn188n9qePL9GjRxVvGzJ0oXx0B+0se8QsPadrqAnIAACfYGA1+ezy7IsmUh7oalqqy6xJKDQ70mlAe1+Dwy23++3/Pv5f3/33nvv/Wujs9HusNkkM5FXdc2SxBLY5s2bp15x5RXvvvDvF66nH9/ugWZ1qQq2FbNYLZqqyBZZoflFciVpw44qi+cXCZckeWpijqmKajJbzIYGrUt14yYQCIdAXLzRhNMRXAMCINAHCJCsRasgrYTin0KrIC/9atApOqlqRy+kfaD3MdeFtWvXHP/b3/32FyyM2cxmyef3s7CiCzJ0krAi2SxWqcnZlPTAgw/+oaSoaEjMdaJNg3hO8a8Cc8z4ynNOnELQtJhVs9mMSRbrg9nH2geBrI8NKLoDAnFOgBRjGq2KuvaCbXzEz0dO0T1eTHFEl4Db7Xa889bbVx06dGiwxWSm8WDNpP7PLPRLQnjRFFWRaJtP2l+wf/Sbb7x1VXRbFbnSA3OLlH0any0H10A/mHVFrBDOoB2LHHaUdAwCEMgwPUAABGKNQIuBtaG1CNZmxFpj+2p7amtrc7Zv3zFNF4D1I1gMbiUSk/TC2rJly5adRjZnljhjwl0JJeFDEIuzgYz35kIgi/cRRPtBoG8RaLsItrdY9q1ex2BvZL9s83i9dl0SO0peaTtOrMuUmpqcqbLPZ4vB7khsPxaiXcb84q+8HkL1GouDlyBtgkCWIAONboJAHBIIVsxAMOvhATSbTarValHaasZCKMtaWmZz2H1Wm03u4aZ2p7qjwqoECjM8SbtTNu4FgU4RgEDWKVy4GARAoIcJtKexwHZSlAciKyu7fuSIEYVcTSBeV9saj4yNyWSiuHHSrJkz19scjngSyKJMEcWDQPgEIJCFzwpXggAI9AwBsdBz2AHeBmv7r2eagFrSM9KbzjnnnA/T09I8Mnm1kswVpDw6wsdMBv8cpiQ7O7vukksueSvWyRmSfBhzC9uXsT6Yfax9EMj62ICiOyAAAiAQKQJnnXPOJ7fdeuu/hNBFQpnZYpEoKJdEISHY+5C+N5uEl6XNpv74xz/+v1lz5mwwckRGqg0oBwQShQACwybKSKOfIAACINBJAmlpac2VlRWPyYpq+fd//v1dp9OZ1LaI3Jycxh/ec8+ff/zjnzx+3333I4hqJxnjchAwCEAgw1wAARCINQKwD4uhEenXr39VY2Pj/aedduqX77///mU7d+yY4nJ7KN1jkmfmrJkbLr744rdPPfXURbb4MuaPIcJoCgjoBCCQYSaAAAiAAAgck0BGRkYTXfABCWaLGxsasmRKLUSHkpOdXZualubim1VKTWQOHVoCdEEABMIgAIEsDEi4BARAAARAQJLSUlKbA8KZwMF5HhW/bLHYrEofE8agpcWE73ECEMh6HDkqBAEQAIH4JNBW6AqkFRKxynCAAAh0jwC8LLvHD3eDAAiAAAjEIQHkQ43DQevjTYZA1scHGN0DARAAARA4QgDBxTAbYpUABLJYHRm0CwRAAARAIGoEjk7PGbWqUDAIhEUAAllYmHARCIAACIBAHyEAg/0+MpB9rRsw6u9rI4r+gEAcEmBvvYCBeBy2vu83ud3o+7T/x1uAFME/akIOeXGayYtTDZcypXEyWa3Wo9rDfbBQWI6W1En0DX+PLcxwyeK6aBOAQBZtwig/YgT4g9bV1Jx2uLR0yN59+8YfLDw4sramNtftdqfIsmLJzc2uGT16zP6xo0fvHTNu7N7U9HSn8cHMH+qUi09jLzH6YKacL5JGcZQ0v89HuWBMxod962R9miSuo4CXYS8Gfr/fIpIv0n0hOm6iJM1mStCo2hz2dstsdjpTCvYfGLN77+6JRYcOjeA+ev1+e1KSw5OdlV03bPiwwkmTJm8fOXLEQSMGVMQgd6Egn89nra6q6rdr565JhYWFI0tKSoZ6PO5kTkhttzt8AwYOPDxu7Ng9EyZM2JXfv1+lw+HwH6OaiC/ssl8m7qqFll4uO7h8sR7TcFEmILPCg28JsZAbbfW43I6qqqo8n9fr4DhcvOWVmZnVkJmVVZeUnHSsPnWKqtvlclRUVAw4UHBg9KGiohEUKb9/Q0NjptfrTaJJrObl5VUPHjyoZPiIEQdHjRpVkJ/fr8rusEes/lCNVVXmF2JO6/PcTPNeinRgWH42bXa7Qs+nRkySDhUeGrFr965JxUXFwyuICY2rWL8yMtIbhw0fUTh58qRto0aOOkC/cnJb/V6flTKeKy3CWcvTrYnvVPGg6geEsk5NUVwcJQIQyKIEFsVGjkB9XV3m9m3bpz78i19c8OVXi87av3fvOGeTM1lR+SO19cEfrA67XRo/bvzu088689NFX3310cxZs9bTG3Zj8JUsjL39xptXfve7372EFmOZ7jMEJFEkCW+ktFFt6alpTbXVNQ/k5OXWddSjzZs3T//eXXf/kATEZNIY+ALr15FcxpT5T1Vk2w/uuecJKmtDcHlNTU3J27Zunf7hhx9edNJJJ52/c/fuSV6Pxxzcv+BFIzUlxT9lypTtv3r4lx9deMEF702YPGlHSkqKt6M2RurvXo/XWlpaMuSrr7468/prrz17+TfLF1RWVuYolO8wVJuJt9Qvv1/1/Pnzlz/z9L8+Pf3MMz4jYaIoUu1prxzWijz2m9/8an9BwViLxewPJe2RMJF03LTpm773/e/9mcppxbDJ6UzetWv3JBqXi88+++xTd+zYMVmW/TZVJcGa3PQcjiT3dddd90J9ff3DWVlZLAh06aitrc3YuX3H1CVLFp9+0YUXLdywYcMcKjOVefK4h5rnNqtNysnJqZs3b96KPz3xxLLTTz/985GjRh2gOGHNXWpEOzct+urL02+//fabVIVkVpN4TlqmIr/kkNxtYUXZjq3bfjt52tTtkaq72eVK+WbZ18c9+uijZ3z15Zfn0PMxrdntsvNz3/bgBpFAKNGc2n/O2ed88vlnn33sbG5aS3zqg64NhTJSzUU5IAACINB3CdAilfX+e+9dRAvUx0l2B8c6MjQcGqmuNKvZLLRcVrNFs9EpfqYFgj51W65LTkpSzz/vvM/effvti+vr6tODaf3sp/f+X3CZob7PzspqrCgr7xcO5ffeffdiSifDq0VL/aG+f/etty8NLm/t6jVzvvPtb7+QoUc8b7mX+8J94tNG/bST9oa/tu1jbnaO8wff+/6TtIjPCKed3b1m06ZN0+6/777fDx8+vLjVmJC2RLTXwu3U22oX42PWeOEOvpY0ZvtJUHqAhOuRwe0p2Ld/5JBBg8r4WuqnSkauNNZHTmNsf/XQw4+G0w/W3s2aMWNTR2Ny2qmnflNXU5vZalzWrJ11y803v5CZkSE0Lm1Poy3nnHPOl4cPHx4QTnvaXlNaUjLgfy/898ZzqYyUpGTZqIPL5pPH2k5z2848A/NczHWTRTwDwW3Kycp2XnP1NW988N77F1ZXV2d3pT2h7vnnU0/dbbfZjjmnuR308nNaJOqkF7CMD95//8LLLrv0PXrJ8AQzMZ4Jfu6NOSa4mMxinhjX2uhZOfuss756/fXXryQNcxa3S/b5hQLiicefuFfML5qX/JU5G3OM1OXidyNGjChetnTZgkj0B2WAAAiAQFwTWLlixbxrr7nmdRJwSNNEH5i8dcgfwmaLbDXRNgSdAa0Wf6Dywt1y8kLOH9z8QW0smkmOJOXGG254aeuWLVMMMA/94qHHSM0hFjsWHPSTv7dqDqtNfGAPHzq0uKqiMjccmJ98/PG52dnZTSyAcBmGMCUEKhYWAwsAL5hcnqvZlfSPJ5+6a9SIkawpEgsBXyO2VvlsI4wE/0z914VQ3XZHnMOHDTv83DPP3EqaNXs47e3sNeVlZf3+8Ic//Iy0EIeMOlv6Su3hxcxYFIMWOTEuYuHjPgWEaOP+WTNnbnrxf/+7nrbjRJv37dk7enAEBTLSfplPWbBgmZnaZwi0Yh4FndwWWrwXNdTXCYGdt8ee+vuTdw0dOrRUn3s0R2iBpzFVibuYW8b84r9fdNFFH9EWY35neLqam5Neefnla08/7bSlBgv+GpgzvD9oCKT0Pc1nYhv4avws2tIyD2guGOXQS4h8xeWXv/PF51+cochytx23/vP889/JSE9389zUBaEjJz8nPA/TkpJ9Xy9ddnJnGIS6dv3adbNuvvGmF1OSdUGMhU5RB9UZPP/FfDryfAgmwTyM557uU6+/7vqXN2/aPN2o74nHH/+Z8ay1KUfMYf4dBLLujiTuBwEQiHsCHo/H8Y+nnrx71MiRhcaHJS1SvAgqgQWJv7Z8HyyItf2eBTWhZQgIQlzejONmbPvs08/OZlAPP/iL39AX8WFu3GssfrzQ8fUkHByuLC/PCwfsRx9+dH5mRqab6+T7A4toy1dDWKHtr/O5vHt/+tMn7HYb2/5o/EYfrEUKfmtvTzAzBCBDQ8jlpKWmyj+/994n6mibN5w2h3vN+nXrZ9LW6MfGQsdMuY9WXVBodQa11xAeyGhPF5iNfukaTV2I4MX+vp/f94fm5uaUwgMHhw4cOLBcLJgR0JCRQGY6+cQTVwSVFyy88yIvhMUzTj9jWUN9Q5rH7bH/8sGHfkN2bqJtrIVhgSxYGDL6Z8yRCy644LOK8vL+HbEkmyax1bdv776Rd91x57/S09LcXAeXZ2g+Q411W0EsMP+DnwPBXxf8j7yE9O/Xv+a+e3/2eGlJ6cCO2nasvz/3zLO30bwSL0YhXn54bLUku11etmTpQi6H7DWDd9fDrvr555+/ZeKECXuOPPcBzXc7z1KAVcsca8WJX4pIq2c8+9OmTdv5zttvX8aNefwPf/i5eO4D8y+YOQSysIcLF4IACPRlArQgZtz745/8X1pg644NmFkQCxKWjEWo5WtHAhl/8IpFJKDV4A97tl367NNPz/rzE3/6MduP0Vs4b4fywmws1kIDwteSQFZKAllYGrKPPvzwAtreEotskKCiv71LLKDpC9riRYtP+d1jj91PQpjMGi4WOHlRMLapjAXpWBoy/ltbQYgFBCGAUpkP3P/A70i4jYim7IvPPz9j/PjxYqFkTRPb1x0RGI8pkBmCTMsYBo2lLkQEBF9u89133v2PvXv2jBo5fLjQwEVQIFseKO+odhgC2VlnnrWYjPXNT/7tye+RNlXXgJF2heeGIYQEvRAIjVUbgSysbW3aBjtxzqw5Gwx+AcH9qK3ZoHl9lGaszYtJ8DPRok0z2sb9Puess7/cumXr5K5+dgQEMratEwJs8Bl4PlsJZJ2tR1EU8yMP/+qRrOzsevHssKBPGvAgzeCxhH7jb8GCmX4vfXbws8XCLpc7YMCAqk8+/Oi8Z55++nZ+1vlvbV98IJB1dvRwfSQJwKg/kjRRVpcJkAFz5kMPPvi7fz7zrzvZY4vebFVNVVkqOubbNlkZh7LTFu3gG8mPSr+fTI+5LHYVO3DgwNCf3fuzvw8bMuQAOQD43B5PUpcbHuaN1A6NpD5TRlq6638vvHDLux+8fzFtJ5Gdue6GT0IOt7Gl3WEW2+oy7iEtZBJ5AEp//suf7x07ZsxeuuA/XSnLuIeM9k+76cYbXyg9fHgQaV8Yo6RqOtP2Us8EjUnL2IQYJ9FtKs/Ebea+P/PcM3fW1dVkk6djsINFl7Qt7fS53bJSU1OaVq9cddJT/3zqBx6vR3Akrw6eQ8F9bW+utTsHuR0+j8dCLrLK++++d+F11137z5LS0kFWEZWUuy9uZf+A4CYHl3fMstv007iWyzWRQCIs7j/9/LPTq2uqX1yzes3tx889fh3ZUpmsdmETFokjuOGdLlMhr2TWjv7t73/7sd/rpeeTbBN0KO1tterAQn8stNTP/pNUCgMQDjo0nuZy0nTfdffdz8+eM3slv1jw50tA4xvJORYJpigDBEAABHqHABle2x751SO/YuGEtxg4BIGxHdHqbVy3peHzKK2AoV1ibYZuT6JfE0qDJrbbWCvF2jG6jnottGN8Bq5vqyELc8vyQ9qyDK0hC9i4KKQRU0gb5LfoGgCOncBv6qI+oS0Jsh8ztgd1bVhr4/ZQGjJDY2ZoRyaMG79/29Ztk7o6qmtXr54zZPDgErqfbahatC+G5q6thq6ljwEbP9IKCg2E0NodsfFpq+XUNSIBGzvWirLmkMfFGItgTaHBJFyj/sCW5Tfch4DGrZWGx9CQLTx5wcqrrrjybZYH2F4xaFtcbCmG2DYM1pB9SluWITVkHHKD+X/0wQfn5+bk1AbaITRNIfgF18N2koa9pGEf1fI1RHuOei4MrauxNTxj+vStWzZtmtrZ+RBCQ3bECD5g6xjYsuyUETx7bf7m0UcfsrO95pFtyfa4tBoD1jizFjpYs2wwYe1aqM8N/j3zp2fQTy8XFJ9GN33AlmVnZwSujxYBaMiiRRblhk3gtZdeue63v/3tw4qqSLwg06utoTHQlVxBB/+BNTSGCoVc3ZXk5GRvclKyy0QRvvit10VhJzxudxLFLWOFGJep8T0B4UCiazR+N+aYYMFFB77v9Ft+Bx013r7Fi79GAVDpeouZFpRARRwHSyLhUAQvUxRZIoFNpT75yMOMDanJJEe2uig2FZ3Joj90HuuVXsT/slil3Xv3jP7Pv/99G9lF3dvZOFklRcVDLrn0EtbmDHZQWdSGFi1OKO0Ew1WIMWtmeAzJGcOfRH2wkwaSR9Dr89rZPpBCgohtVBLAhCZEqHICWk4CITQ6NG4kE4njWN3silbDmE9HxiQweNt3bJ+yY/v2ydxWmlvUJpbLWh0BVSyPUuAvLSFG22+n1WbVVpGDynXXX/9kTW1tNo2nmH8h+hZQj9JcZdlbZykaQFpcioxqadEa8hYfv8QYgEiYIa2l/ufgseHvuaUUQ4w0fhZp05YtU3/w/R88TbHirmaj9bAf0I7HolVRbENGYWY6fI5ee/W1q//w+OP3+WW/CPhHRyguLWWzhtsIqmKzWf1JDofMzwixISSKhZ95N9kAUnliXeMyW6nvdA0yfcyQHHaEVVfmUSfR4XIQCI8ABLLwOOGqKBHYuW37pPMvuOCXPr/PxFoSkpx4lyj4Q7Lle97WkwMLz+iRI4umTz9u84yZMzeMGT16/+gxY/Y5HHYPees59u7ZO2H//v1jOZbT1m1bp1BwzaH6aiWkMN0l8chi2rZnoT6gI/Gh3aoMYytVbFXS4adtRtauTZ82bcv8E074hoKo7h4/fsIuMqZuqq2tyd2xc+fk1atXz1+5cuU8iqk1goQyFnza7QcvwlzyK6++ct2NN974b/p2a7hDyILfPd///qMbNm6YRVs7kk+R2dstJANuPwsDCkHNycmtnzBu3L65c+euHD1GjMn+Af0HlJEAYi6lYL4UyHfUli1bpq9Zs+b4goKCUSQ4JwmJWF+GWQARMa7CEMbC7Uqo61rNLUODV1NTkxaQIPStVF7QRd+M4KGalJKcrFCgUp++E6hZOFCs7PdJJBzZhVwZ4qAgxoOuvuqqPx04eHA4R5JtRxgzpqdG81sg6ZefXzt61KiDx82YsWHYsKFF6WnpIsYZv1iQ80Parl27Ju3YvmPK/gMFIxsaGtK5co58HCocsZBCCS3ZUknLln8z/8EHHvhjU3PTd9JSRZiVzh7hPAuG4Ntu2ST8Trj8sssfdlIQZBFhV8d8VNn0SxbYSY2tC5wUaqVkxnH6c0+2hoUTJ07ckZSS4nI1NaVxrLl9+/aPo+d+NgnYkw4Sc76HBVadgRByjQC3HfWjo793lhuuB4EOCUAg6xARLogGAU6Vw2+yN11//WMHCg+OoLAQEgd85A/fo+ujdYaWSA6SOWbMmMLLL7n0zYsvveTt2bNmrydbGN6GaHus5194vT7b6tWr5r75+htXv/3uO1eUlZXlt2eYcuw+tm+n1kk2gYVK7yJLnrzg81v/vLlz191+623/vPDii97Pyc3lra22x1L6xVNr16yZ84+nnvr+q6+/fhXZAtlJKtOFMqHZ0UUKkV6AtQFk81VeUZH33nvvsXdZ2AIZ2Tpd/Mabb16pK3JYI3T0wesnByb1knaDvNnkc84999Prrr3uxYULFyzt179/VYhbNhm/K9i/f+Snn3563uuvvXbtchIwSQgxkY9pAImBppNk27mcNKgaeVkeqzAxJkKLylfpghU7L5h4vvExe/bsrcfP+daqqVOmbE3LSHcGBDJTZWVVv3Vr187nzAlWm/CWbXWQNtDxyC9/9eOVq1bN43ln2Iu10xgTc6Ao/LUXnH/+hxdfdPG7c+cev6r/wIGV7TWeItcPXbZs2cI33njj2mXLli5wUnBhUU9gDrS+j54fEvpZE/vyK69cveDkk5fQ35+JDOXOjRkF20295wc/uG/Xnt0ThJCqa0mDm2Jo18jyy2ySSXM+aNCg8isvu/yNy6684g16VlYT71DP/RouxO/3WckrePY777xz+etvvHF1UVHRYPKWJTD0hIg5fZTNXgQxoCgQAAEQiEMC7IZOiznbURl2OiE9B40AmGeeceZXy7/5+oTOdpVTJbFXJWlu+ANb2KmFsskKtssy7LDYhorikHXHhuyoPrXyHiMPsJtuuul/+/buHdNev3gLSKWI88bfnY2Nqb944MHHeDsw4A3YEj9JCBOBk0Mg8M/Tp03fVletB8fs6CinILhnnHb6Yr6PjaHpaytPNGH3JGzd2KPTpOWR8PjEHx//KaUUCssTNbj+QtJg/Ozee//I205cH9kEtdgPBdv1tGND9uuO+mL8nQQyw4asvdhurUJhcN+4PSNJC/uH3/3+PtJGjW+vLvLMtFVVVuX6fWSS1ObgOGCUnaBGzLkQITza2vwtXLDg6w8/+OA82npzhNs3vq62pib7+eee/w4H2w2MW8jnSdhbceBkOimszCHSIo8Mp57gsBdtx8V4dsmGTKGwF8KGjNOUHatcCqB8EQUzrhNcdLvN4GckEIZGt63ka0488cSVX375xWkiU0AnD4rwf9qCkxeI8Q94NHfoscnX0pZuCQLDdhI2LgcBEIhPArwtduL8+avFB+UxBDLDDZ0ikL9WdCiw9djFLlNIhTFnnXHml3qdemTv9k4j7MXQwUOKq2nBDadKCnvRYtQfjsDHnl7XXn316xRVXZRPGoywF5zmpubkG2+48UXuiwg6S8KRsf1m9EmE3iC2ZIOkfL0kvKCd/37u+VvYfi0QE00P6BrESYR7ELGuTBoJq6UfvPfehWzTFA6fUNfQPEj60+OP/yQtLdVlhJIwBJVQYyM2t+jsolH/scZcCAZGiATSiG1YvWrVt9q2mTW7xnmsPtMWaBZtVb4dNL+PCm3B/eQAwnzNVVde+cahwkJ9a72Lx/Kvvz5h9szZnJJLjHtbp4GWeREIA/H9733vqXCqIoHs1lSKQxY8D4yy2hHIjhJOjXqqq2uyqK9vcRsDwY+DBbKA4wgFvA28TJxz9tlfkFf0iHDa2d41BfsLRl10wYUfGnW2x8UQDPk6CGTdIY57QQAE4ooAa8foQ94VHJH+KK+zgKbijDPO+KqrqWnaQiHbpREnnXiiiEtlCIKhFv5oCmSc5oXrnzZ12jY2nu/qwK1YvmL+6NGjD/BCGUrAZJ4c5Zz//s+n/nFXR/VQtPm8iy688GN94RJtPEogY+82zmjATgLvk6aDy+R8kR2Vfay/s5bp1488+jALjsLbMhBotocFMj3Fk9AoTtu2e+dOoRVjrUywdjLcfpK26OSM9Iwm1u6G0o4J4S8gdFx0wQUfUkgG4aXZ1aCqRrvWkGfs+LHjONzJUcGJg3ny34cNHXo4OHNFe32LpED25edfnJ6fm1vN9RvCXJCGTGgqDS70nK4oC6Sk6u4cKz9c1p88aZeJetsPZNyiaYZAFu5Mx3UgAAJxT+DG669/LfCh3KI5aPtByX8fOWJEIcWHOj6wWHVZExMsOKxYvnwubSWxnVO7i1Y0BTLeEnPYHf5XX375am4XhUboUr8ojpnpjttuf1ZwDMpG0KK9oIXHWNzu/clP/9TRpFm2dOnJZMMkttgC4UCE4BisGTHK++XDDz/CmrGOtqc6qtP4O4WnsF528SXvizHh0CftaC+jpSET4VaozqyMTOeiL786VcyXLmj+WKBirR8lmf8n94VTLoXqi7EdR3Zp22jrcFQk5rfB8uUXX7ouKzOrQQiDxzit1LaHH3qow63fSAhkHP6DHG5s91PMscD8EnMreK7yVj6HV+GXtAH9+lWRfd6swHPbpeej7dyjdGxzKThshTHH2nuJ4b9DIAv3ycV1kSQQkYkeyQahrL5P4EBBwcj169fP4J625+1oIs8oWjDU7373u8/OnT9vDS/85EpvuP53CZLFKmyqpDlz5qy74/bbnhbG2eGVFOZlHRfGjnBsLE6GyasupXyDZJhvptAIXeoXBVDVTl5w8lJKgO6kkBMhKzd+y55nx2qdTCmGvv76m4W0fZrDHwrkbHDUZwMbhPvJwHrmjBmb77777ic5PEd3x8RoExnfyw8+9ItfUqyuOu6L4X3aMdGwrjimBk9IBsKdzyTddtttT88/8YQVrJHh/oVVetBFHO6hqqKiP2U3OJN/Td6uIQdGhCYhG8D773/gMXJUOcBauEixvO6G61++7PLL3mYnj/Y4Co9lWZaWLF5yelVleLlaO8si+HoO/1FdXZW3eMniUwK/P4qtCOYa8HC9+667/z79uOO28DY+PbedHoe2baXnzELey6vpBYafe/JIZVGwOz3CvSAQeQIQyCLPFCV2QGDFyhUnlZSVDQ6skkctlvwLmeLajxszdu+NN930Xy4uUosVl2V3OJSLLr7knTGjxxSwcBThxf/YvafOsWBDoSheoHyJvvbCJYQ7iaZNm765f/8B5SIsOd3UnuTR2NCQEcrw3Kinvr4he82qVcJhglzbhKth8Mm/Z0GJhWSKZfWXdjwpw232Udfxwjtz1qzN11x99assrHDIiZ469PAhqjRi+Iiiq6+6+hWOa2cI711pw8aNm2btLdg/SoTNoLh4bcvQhXJNYueJU087lR0oJHPgZaEr9YW650c/+tHjpGWqVAPhItpew4y5YQUHD4zatGnTzAjU2+GAHSw4MHrnrl0TRV0k8Le9gT1bKd6dNHH8hD1XXn3VqySwUioL/SWqu4fhjX3rrbc+M2LY8EMc87DdXADdrQz3g0AXCUAg6yI43NZ1Ajt37Jza3NSU2t6iSwKBEJLI/f+joUOHlsi+riUrPlYLJ0+ZvP3004U34bFiknW9kyHuFFoJCu1BC2XFSSedxPYsks1hD+W+H3a9w4YOK8rLEzY5IQUyQwMpNEDH0AfW1dVm79i1a1xgsTxKGBOBa+n+CePH7z7p5JO/DruBYV5oLLzXXHPty5R0u6k9jV+YxXXqMj24hyQtWLBg6dgJY9n+qssHaZ1MFIpCbHmSV1/IcrhvFNTUf8EF539AW2jthrXoaiN4K3vKlCm7ziKDeNbPEduQRXGoCQrdkb9jx44pXa2rzX0hhTIjWwELfhR3LE3EHQvM1+D7DcnrvPPO+2jY8OFFEWpTSzEqbZsOHjqk9KKLLv4wClrYSDcX5SUgAQhkCTjovdllihrvKNi3fyzHRGrv1Ze3Wih9jnLa6aexR6TQXkT64Ejy8+fNXZGent4kohK1LBIdvuh3uSlGHVOnTt0xaPCgsi4XFHRjRlaGk4KvikWdov+L2OTGP7HoBfqlquQJ2U7wUr5u7969Eyh461DRe943avPPGKwTTzhxRf/+/csj0fZQZUyaNGnnzONmbOL4bCwERvvg/nJdNB8U6ts36ekZzd2pk+JcmbdRMGK9jBAzPDAelOD+wPG0bd2dutq7l7ey+W+XXHrpW1aKv8X9a29Wy7LftHvX7knkWBG1mJRct5fyeVJwY5G2iedkqH8cYDgtLc01b/78FayljDQbcyB7wLnnnvNhQHvZs9rxSHcI5fU5AtH/xOtzyNCh7hCgKOOpnEJGfDC3KYgtSMR2DmmRhg0ZWjR12vStfAlpkSKybdG23SNHjSrIz8urFmln2pfDIla3oaEaO3bcHor4HrEFJyMjo7G9MTG6xVujoXYBDe81imo+irIlkDKFPhJELqMj3daFFl0onjx50va09DSOGxaVIzk1pZlsh8S4H0ujF+nKycmjcvSYURzHq1tHXW1tzsGDhcNE+41IvUElGuNBmt/SYcOGRVwLFNz4GcfN2EgR/8s5sGqoeMtGWyiLwJja2tpjhXbp7FtKq2eG7epoK9K2b+++0e3CpRr4JmYyctTIA90ahA5unjR50k7yTiZzhYjbKkaz2Sg7AQhAIEuAQY6lLlaSwXN1TXWOvuAerUIwtCLk5XQoLz+vio3eo9X+wRRjLDs7u95YPTjqPR/BGiZOcdRdO6+27Scj7n1kH9OtrcrgMskWzRNoeLuouB+c7++oC6jL5OForqurE2PC0cxatjmFkTXT0TPypKakeIePGHkwWuPB5bLmcuKkSTv4e9bs9NSRT3Nt4ICB3dZaVlRW9q+vr8/mmRRKoDR+R/ZqB7No7kWzf/T81JDgIcbLrAvarQ7jR5ermXIPuVIi0JZ2B4zmnpWefT0B+zGGlb186ZkMlakiAs3Ti0inF5ghQ4YcFvP9GG9iEasQBYFAmASittiFWT8uSzACtXW1OU1NzWl6t4/O/2csWNk52XWcOPzYH9/dgzd0yJDSQQMHsRt88Adz1KWA3NxcDi0RsSNMpwQTaR6Pet7ZdosFzvraOqEhCblABbQXLLxmZ2fVRazh7RREWp0Wu6rOqmY62zZjsCkmXnNmZkZDZ+9vez1rgCnSfqqY3SHmN2uqyDFCoi3LAvbi7EqMs3DbSOUr/fr10+0LQ2Yk0+l6PN4kr8fbqewAIdpwzOeGbOuszman4HKso39+fgV5DUd1jjGX/v309F4h3gk7aiL+DgJRIwCBLGpoUXAoAqSNsSmK3KG9CqXTEYmPyTsqagISe17ZHXYf18NbcmT/E7W6gjUmqbQtF8nZIezDAotLVxYY8gQ0k7F1hmiTvmMpvg3WFPLPGRSjK5UM7iPZ9pBlHcPWLVp1k5bRm5QsUjh162AtJG0RWgyHlaNt8TTJQjlGSROoazWjeJDXokrCvxDIjrX962puTmFBMopN4aTqlOFAJPYO6F1bP2pG+7i9qanR2xInjTuHM5HJEUbPtxq1Jz6aNFF2XyUAgayvjmyM9kt4tPXCgtseDop3pueUDiwUEcDW7ke88QdKyn1UIuru1NsdnhxuguOx2ZMC257HWKBYy0EefB0K093pC9/bgxEvWppKnr0qbZd323tE5IoMbA62ux1GF0Siro45a7wdbevoOm5LtNsj6iDNlNGW9jSf3F7jBaOjdnfl78YLns/rs4v7o62C7UojcU/CEoBAlrBD3zsdpwj1XtqKbBFI2lv/Kap3d7dQOuwgaQWSm5zO9J5+Ue6OABW6U91bVUibo2ZmZNYLDsJ4n73yji6zubkpze12R8LW6Jhj4/Z4kjocvEhfICZi99UlZrNJI+FDaV/ZqgdkJTuzLK4x0vHHgrFQTFqyDawVtoH0fbtKMnKkcCWnJguNdLQOevHRyHNaNspvS9rYUqUcoPlOZ1NUtXXkyGKtqq7R7dlwgEAMEYBAFkODkQhNGThgQFlOTo4w2uXI6LpmKugI/FBSUjqUU61Ek8nhkpLB5QFD42BD9mjWGXNl0y4teXyqmZRqRyzcxP+oIAmBMamtrcuurKrKj3YfSg8fHiyElcD8iHZ9kSyfUhbVUeiGRt0V4uhDeBFTyJfdu3ZNIrutqM5vCjWRVBzIlUoBkIXnbKst7cAOPW/X8tkBh25Jq2y3RQnkxVZ9263w4HrJAzuvoaEhM5Jj0rYs0vJayLHoWF6l0aweZYNAuwQgkGFy9CiBzKzMeor95WyvUmPB2Lt397hDhw4Nj2bjSijuFoUpMEJwdGvBiWY7o1m2EbMqv1+ecG4wIrgH18ljwhHO3B63pajw0Ihotoe8/ey7duyaLBbu3ti77GbnBg0adDgvP183GBfOEG2mVUAIKq+sGMjBeLtZ3TFvP1xWNmD/gYLRwn4xxJXG7zLS0hvTUikeXxQPynwgDxw8WMSvCzmugcZQmwdWVVX2j2JTpDKqY++ePWON+R7NulA2CHSGAASyztDCtd0mkEYf/gP69xeLf9uD35xZIKDk21JtXX32ti1bpne7wmMUsH379qnlFeUD4nHhjzSXiRMm7szJzm5sL/8hJd8WVa5Zu2YebStlRbp+ozxnY2Pm+vXrRN7NnoxDFon+qIpqSkpJdo8cPqJYCB6Bf8FlG3Ntf8H+0Xv27JkQiXrbK2PJ0qWnNTQ2pnLmC5Gss51j8qTJ23PzIuv5G1wVx7pjM4VJEybsElyOSpqkC648ww4VFg6nTB5CII/WsXHTplkVVZW5nDEg3uZYtJig3NggAIEsNsYhIVqhkgE5eTWqU6ZM3Uof0CLJn3EGA+DPa5m2dT76+KOLogWmob4h45tvli/0+nwWc5v4BMFbO2JRJUPtaLUjGuUa7W/VD2Fs3r6tGUffFzkxdUniKM2OsXAtXbZs4cEDB9oP8NnNDq1YseLE7bt2TozHxVK8TNDW3Ow5c9a2h0Hk6WTBo6h40KpVq+Z3E1e7t3P8vi8+/fQ8YzhDPWcsfJM3s2/s+LF7IpUzsr0GUdw9dQIJ/SyQirkUYipywm9+7jn1FG1bCtvOaBzvv/feZYJLHGpgo8EDZcYOAQhksTMWfb4l5GUlBBvKs7ctMzOzMdT2GP+dL+KJ+elnn5+zZfNmkW4l0sfadWu/tezrZSeKcnVTtlBrVmer7Z51fWdr69T1xxYqs3Nzamccd9wWwT+ENkUIG4SooqIi99OPPzmfvTM7VX0YF/t8Puvzz//7DpEoPQ4XS05IzoLNmWee8SnH0OOME6H6wYIH9/Htd965ct/evREVbhXK18iolyxdcupXi746lcfMSDzfdgh40lMw3NKZM2ZsDGN4unyJkah99pzZa/vl5Vf7SejiLfBQB/P6/IvPz9m9c9ck/nuk59nWzVumLFq0aGE8CvxdHgDcGDcEIJDFzVD1nYYef/zxq0YMG17UntqJPMLEQlZZWZn35JNP/pBc1CNq/Ex2Sskvv/TSzSRc5IulsXUYjpC22H2EfruavqysrMYTTjzhaxYW2vMQ1EM6mKRnn3/uNsp/GPHtti8+//ysL7/84nROyh3PW0ljxo7bN2vGzE3G9m9bY3qhJaP5vW7duhlvvP76NSR0ROxzmNMUNdTXZ/zpiSfua3K5knQrgKMDMBvzmZLF7x0/caLYSoz2MWjw4JIplMdV1BNC4OZ5Z6Xt1bLy8txnn33mTnJ6sEcykj6F1LA+8cQTD9bU1uRwwvV4nmPRHiuU3zsEIvZB0DvNR63xSKDfgP5Vp5xyymLSmKlHaxD05YvzzFEwSemtt9++7J233740Ev00Fr43Xn/jqjfefPMyrpsawOqxiGt7ItHeni5j7rx5K0eMGH5IeL4KLq298nhhZ81CUXHxoEcfffTXHpc7YuEpDh4oGPHII488ymmceKEMY7GMyTHjyPs5uTk1F1xwwQc8fjLNYT2QSOuAqGwnyYLn35988p5FX311qtAGBbRbXR13stUysx3b3//29x8uXrr0FJ7V9ByFVo3S3zhN1XnnnfcB5UKNqkE/90elvnFKpHPPPfdD8TNxaXsI5wPWxJJQ9tqbb1zz1ltvXUEpnzQj32pXuRj3vfLSS9e/+dZblzJ39nTFAQKxRgACWayNSIK05+prrnkxl1LxCG1MS/gLI3OiLiHx5KQci5kP//Lhx1YuXzGX0fCC3RVEvFhxqprPP/vsrF889IvfuEl7wNoxSlQZyc2xuLI1a8txAhldn3Ha6Yv49ww5lHaCF0wbLWhvvPnGZb///e8foIW124IRaULzf/qTe/+6bv36maw5CrVYd2XMe+MejitG9lIyCR4fDRs6tEQYq+vBYlsd+na9SaKwK3k/+tGP/r5u7dqZrN3qTptpa1B96cX/3fjnv/zlR7T9a24vrBob1fMLz7hx4/ZcfMnF73anznbuPaofZuobbeNqp5yycPEYTuzNwVVCacl4m5fubnY223/+s5/96asvvjidtzwVf/e0iEuXLFnw8C9/+Qh5Ctv5PSMMgb+layzkRoERigSBowh0aXEDRxDoDgFexI+bcdzmM884Y5H45A4Rb0r/BDQJj8u9+/aNvuPOO55f/OWiU9gZoCt182L1zltvX3bHHXf8q4Tij1klVsQcFXGrK0X3mXson6P7wosueocM/KuElkq3rTvq0BQSMugvf3j8j/fdf//9v6fUO8ldhVBcVDTkh/fc8+S77793ISeW78xC2dU6e+K+yVMnb7/22mtfFXUdvWXIc0+jFGKSjdIo7di5c8LNN938ymeffnpmV9vG2/p//+vffvDjn/70z7QllxXIGBBy/NjrkrfsqM7/0DZimeyXI7EOhCVMTp4yZev55533iY7l6Fv4NzIFJ2ZZreRwaf/bbr/9+Q/e/+B8i83Speee6yGbx7PvvPPOfx0qKhrG2jdKbRUO5hYhjLV04dyAa0AABEAgbglsWLd+Fhn3N/DiwVoEWhU4+zWf/D0lvjPpp+7lqFEy8MNP/f3v32MbsM50msI05Pzm179+mALS1nM5dquVy22px6gv+GtLnYOHFFdXVoUVRPKjDz88PzMjgyOec9I+0YcjfQmEpaLfffDuexH1Hr391tueF3XqDFudZJMj2B03bfpWV1Nzh1uM7mZX0jVXX/MG38P3toyBMRZBX7kuir6uXXnFFW9RoNNxnRkT3j5evGjRKSeddNIKjm7Ppud8hhqL4N8JB1A6f/XQw78Opz7SqJpOPvHE5e3x4bL5b2eeceYisr2KqGffxg0bZk6aOGm3Xrc5aC6YVJ5/fFr1CPaiDf3y+9U8/OAvfl1eVtapOFx79+wdc8ettz2XkpzCeVmNeSDmd1umxnyYP3feavY0Dofhc888exsJ695Q42PMuSTSCi5bsnRBOOWtWL58/uhRow+IOUb951MvR3/OjdMY6/6UIP13jz12f20gZmA4dfA1lIkj5c9/+r8fU5gdjgtHnzFUl9lCqrbA50rga+vnVG/DiBEjSpctXRZWf8JtD64DARAAgZgkwFuIvCj/4oEHfysWEVr82xPIhHAWEMqstH1x8kknrfzfC/+9qbSkdBAJZw5edIM76aftGk6LVFx4aCgtJt+dNXPWJi6fT9JI8CKoJJ5ANi0sgYw5LqWFdfiwYUW6YNl68Trq58C4UEDUsp/fe+/jmzdsnO5sdKZSlgWRSDr48Hg8Vg5nsGzp0pO/8+1vv5CWmuYSY0KeicGC+LGEsngRyIxtrr/95a/3JDmShKBkCDSGMBb4Kn7fIkwTj0kTJu753WO/fWDjxg3TiRenq7KSgbuFmJqZKwfPra6uziHBZt5Pf/Tj/xs8YGAZv9CQsEHz20zqrtAvG1wH15WaktK8dPGSsIWNgEDmiZRAxnPilw8//Ajnt2RBVQhkNM9oC7eVQBYsnPE8mT171sbnnn3uO4dLDw9kBvScH7WVSNpaR0lxyaAXX/jvDfPnz1/FXq/cbqOOUPMZAllMLhEJ2aioJwpOSKrodIcEeAtRlVXT3d/73l8XkXv+qjVrjmcPq9DGvmRXJDyw2InfJH39zTfz+Bw3ZmwBf0iPHz9+9zNPP33Y4UjyNlJuSrINH7B3757xK1eunEvR+AdxY3hriE1HAuWLD3JhRNxhS8UFYV7W6WvDqz0CV7FBfptwa+2WuvCUhct++9hj//rlr371K5WSibcTNkq/n8jQYieVHS4b8IfHH//pP59++o45s+esnzZt2tb/e+JPxbm5udXE3FxeXjbo3p/8ZNDatevmbN6yeTrFf7Px9pHYQpLlFr4iOHCncHcaDtdlLOTB33e6oGPdYGxz3XLLLc+vXbNm3kuvvnIV91Xsk7eeTSIZudg+5306+rpz965x9z/4wGOP/faxB6dPn75lwrjxe1PT05ssZhNt22lSZVV1/uZNm6YfoHhwbi97IkpiC5IfHuGgLPrXmmMgnp5wJLj/vvt+d+LJJ31DW5Umazft1oIYGMJUWBzvuOuuf6z45puTvlqy5BS2SaQYIe2OOnNhUW39+g0zbl3/3eeGDx9x6IR581aPGjN6/9P/fLokidI+eX1eR9nhw4OI9wSK7zaXtieHckPYCYXNHogvb3kyKtiDhTVCuKg3CEAg6w3qqFMQMFvFdlrFqhUrf3jNNVe/VlhUNJy3+tpIP+JHeus3sdclf6zyhywfe/fvG83nsXCysEBX0+e9bhTMCxOVIpa+XvyE7oyA1yuz5Z577vnzrp07J7/48svXsCDM7Ns7hGccETXTdU1NTWmLlixeyGd71/PosaaS72MPOsN5gMeEjb2N8Q59f8DxoxPBeqnlnRXAI8Y8LSO96eDBg/eVUhojig22gLbLTcZLR9uXD8OmKjBnxZbbipUr5/EZqkE8oak8IYdx0OUAxxaBI4irUM9RxnPpuzff9O8f/PCHf7FarZ2yyTJeXkJJMy0ZCToh6lBO24rVK1fef+iGG1/eR1kLSFhVaY6FtmXTTfBNNg7JQn0uPFQ4nM9jDRI7hwjxVv80MZ43ITTSHDOJ+Gwt86Ldhsf8cxqxiYqCYoJAJIw5Y6IjaET8Eph3wvzVv/vd7+4nbUoNmdvSC3HID8iW7QwjLAIvXKxV4w/f4JOFA7aVob/zok9aA10JoX8y6w5vtF2iZaSlNXMuxz79qRvonNCQHSMeVdvZk5qW5vrd739/71lnnvklG0GL9Du8wrWjxxDCFQf8JPZ20njYSThjzYQxLjymzJy1PPQ7FiEMo272rNDob6T+0UxUrzc9Ld1tNLtNuzo1VB2ES+hUWV19uiiRtXnkyJGFTz759zvJXm65T5ZJK8ivHSHVrmKO88ETl/mxZjfUyXOfbaKojzzDjQdGJBAPCCCiLBEZn072qrzu2mtf+c1vf3t/N8NchOQWujvHpjZ3/vw1f/zjH3+an5tXw1pUsqVr7wbul2AS2H4UTPjZZw6GFkz8HPgdXScEfuPg7zgwNQljZk4R1t6HTFADemR+dHVe4b6+SQACWd8c17jr1WWXX/7WH373u5/n5uTU8OIhBIDQW4XC1oTPwMql69T0U3doN1a0oA9kfa+CBTc9GsDZ55z72dVXXf0q26a0Ce8Q6Q9iQ5CMuzEZMnRo6VP/+Mftp5162mIhlLG28RhBQlgYYEGL09/w9aTyEFvNfOpjwhrOowVD0qyZ+foUEgIf+Pl9v+7fv19FUE7NFkG80wB5/dbvbivhR3qM220aCfyq4pPN5F2469lnnv3OOWed9YVX9lP8OxIQjmYZvJUaQMaKI3EKtoGTMIp/rO0VWiP9YWnplviGyjcpdA1LMd+55Zb/PPGnJ37Uf0D/yk5zNIpvV1xi6Uc189h2tuxLLrv0vb///e939+vXv5KFVfa05cPQugV9FWUbj7gQ6EnjJ4QuXYzln3WpTVwkyjDs0nhr3OxXZMvpp5629DvfvuU55hKP2SA6yxfXxxcBCGTxNV59trV2h8N/Mxl6P/30v24fPWrUAU47Q2+0/CIrPpOD3vzbCmotAprxARwwDm5hJbw4+c3ZZjWxS/2pp5y69Kl/PHXr6DFj9vkorllAWAsuh9bLIxq1zmiW2gxQjy38QfVGtM4xY8YcfObZZ77DIRyMcAHGotn++qwvo7xZHDDaESt129Wa5RGyfTLLFP6Bks57n/zb3+664aYb/+1yU6yoSBy8rakLPgGZpdPyQiRaIVns+vbghIkT9j5DRul33H77MyLeGskNvM0bQjAIhauVYBr8EnFUr8TuscXkp7nOz9XDv/jFIxSh/scDBg6MlDAW3JZuz7err73m9eefe+4WsgXdw4F02R6unTlmcAk1kCHbxDHXiK/ZTwL/vOPnrqMXjFtH0XMvGh3Q+LYNgByRQUchINAFAhDIugANt0SHgJXy/11x5RVvv/HGG5cvXLDwaxYAgt5kgz+MW7ZoAuv8sVZa+jimt2OyIfPTG/hVV1719n9eeOHG4cOHH3Y6G7OCtzVCCVP6G3k7ti1H3xDWtmA3BLz2ZaDoDIkodfTo0YVPPfXUXb959NcPZWZl1/HiJszGwwip294KKrbSSFbykTA2atSowhdeeOHam2+55b/kTZhMfIIFsu4u+Dz8AYGsvd22KMJrU/TQYUNL/u/Pf77n2WefvWXkiBGF+hzXDfoDONvO82P+HDzxA9vCpBXThIaSQ528+cYbl97/4IOPZeshX7p00Hgca50I1up1qXy+6fwLL/j4TcqeccF553/MQhnPMRbKwpljgUqPEmJZEKMXOzPbJV5x+RXvvvzKy1eNnzB+P3n7irA5Qnvbfou7O++6zAI3Ji4BGPUn7tjHbM9nzZ69ydnQeN4zzzxzx9P/evouMooeyR+cFvGyK5LzGZuZoT40A1eJbZTAB64mDRs+vPRH99zzp7vvvvtJ1hpw5ymiuvjKW3G6bZnx3qyjObIShqdZsVltfnq7F1En9dRDITy62AA+cE3EBiDQvICQI1R7bVdJESg0DAGqvTZR2hte0H/zzdffLPnVL3/5m1VrVs/n0ANcT8CLrYVZcBnB7TDsdlhgoLExpVFsq3POPueTRx595MFJkyeLfIo2u02mcfGKMjiWA+0sHdUmfRs03JdJk91h57ATXB5ZdDOGNkUKgahd28WIDZNRUEpKioe+/0/B/v3LKM3RPa++/tq1FMYiT9jgBS4KHkOeToFft2o4a9k4NRL/ki9gAYON/EdRntibb77pP3feddeT+RTDq7sdsNttPnrmrKLytvD0eR4047pe29Rp03Y0OZ1XPf/c89/9y1//8sPikpIRskxb5WLo2IaRampXgtJ3KdkogWmwEMa2ZUOHDC35wfe//9fbbr/j6YxMPUVUssMh5oPQwrVyVgng5fmg68/Ce/C73mXcCQIgAALxQ2A/Rel/4L77fz9tytQdFETWGVh7WrYn+FPTiCMUkKha/kbGy66JEyfu/emPf/J/+/buHWP0Wvb5RYysNatXf4sSna+lnH6Kw+5QHA6HHDhV+qqwwDZk8ODiyrLyfuEQqyyvyL/xhhteZqN0h92ukTu+UaZifE+ZBnwcQDac8sK95tNPPj2Htnv2Ups1OlWjLvrq59NusyvTp07b4o3QVmBTozPl1Vdevvacs87+kuKPlZMgykJoWGNC3n3aoIEDyy84/7yP33vnnYspxY9IHM8hUBSf3+xxu20UluH3NNZNxJ/TEBmnSt/zKVLw/OL+B37fER/DqP+VF1+6joKDVvK9BiPmZJyc/eHcc875vL6uPqxAqR3VG87flaDYeVs2bZ72s3vvfWLqlKk7KXhxAwvP7fE0AtkG/51CWWj5+fm135ozZwPHLztQUDAynDaEe83BggMjzyTnDopf5hcMaRzopGeGvwqOLER7ONBvuGV2dB334eGHHvrNtKlTtwdeBloxCRUs2GDC8e3GjhlTQGFW/rRrx87xbesi7+HxFJtwY3JSEs8nf+CZ5/5w33i+KWw2Qf05taN24u8gEEkCeAOIJE2UFVECIv8kxSvjQktLSgYtXrT4tLVr187bvmP7tJra2pz6urqs+vr6LN6W4G1AiibeTAtTdVZmVsOE8eN3nrzg5CULKYk5Rd3mIKeS7PeTk5++fcU5B/nrli1bpiz5avEZPtlv54CaLR2gJ4M0FpbMrMyGG2+48YWUtFR3OJ0rKyvP//ijjy6qq63JJTseelEPKDd4kaU2+nx+x2WXX/bGuPHj94VTXkfXcDJr7ssqCo2wcsXKE+n61soxsp+iAJqOfv36Vd7y3e8811F5nfk7B/Zdvnz5iaQ1W7B508ZZh4qLh1Pu0aw6iqhOgaEc3F+r3ebPI+/ZrOzsOoq4Xjl37rzlJ5104rIT5p+wyuawk501h2vQx8PoS2NjY9r7771/Senh0qHC/quVUT5txymK9cQTTvz65IULloXb3i8+//zMTZs2zSIPR9KRtbpLo8DCdlqACy66+OK3OeF2uGVG4jpOKG7ksDxcWjqQx3ANxS3buXPnVMpz2a/R2ZhOTImn10HBZkW0hrS0tKac7Jza9PS0psGDBpdSzLfNc741ZzUFQl2Rk5tbx+1irpwDMhJt5DIo5tkISu10rtPpzBBbwIbmksZHxJCheX7FlVe+PmKk/qxF6qDYYgMoYv4pFFts/g7x3Nfl1NbW5NTSPCMeIhkBPfcueu6rsrOyG8aPH7eLXrJWLVh4yiLanmz3GePsBp989PFFHp8nibw7ZV3pruMSz31mZj0lXv+QNOvFkeoLygGBjghAIOuIEP4ecwRqa2qzy8oPD6woKx9YUVE5gGOMsdt8ZmZW/TCKMN+vf7/ywZSjz2g4x2gSBksRXKBiDkovN4gjyFME9aEUAHZgWVkZZVBwp7BA5khyeIYMGVJM+THL+/cfUJ4apmDby93p9eqbm5qSiePg6pqavPLy8gGuZlcqCwos/GSRHd/AgQMP5+bmVA8aNLiEtmTDSs7Y653qZgNqa2qyqykoLgnqQ+jFZyDz4DlGL0383B/iOTaQNLbdrAa3g0CvEYBA1mvoUXE0CYjUNezFlmBCmJGyx2Abz4mR2/YlEn2KRpnRnMexWLZgGKSHxRyLxVFCm0AABEAABEAABEAABEAABEAABEAABEAABEAABEAABEAABEAABEAABEAABEAABEAABEAABEAABEAABEAABEAABEAABEAABEAABEAABEAABEAABEAABEAABEAABEAABEAABEAABEAABEAABEAABEAABEAABEAABEAABEAABEAABEAABEAABEAABEAABEAABEAABEAABEAABEAABEAABEAABEAABEAABEAABEAABEAABEAABEAABEAABEAABEAABEAABEAABEAABEAABEAABEAABEAABEAABEAABEAABEAABEAABEAABEAABEAABEAABEAABEAABEAABEAABEAABEAABEAABEAABEAABEAABEAABEAABEAABEAABEAABEAABEAABEAABEAABEAABEAABEAABEAABEAABEAABEAABEAABEAABEAABEAABEAABEAABEAABEAABEAABEAABEAABEAABEAABEAABEAABEAABEAABEAABEAABEAABEAABEAABEAABEAABEAABEAABEAABEAABEAABEAABEAABEAABEAABEAABEAABEAABEAABEAABEAABEAABEAABEAABEAABEAABEAABEAABEAABEAABEAABEAABEAABEAABEAABEAABEAABEAABEAABEAABEAABEAABEAABEAABEAABEAABEAABEAABEAABEAABEAABEAABEAABEAABEAABEAABEAABEAABEAABEAABEAABEAABEAABEAABEAABEAABEAABEAABEAABEAABEAABEAABEAABEAABEAABEAABEAABEAABEAABEAABEAABEAABEAABEAABEAABEAABEAABEAABEAABEAABEAABEAABEAABEAABEAABEAABEAABEAABEAABEAABEAABEAABEAABEAABEAABEAABEAABEAABEAABEAABEAABEAABEAABEAABEAABEAABEAABEAABEAABEAABEAABEAABEAABEAABEAABEAABEAABEAABEAABEAABEAABEAABEAABEAABEAABEAABEAABEAABEAABEAABEAABEAABEAABEAABEAABEAABEAABEAABEAABEAABEAABEAABEAABEAABEAABEAABEAABEAABEAABEAABEAABEAABEAABEAABEAABEAABEAABEAABEAABEAABEAABEAABEAABEAABEAABEAABEAABEAABEAABEAABEAABEAABEAABEAABEAABEAABEAABEAABEAABEAABEAABEAABEAABEAABEAABEAABEAABEAABEAABEAABEAABEAABEAABEAABEAABEAABEAABEAABEAABEAABEAABEAABEAABEAABOKEwP8Dj5CXUfJ2rOwAAAAASUVORK5CYII=;" parent="1" vertex="1">
          <mxGeometry x="220" y="436.08" width="102" height="67.84" as="geometry" />
        </mxCell>
        <mxCell id="zNXXohSDAToN1we64lxh-1" value="&lt;h1&gt;TOOL&lt;/h1&gt;&lt;div&gt;&lt;div&gt;프론트 : Android&lt;/div&gt;&lt;div&gt;&lt;br&gt;&lt;/div&gt;&lt;div&gt;백앤드 : node.js, Web RTC, openCV, firebase&lt;br&gt;&lt;/div&gt;&lt;div&gt;&lt;br&gt;&lt;/div&gt;&lt;div&gt;인프라 : EC2, RDS, S3,Nginx,&lt;/div&gt;&lt;div&gt;IDE : Intelij, Android Studio&lt;/div&gt;&lt;div&gt;협업: Git hub&lt;/div&gt;&lt;div&gt;프로젝트 진행 사항/ 회의 기록 : Notion&lt;/div&gt;&lt;/div&gt;" style="text;html=1;strokeColor=none;fillColor=none;spacing=5;spacingTop=-20;whiteSpace=wrap;overflow=hidden;rounded=0;" parent="1" vertex="1">
          <mxGeometry x="30" y="30" width="620" height="170" as="geometry" />
        </mxCell>
        <mxCell id="VRWgpDQhtX4QynFnC1eO-9" value="" style="group;fontColor=#5C5C5C;" vertex="1" connectable="0" parent="1">
          <mxGeometry x="920" y="550" width="100" height="100" as="geometry" />
        </mxCell>
        <mxCell id="VRWgpDQhtX4QynFnC1eO-10" value="" style="shape=image;verticalLabelPosition=bottom;verticalAlign=top;aspect=fixed;imageAspect=0;image=data:image/png,iVBORw0KGgoAAAANSUhEUgAAAOEAAADhCAYAAAA+s9J6AAAkMElEQVR4Xu2dCZhVxZXHuwHZZReCoGyOoIArKkExGh3RkegYBROjGDVBUOMOTkaZJGMERI3iOjoRFRkTjMs40YBRlCWIBmWLQEAWWZRF9k0Q6J7//31Vnfvuu/fduu/d17xu/u/7+qPpV/feqt+tU6fqnFOnSkr0EQEREAEREAEREAEREAEREAEREAEREAEREAEREAEREAEREAEREAEREAEREAEREAEREAEREAEREAEREAEREAEREAEREAEREAEREAEREAEREAEREAEREAEREAEREAEREAEREAEREAEREAEREAEREAEREAEREAEREAEREAEREAEREAEREAEREAEREAEREAEREAEREAEREAEREAEREAEREAEREAEREAEREAEREAEREAEREAEREAEREAEREAEREAEREAEREAEREAEREAEREAEREAEREAEREAEREAEREAEREAEREAEREAEREAEREAEREAEREAEREAEREAEREAEREAEREAEREAEREAEREAEREAEREAEREAEREAEREAEREAEREAEREAEREAEREAEREAEREAEREAEREAEREAEREAEREAEREAEREAEREAEREAEREAEREAEREAEREAERcCcwb968Y/jjfoVKioAIRBGoEVWA32/atKnB2Wef/d7y5cuP+uabb2r3799//Oeff364y7UqIwIikACBRx555Ob777//LgjgIbzdG2+80ffiiy/+3wRurVuIQKUS+PLLL1uiHzspn8qqmFNlOnTosPyTTz45pVu3bkt69er11yFDhjxeWRXUc/5BYOnSpe0HDhz4NN7BNHSmFmLjTgCzuYZDhw4defjhh6+76aabnnK/sohKnn/++RNRnXL7M378+MuKqHrVuirbtm2rP2zYsF/5+Per1o1OqHHUeuyrEL4vvfzAtF5Cj6i823z99dd1rrrqqhdsQyZMmHBe5T394HwSO8qzzz77Y38H4jtAx5IQZukW6K+10Uf/GbaMyV7hs7+DbYNi6VW1XCtSr169PZgODXvxxRcH8Jo777zzUXSE/2jduvWXmzdvbrZ79+56jRo12nLWWWe9g7Jlrvc9UOXwEurCuNSpQYMGO5s2bbqxYcOGO2rXrk1Nn8gHnaDW3r17a+3bt68W2NSlQWv//v2H7Ny581Bw2tq+fftVYQ/itPP555+/tnv37tesWLGibSIVOkhugmn6t9hHe/Toce38+fM7Z2l2Yu86X7TOQsgHPfroo7fbB7KBmCI9cN111z0FYbxq1qxZx/I7GG2+h3/ezLdihb7+gQceuPvee++9h89p167dmpYtW67DqLmtTp06u+2z8fse/F7KH/N76qs9e/bUtWXwO6c1FS8UwlaHQnf66afXxXd1duzY0RACWW/9+vWNPW1i+cD1OAxgQzt16nR/VPvr1q37dVSZg+17Dl6YNSyvau12EkIsahsPGjTot6NHj05bBzZu3HgLGt4ZHa2RbTi0yuaqAOHoo49eZOsJbdOaP5VVbxhWZnzwwQeBj3vyyScHutQDWvsbl3IHWZmi0W6JcoeQHYnp0w4z2lcYZsL+j3XjS5gStEq0EgW62ccff3wCfJ6/d21bUuVgpQvVdBjwGsEl9DNMk7dne57W5MGdAvwOxXT0Cgyyi7Pxo7GrQN0q9m0jNSGnoNkWsegM/8Knvv7665c+88wz1wHAD/kDa+o7J5988sxTTz31Q7g4lnXp0mUhRu+iWiti3TAHVf8BjB8TMa1+LowepqlTITjD27Rps5prSL5crO0acOrJ33ft2sVFPv/WEKwaoyM0w0B0+NixY38MDXuk/77G0BL4uGbNmm3DF4/hPmMwoI3D9P5fY7/Vg/gC8OPg9RL4vQq7xWj0yeurPA50qKbZRpSnnnpqkG0kQtq6d+3adWlQeU7BOEoVKxBqn7B2QkivyaXetChjjTfEf1/X+0HIuR7lwJUxA5EmjH4jjPQK04jFpAkjnfUYWdLWeNBw791yyy1PYoS+DNbFo95///2+EL7jiARhbe1gsOkYhAdroJ7QDNdFozswJRiKh2k3R9GMT67rL1qU77rrrgf8009aYl1aSWstBodbgsoajexym4O2DPruTljrJ/sBgN0uM7AVBZtIIYSAdbM1xaiyCh1157Rp0865+eabf3vhhRdO+eijj3ofd9xxc2EhvRxrrF4nnXTSfIz+d3OaiuiOMd5W3n333Q+fcsopc6g9acIvCgKmEpgiroe2nh5SJ2qknD/33HPPL/HiK6yZdFG43gw8P3Ytq3KZBGBpXlKluVAAYb5PizQwI0jF9AidZCE04+OYYv0E66DWNr6UDceaZry/vP0/rpsHoT25mABBG/4hqL5Y4/4o33p6p7tTp07t5Xo/s2slYzqKe5zueo+DuZyZ+qfx4yBYTBEzGdqIzk5OoTCtPBEarqv/BWLNt+zcc89lCFvJd7/73XdorKC5n24MOklxbcryB03YF/eagr/1D+oE8Ct2h2HkYwjq76644ooXeA+MWp8fyA4DX2DBzP4DBgx44dZbb32U7atfvz6NO04fM3UKKls9zfFOVNwL5bqUcH9C/iXThBBarCYqvSbotlgLTsZU8q9YB3bA+u7MrVu3Hgq/4Q0si6ncpr59+74GS9RPIHzzLrjgggmLFi06Gp3uIXsvBn4jAPxvnB5wJPJYCEs3bNjQCgJ7BKavva688soxPXv2nIF67M+/ecVzB1o9qdUWLlzYDYPPXNea1axZc59rWZWrBgTQSbqgGSnVDQ31Itd0iCTh+qUc09K19ruof2kRRDTNcK4T4WfsgPUfw7bS1p/cGuX3J2I6+CrvDa24jJEjle1vRJv/J6htSUxHc+0eGPTaBNUpzpQ212dXh+vMu0ubjmJ2saOYpqMZnCE8/4m9gv/HHwjeuiiBs99DYP/bCh0FD41sGPYS0YF6cGuJ93tCgYbc638ejDn3VlZnkBBWFunKew4d9/4+xUCIYhLCiukoDSqIpRwGN8JAOJgjI16gIXdcf/31j2GaORVm4PdnzpzZY8aMGb3pqIbb4gL8fTI04OMw02esszDdnIPpZto068YbbxwDMGnTYwhlCZz8SwjynHPOmYApbJUIiau8LqYnVRsC6PyHwuCSNcwHa8J3oSXvo/EFU6T2FFpGhVgI2TRfGCgI6SGwkJ4EA890WA/vgAbtiDVlH2i/X3tHL1oWoWmfLDRwacJCE678+wdpQvatYnLWpzQPDQWLFy/u4EUEofwMVrwd0HAnQiju+8UvfvEraC9OFys+6LSPY/12Eq5tb+JLIylD0Dp9+umn3ceMGTMQWvICXoCp70QacfDD/y7Dz9sQ0HuNdu2FXf2nwagzB38rxTWyCkZSVoEqRQDruO9brQPf3QJuRaIhhY2A/2+0/c4bnoYIkIfx9zIYco73+gV5DV0c0JTtqNWw9uuN+11MDcpIG8zFafFMLZIh5Evgw7kOFtfZ0HS3FQO0JDUh2HTlT77tCjPMKGzNjWxV0IQljOmkUECwfsNm0SpJIwt/91lLXzZxpCWcenLHN7Rfao0GwWsOQboVWnG1FTL/vxDoxwDkKsaXcvoL4U1pYUxHT6Ql1Q1pYUtlEUIu7p0/GICOsO3HQPRt5wsDCkoI86FXUlIlhNAjLCXQdtzLVm6Fjc2nVuQ6Dd/d6F/3Me0hhHcUigUGGXMnBe+XLWCZc3MI6BP5oU7m6qSEkGkVLFdul8qndgebEKI/1GHWAxO8ng+61LVVQQhrYYpYgp9t2PldgnXaTaw4YkMZEpXaHQ8hrAnHe+cFCxacACd9b/zpB3Q6jxs37mqkaBiK/1fEVcJiuq1JkyabsUZsR43KyBsaXyZPnnw2U80xPjOAKoW+Sd60C3uDWLGj4HSGrQ5mB58VtmrJ3R0DxvFz58498e23376AOWYRkMEdNKUtWrRYD+v0xH79+v0eUVQLk3oiZ1Doa9958803L0YMcs8tW7Y0a9u2LTMVlCJzwG64yL5GRNYq2APm9u7de+rxxx8/O8nnB7WDg97KlSvboR9vZFAJg/pr1aq1D/8yy0JhPtBCXN+VU+Oh0V/ZEdw4y1tjTXeh/RsqQqc9BSl0cy8akbF/LqjmXDNiPdqfgdzQmG8XpnXx7sr9e0Fti+usxzp3pr0Po5Di1SK9dKE1IVMn4l3fiQE063u17QGjsXYpkWu7ODD7s8dl61Pe7zAj+2mc58bVhLBVfOp9Hn2KzJ0EPmuhRFaj/y8P+VmBAffvfv+3U13xkpnWoQzTyodgpZzgCsNfDhtf/8KR1OmhKMR1IF7+zxmIjIYvcL2ukOXChDBsOs2pNDrxYcw+gNnBsWw/OI6wbNCuv+WbaLZQQsh6Y+3/X7m8b0ZT5foe+FwYAD8JeC6XNPYndJDnIBDn2XGF0Nw/MoNEGLecA+utcQYSH7i2C3sgd0HQyGKtqa5wON+Hb3AKraMQxnsxgnAj8AH/hAkh20+XDRNCYTTcgFFxM1hxa1LWl4VB7Y18G1UIIQzbwIx38Us8ry0NcszViX7BRDiBbYwz4FoGXNr4BZADFS301Mh21kBtwhkY+sh7/uezr6LP1XblGlcIeV9Ok7GuP9eb4jPbu8ZM7k8c0IxNxbVq6eWY1j6qQ/F7k27hewxLowU1V6nny0CHXs1YUabYh8rfXQzO02xC6MLHX4bZsnN7I/+4Kkkh5DTQDAwZgmWmhxnVxXLlkaC2M7wxbtv8ws+pHwfxbPcJEqI42cdzEULPoFGb09Cg9rMtnAHFZRBa3kyZAkc8BmNjVKBTPfU9Ryj6v9DBnsWoNMt70zj7A6n27VoLI8mEyg7WDoKRtBCaDpzXe0pSCM2gkPGeuebx+3s9HbGG2ZCcdh3e2Z/jNIzai1rP26FN6o/I21Area+L4/bJRwiDUpNQ24WximxIVAEGbAdJPMAtNIe/pF4CXkjalBVAzrT35m56ri3jTk/p5qB2japjob8Pc1HwZZgghCNQTwYitOMakDMBOs05daNxw88vW1Y117YkKYRh2ty4VEKrFNQZMQB/6NoGluMUz//8sNQdQfc1BplUHwzT2kHXMelYULujMnD7DUeUAa/rLk7bncuasyViL0jRSeiYTn24s54NNtOO0Gf7A7URFjfCm0bDudIJFwwTQtdzNyCczJZdMUglsQMkSSFER3rN3yFdtFGQNoEFOFbaDcMmrX+Zgd/5LVqjiREsp+viCiFnhf61YF5rPYdaVuxaQPzoRw7lU0VoUIHPZk7Hjh2XMxEU5/X09cHH1JVZkDEtPS3bvTD9SdtBgeTBjKBh+sCi/KBuFRm3s1UQG5ZXM5II6RN5ZkcJ0uCnjpLL8xPoo2Ra/bj3fe655waMHDnybvh9j4Xvbd4ll1zyqkn7mPVWQbvTDznkkLQ44qi6IOa3IrO5LcsQSXbwwYMHPxN1Pb83RzAMgJC4FI8qk8GVOV+ROX0SY5bNxeWc6WCT+rtRN8vn+4qNtuhAgWcj0ADDVBX2IUxHgU42Bi9vFgWQFi3uqsBnBSNq4KjvTLUdx1+Css2Ru7NokrEGAHUOGkfHfg1T9tT2LTifm+TzcpK+Fu9rx6hRo37OeN777rtvmIsAJlWHsLT9EMCnaSwq4AnQYYEWae+Uz0cfXu0VQIZUFloAM/iGWcKMC6Ec36dypHg/GMl+hunnnXixl8CStB0Wz9fibmtiMik67pN64bneJ6kAbmtaz8efZttAlwF+z1gmGIt2rk2NdV3QdNS4tWLdB8L2elBb7N+YdjIX10e2SmQxzFScyoS+d6mvXmVR6+RYDY8onJZyAmD/ElQe2i2VS5S5Zez3nDtz6smpCkKcOmFt8e+rV69uhvR+90yfPt05mxjvd8MNN4xGZwvMV5pkYyvrXtdccw2nV+XQPIxAqvKfjRs30qiS9vEekOPawDvuuINxxqGfl19+uT+1MwW80LtEMJ1OLYnoarn88stf8VWqFJrxBNd2JVqOVj/fiJAxAnM3BKaoLzA9O/OLAtgCaLIN+VSElsYktEY+deC1SWlC3iup9AkHUhMygzU0yeVBfcKc+xcbebZM5/7nIDBiratRLKwiYZqQf0cbMoIBvHWgRTx2A3O4IE0TYl24wt4DAAJHcWRYuwnlFmHa8G1szj0RVrIpSIfRPCpG0nSmEq4VGbpkn8OIeWpSDABH5VD/or3ERNQUbf2CKsYtWPQD81hpDKyfcw2JgYkH5mR8SktLndfJ3ouxcfsxV8Gi7xha6g+oyyq4g3omCZMDLtKwnJ3tnlivMqyv8j/USMx2xn+9/kE7QkD7/ZutFdPhMwW+P+oBwM7wB3LbUQXWw2uZEMreg9ukmHmtGHYbJKkJk3pzhdaEDFGjjzPLyVth29TyCrrnrhquAYO0bNjfTFxuLLRhmtD7DITSMegk0D1nro/1zLwLM4oFU8yPKSwmMiGtctZhaebs5dw9z7Wh15FJUzKDs70CayvGzb9sMAWVf+O1/BcCwCPVKu2MwCBQB5MQ0hgBDcOZT0bnYwQTXQfUPgzNwvLjKX+5pHa+cL+luZeTjzpuKGA2IeSuCGsIwgyAp4sF1sHrC89bwFxuYOLhyrnViBVExMzf/ZVjpIiJlKEwfQffl3lDebh7nmtHXuffBkTh5t+9IW7MYcO/JZEOwqWNYWUOBiHkwAqtx+PX0jocQ8rYEYN2fXi3s9nrkhJC+y5oF4BmfNlFM5r6OL3qMCE0s7y0e4RpZia9dnpYwoXKGVzN0J6QRpTx2C9uQYIwnQJ1zj1YJRRECFnqpFnuOoBGZabpNOGyxh/r7qAmpGWVmhPa9fyE2xHrdtVdCINC68xAydCu0E9QgH8SO0SCHsjpd9QWKwwAE1133ocJYZB2M7aKQG1o9t3G6k+uhUPPTYe5+PtMeR9knqYvkMd+YVf0aXCy14F/cBMFsE+fPlPhyH+auWSGDx9+O1wa9si0CvcDjT8UOFQwFa3DgzVvu+22EXCULsVCmWkh9CkAAU4vmenAf2vOahiAke2Ru3fvdooYSqLadJjjOIVBDGM0a7WM206cOLEPjk5okc/zYHTa6L+exkhGPAXdFwbJW+No4HzqlrrWngTENR3XfBwtg364hjNnSmR8T4MNs6hx2hm0Q8K/dYlhb9CeFefI592IHG5QlTShq4WRGMzhrBnvKGhKFoQtwJldHlcTWut43NcSNkV03Ubk4qz31ynIIGn7f745g4LaH6gJmccD2m0LRs4RZ5555rSwAyk5jWQCYEw7mc6BpzRN5RYn/g63Q3uYox+G8/UTCCrT6ad9sC7hQY0VH2jW1P8ryzcTBGPPnj1FG78at/N6y+Moc6a1zPhcdNFFTpuOg+J64zjr6fqAhltl1nyxmoKBPJX3yP/hceWxbuQrvG/fvtC0I4ixvdIIXcYj0J9nmyVVPo9Puzb0kNARI0bcwZIMJ3vwwQdTv/s/9Bnyb5h2nsoY0/fee+/M0047jSkUS+NGyDNdPqYfc5YsWXJ0Yq2LeaPqKoSYurUMQrF9+/acjy+Pwwr+5NSyBEucfnF2QPAaThGNNkxrgjEuRb5hbA4IOxMlNHkX/aPZwtawpFqepLIIFUJk1uKBmSVwlo5HZDnD2QKds/T50d2ADF2XMnMbPjWwiKVJO/bnvPPOm/Dqq69mNRLEvqnjBQwiwLFlPJWqqD779+8PHLEZ9O5a0bCTgSEUTvlUg+wCc+bMOdk14RNCGysyldEVFWdTLtuIpUsTb1sZSOAqhBAWnmqV8Yla5yJwe1KWbV6lXIYlrRED3yePRmP2bDhJHwhLgEMjC783QlrO/0OjLWJYm2snseXoa2RquYLtXM5SoSCfqG1TEjvk47Kw5c0RaGE+NKfbBrkYbNuinNEwVFxty/r/Zc4dbn7l/jv8vpLfm8RhafXy5mG193Bd0wadVAyXlnNqDVpSg+rv+nxoYUYMhfowza5/p/eQUyH6blgBvMSL4CsJjCrAS+T8OeWeQMN+QEMOXswIxpfm8lDE830QJ01GLs/wX0Nzt9kpHgqbo2Lc3SFJ1C0sJwzfC9dYdBVFPYc5fbJ1JBoiKKgUeAoMO2hYKoxs9+F3QYaLsAGOgdp8rqlfRjPYwY0Wr3gvTEHomqfWnxbDW3dEaC12Me6gbjXC8szY+xVi90caDDoqKVgMZQt7Af6wNe5X49kTUZ3D+7055akVOvswdIDn41yba1labemgzha25G8z83Ni5H8eGmJAIUdBCkNQtrGgd8AtQjStZ1vHxAmc9j4D06415trITHxGa2a8jiBtFtQO9jW0+V0KSEhf4/knx0S9bwp9nJA4ajsmHAvbRmUSS0W239aZkTiJxrpyvcejrs3G3lBNgSnpg4yysYCoDTGiXkE/FNdbzK7GY9BsuFqANqpF7WkicHh0VV7Wr6gXRehRo7rL91GpPKLqEfR9nDAufx2zpauIcoJ778Vtbd61G95d9zAe1KTZEnUxtT3cT/NceIaVcU0Gxt36+TwnaDrNdwTh74x/nAUxTh4cpz7CGEMbnhbVQDp+eSoTbwxw01jeu55k9IUJact4Np5xFjUipqQzOLV1qlyOhfz+I+bYZGfiFI9TMXZY1psjKqeEzKkCLViRodxwKEt0xPtHWwJfNrUwtMQiZvjmD4Pe8bPE+06itDO/p2EjTNMw9yg6XKCFGoJIK2fFQMwoEnNokNNbYJ4Z5hjlGpJHVkf1JXZ6POM35rlOzwhL38kpJUPzuH2Jmo+zGfvDmQSnxmD6EQaM0JQkYHdOVJ05Xca9ptEt41Rh10LUZlyEmxwfroG2z0E7puJHvT/QHLdzukmDT9DzzVqyHFPEhVHbo1zrX9XKcZ3HBE+YQTQuVN05xaKm4w87ecx0JImlIqHm4TSQ61H7Q8E2AQY5NR/X1kP7mnKbXE43yHIR91iynpwWk6HLmjyxOkAoZjMcjTGlUaMBv2dKfSyqmdwnTQgxcn8BQWMqc8aUdvNW0Bh3fgSB38zvrdEnsUboRiJQlQkYS2kZkzoxWWw2QWRwtl0fMrSN+WeCynONGMSE1i+o9ZTwFjzXY1V+Kar7wUeAG32hCV83+/4C1y2Yc0/xCg63J5kQtZRQQcut5U6LKDcE/YwIOr4BGjV1RJs+IiACIGCEi7kYz8cCu1+YNqSl1AKje4OC5y3LKW2UQ95aR7F2HAmh/YlegAiIgCFgUpeXZ9OG8JNssht0KUxm76B/E+ln3PzrApaGHNeyLvdTGRGo8gQgZF/Q8EInPc+q8GtEmHrnYio5yBdbF+pjQdnrs0HhTg26Bw5ExEqVf1lqQPUkYKya5dxhQZMtWhkoYBREezgMQ4Ssb8gcPZymGVF2cDZanJIimmJ69SSqVolADgR4uCc1ILUhHaph60P+3eaZsU575itlBA6c+ZPsdbSGRllCmYCKJzjlUF1dIgLVkwDP7uZ6z1g6szrxGfoGbXeTjUGFAL4Po83Z0KY/wpT2SwjhPpt5zU+L01CuCe2pT4U+Jad6vi21qloSML5ABtV2i/IdhmlKCOAqCOLVELRG2SDRokohNL5FnhXAgyP1EQER4LYXGmeYdS1IEPG3nUxpyJ33PPjFK4zWIW//xlC2sNyj1IQ2G7TdGlOIfB96oyJQJQlAwJ5hUidW3iQFqjDUwKq5we+8h1AOZzAyp7Io/0OExC1gUikeyw2BXmaEsZUfBjRvJxtPijK/pvDy+KoqCU2VFoGkCWCtR22YCkML2opD/6JXy0Ewm6FoGR37/DsPHoXb488odxf+ljL0mI20gXlQWN5qUAaYJ90e3U8EqhwB67znvjImwcm2RsQ0dL9/jcjcIwh5owsiw8ATpu2Y/9SWh1BeU+WgqcIikDQBo5HKrMYzGxudtj4xORQE6Xq6IYIEMWjXONMiQOtOZnlMb3cz3aIc+km/Vd2vyhEwSYXKuEeMPkSs9yJ3VNNA43fgIypnG/yLV2Nq+rDd2hS2Kx9rzBFWcHlasKanVa7bqMJJEzC7m8s4RWTEjMmsHaoReZYfNwzzB2WXW4GyOy0QBleRcyRMwLgepe/RXkutGOX8T7rdup8IFBUBOzW1G3O5rovKaMYIGp556J2OMlyNTn38O5haMWpHBYXRngjF+zCXTJK7n+2u96DTi4rqBagyIkAC1plvdl6koLgef+VfF8L6yjTqr0PAHqc7A8KQOlAm7ENhoSY1vkXGufbLVxi9eWnMUct60SJQ/AQ4JUTg9ftMK8jpqd0K5ReyOP83Zxw6N95aUbH23AsBHspTYp0vNgXN0VgVU2qTrS3ubVReBA4cAVhKmTXZyVIaVQ7T0vvjtsS/p5EamYHlLutGvwAy/Z5rCvi49VR5ESgogaCMyP5QtjABRLmdWFP+HdbPlCDTkU+NaPJMVtSbOS75H0bW0CjkPUyS61QEBPyRh4zQGGSfxcNrTPLXE/xTVgj8SG+dmGYQgps1zrWgEHVzEciXAJ35dksT1lVTaUThoTLMTROlAcO+t8HcTJXHtR/XbjQCYfpZxnyhDHHz5rSBoJXSx2g2E2doZ55fQCEPSgWPv99FBhRw+iSDkhRT8FGnPtKW+faWg+P60OOhCt18Ot/h3xvF8wtx1NQSnIk4hzvon3jiidtnzZrVNc7zodk2QpiZi4ZHtdVcvHhxW17PcxHxt6sWLVp0DM5KHM0YVZwKPJJJfqEJt7MMd//jaLczXnnllf44aajHihUrDvc+m8e11a1bF4f47K6H04kO83/PshD02ZdddtnvunTpspCn/eB8u5/iNNnzMBB8hMHlnRo1apTxKLEtW7YwVK+8VatW64YMGfJr1OGbOO1UWRFInAC0SW0aaqi1GEPK3fVMIkW3Bg8czVUz8jr6Jm3axaADSbg52J+CA1qtntmrmNKOPFPDZgbgNJUGHebOgVbtgXp+zyYqzlZP+iupPekDZeJjCPV8lteeyMS7U5W94QHThF5i7NzolD+bNGnSeUzvznMQcD7cW0ynz1A2aJaBEJDa3GGxatWqtvw9iji1E8+Qg4adjfv22bp1a4sBAwaMGTt27LX493mcQvwrew+UnYNnTlmzZk1rnNnX3/6dG415SvH69esbQ2vt7dy58986dOiwpEmTJlBqWxq/9dZbfaNOjLXBB2hLR5StqDYHgMGDBz8d1Q59LwKVSoBp36EtboXxYyk1iF3HMfyN+WywthtOZz2NMdzuhGnln9DJl7poTAYC4OddCpYtzzUj7jcoLHDc5b5xy8DAxAzkT2PgOaxS4ephRUugKDShnw5zkn744Yc9x40b9+OVK1ceASGZhDXXeGi2tfPnzz+Gmo3XMOsbz6+bPn366aNGjRoalzIEYj3OXt+NNeSRca91LY9p9RScDf8apqGfQINuwtntK0wyZNdbqFw1J1CUQuhlznXjzJkzT8Ux2pdzetqtW7dPO3bsSO1X0rBhQxxJvqMBDS+YHjZdt25d66+++qoVzmhvtXbt2m9RS7FMmzZtVu7ataseBDjwtKF83zGns9Cyf+Q0+rDDDluPtehRL7300pXcRQLD0+x876/rqzeBohdCP34eOfXFF1+0mTFjxhm0am7fvr1RixYtNkDDLG/evPkmlE+dJ84kVPXr19/VtGnTTTzocu/evTUhxEfi2iOgaevw7/iei7RSCOihuF/vhx566B6s/7Ke5EOLJq79CgPBMgjem1i7vol154Lq3U3UukISqHJCGAQD66vm0H4tKVzQhC2pGZcvX94Ra8zm1Ib16tX7mlNBTD33QDPuhPbkbn2ma2yEMi1Wr17dftmyZf9kNOf2xo0bb6VGgythDdwnn9F9Am26CgK4rXbt2nvosmjWrNm2Qr4Y3fvgIVAthND1dfEMPgheE/x4z/0rZVJiCOouChf+3cMf13uqnAiIgAiIgAiIgAiIgAiIgAiIgAiIgAiIgAiIgAiIgAiIgAiIgAiIgAiIgAiIgAiIgAiIgAiIgAiIgAiIgAiIgAiIgAiIgAiIgAiIgAiIgAiIgAiIgAiIgAiIgAiIgAiIgAiIgAiIgAiIgAiIgAiIgAiIgAiIgAiIgAiIgAiIgAiIgAiIgAiIgAiIgAiIgAiIgAiIgAiIgAiIgAiIgAiIgAiIgAiIgAiIgAiIgAiIgAiIgAiIgAiIgAiIgAiIgAiIgAiIgAiIgAiIgAiIgAiIgAiIgAiIgAiIgAiIgAiIgAiIgAiIgAiIgAiIgAiIgAiIgAiIgAiIgAiIgAiIgAiIgAiIgAiIgAiIgAiIgAiIgAiIgAiIgAiIgAiIgAiIgAiIgAiIgAiIgAiIgAiIgAiIgAiIgAiIgAiIgAiIgAiIgAiIgAiIgAiIgAiIgAiIgAiIgAiIgAiIgAiIgAiIgAiIgAiIgAiIgAiIgAiIgAiIgAiIgAiIgAiIgAiIgAiIgAiIgAiIgAhULQL/D2EaJRhSqQjCAAAAAElFTkSuQmCC;fillColor=#21C0A5;strokeColor=#006658;fontColor=#5C5C5C;" vertex="1" parent="VRWgpDQhtX4QynFnC1eO-9">
          <mxGeometry width="100" height="100" as="geometry" />
        </mxCell>
        <mxCell id="VRWgpDQhtX4QynFnC1eO-11" value="&lt;div&gt;Img 분석&lt;/div&gt;openCV" style="text;html=1;strokeColor=none;fillColor=none;align=center;verticalAlign=middle;whiteSpace=wrap;rounded=0;fontColor=#5C5C5C;fontStyle=1" vertex="1" parent="VRWgpDQhtX4QynFnC1eO-9">
          <mxGeometry x="20" y="70" width="60" height="30" as="geometry" />
        </mxCell>
        <mxCell id="VRWgpDQhtX4QynFnC1eO-13" value="" style="shape=image;verticalLabelPosition=bottom;labelBackgroundColor=default;verticalAlign=top;aspect=fixed;imageAspect=0;image=data:image/png,iVBORw0KGgoAAAANSUhEUgAAAMgAAADICAYAAACtWK6eAAAvfElEQVR4Xu19CZgV1ZV/vddNIyDQKCquII1Gg9IoGmFGRUTFxP+IUSfLjGLcoxnRQJzRiSsuGY1LlNFo3AKOGRONA2aMAoq2uOC4ACougQa6VRZZuhvohV7/v9/l3vK+6qr3qupVvX6vXtX39dfdVfeee+4599yz3HvPNYz4iSkQUyCmQEyBmAIxBWIKxBQImAKJgOEVHLjW5rr+xuZ3T+zaUbdnYtd9V5btdeyrBdeJGOGYAmFQoLW9PdHx3jW/75pb2dX5bEUXfje2f3jnrWG0FcMsTAoUtQZp/ex300s/vuOuRMc2k3tdJf2N9uNmTYQmWViYLI2xDpICySCBFRIsaI+Sjs1LjteFg/jz/+SnD1/L74XUnxjXcChQtAJCWejVXD3SjqzJTW+dZKxfeFo4JI+hFhIFildA2rb1T7Q297FjltAiK5/8F2iR0kJiZoxr8BQoXgHZuvzwRNPafZxIWrJh3smxFgl+wBUaxOIVkLamAVb/w8o8aJHLYl+k0IZ0sPgWr4BsXzMiEymhRSbFWiQTlaL9vWgFJNlav7sb1kKLTI19ETeUimaZohQQLhAaWz460g1LEdGa2FXz5/PclI3LRI8CRSkgYGOypOHDI9ywk35K6ef/eU2sRdxQK3plilVAuoyWda5MLLI8ue3zEcbKx6+IHvvjHmWiQHEKSGPtviBMWSbi6N+TXz57PjY2DvRSJy5b+BQoTgFpWTvMK+tKNi893Kh55kKv9eLyhU2BohSQru1fVfhhW8mqJy+NfRE/lCvcOkUpIJ3rXzvVD8vgixwc+yJ+KFe4dYpOQKgBsElxlF+WQYtcHmsRv9QrvHpFJyBkUUnjBjrpvh5GtJKf3HOjr8pxpYKjQFEKSFfb9r7ZcCr5t4enIqI1KBsYcd3CoEDxbedurB2Kxb+s+o36A0qW33EbWHy5Xza3fjn/9OSWpcexfuduo98s2++UOX5hxfXCo0BWAyU8tMKD3LXpXTEos30Sa575CbTIdWV9Bm3xCqt1wxsn9Vr8s6ehyfpwpb5kl70vx7vJOOb7sldYcflwKVB0JlZJY03GXbxuSI6B3UdqETfFzTJ08Evev/Zho+mLPom2OqiPdgN/98W738XOvydS5qRw0QlIonXLnkFRNvnViz9sbVg13As8bHycAke/Wx28OzDeFOmFkrkpW1QCghk6iUXCYYGRtmXdoGTNsxe4hQeTrLxk9WPThdawPniHb/8q8nTFT95QoKgEBFRPGO0b9guS+oho/dx1RKvmmYuwZeXbTu3j28Fda+f/MEj8YljZUaC4BKSxdj+sgQQqIPBF+iZXPDI9ExvEAuXnD/zSVnuoytAi2Fp/XeyLZKJm7r4Xl4Bwk2LLusBNGLkukn77/MrHr0Tb5ZlYC19kKLazXJmpXPw9NxQoKgGB/zE0DLJCi/RHROtWcVLR5hG+x6onr0irPTQtgrL/ksut9fTNwqBLFGAWFWESbQ2Dw2JasvrxnxoNy4+2hQ/fQ2gGlw/KDsvF1nqacliw/HHyy5kP4vc5+L+XSxSLpljRLBRydi9Zep2jgxwEx5Mf3UUtMqmstLRLwRO+xwtjrnGlPTQtAn+Fx3zvByybkFf22EJD7VGy+vqHk9vf+b7RudUoSQ64tLP51R+jzclhtZk91rmHUEwapKSr/oO/D43EDNMy2VzD8tRkECsfn4qFQNfHe038mr7YI6yt9WKx8ss7H0xuXSCEQzz4jf+/Z2xefFJoNCpAwMUkIAbCqIeEwiO5rtG+o8Po+Oyh6cqml5Gra/y2CS3CJNqBankhHKuvfwrCcLYdXsmONYf6xTeK9YpHQBprDwyFgZZFv97r5v8Ys/AE0dZO7bGH73YD1iIUDvgbd0E4fuCEU6Jx+fG+8Y1gxeIRkHUv/7/A+acJR3vbzgBWR1M9r0/4BVfEkejhn7JtU0a0yrOFIzXHf5dsfip9CLmlenScbvUbageqvrNlYpj1kUkxsD1YO212e9+5oxUHsmr/empHr11n99q8dEy2feK+ra4Vj1wNOL/0C4sDXmoOW7NKh5tsXTWso23brnjX4Le9KNUrCg3CCFbbttUHBcY4i3Ao7aHgU0iMt/94hqfIlRNyaAsLkVf59UXoD1E4MmoOvf2m2nB8tcAYkDtARSEgIGcym3PoKexw0BzCvKJg4Omq7zK68PeOxmBuuMO2+L5+jvkK4fj66WkQjqtcD6kuCOSOj8a6Lh/xgsUhIG3beMTWXJvwzVMb4bBqDyEgmqD4bstSsWT1U5d72Vovzap7SzY8frsnHBKwuls3DvNUJ8KFi0NAmmorkvXVB2fFxzSaw6o9VDtBahFEw3Zzu7Xe1Bx1f7kc6xveVsehQRJtX+/vtG0mKxoWYOXiEJDmDftmuiwnLe8chCOd9jCFBOZWUA98EUbHBqSDJzQHzap1v7kTwuE9CEMN0r6FWV/iS0xBhKIQkK4ddf7XIjJoDiftYQpIS6exY0swQgJfpHemPVoQjp/DrGJCCd9PsmXFtw3c4egbQIQqFoWA+D6HnkY43GgPo7NTDJWu5mCcdcLCve63O0W0kPjhNAjHDGgOT4m5u43nzq0DjKbaQM7uF7qsFIWA4Bz6EM+McqE50moPKRxCQILVIrsgojXD2h8Ix3d7rb3haQiH7c29nvoPP8Ro37abpzoRLRx5ARGrwl+/eaIn/mUQjozaQxMO09QKUIskvvzLj+CLmBsgpXD8AcLBBb5AHuzJitdCisUHYcYQ16PGg3Do6x4mfBvhMLVIQOsinZs+ORAHtH5FuBCOU6A5/gjhKHfdR6eC1Bz8EYA3Do0jWcXgpO/cNuHucWlWWYGpdQ/lcziOvwAiWkp7NX/60vepOUq+vv8eCEfgDnWi+bNx6EfRR7K8hwHdDbX8KbV1eaUrZFwIh25addMeDppDb3unL5Iweu/mz2k3N0RiIbJv+bbBibU3zIZwBHNKUmkOiXCy6f2xHa4IF+1CkfdBjLam7E2PNGNAaA8XwqFA+I1o6cJRVl5uJCpwgjck4TC727Yte4e/wOUn8gJSsn7haWl5RM2RjfbwIBymL+JxXcRBOIIZehbNYQLl+9a6YHdAB4NxTqFEWkBEJsX6D44Ni6Km7+GxAS9aRBeOEqxuSM3hsUWH4k7CoYq3rC36tZBICwj5nGht7mc7PFxqDtZ19D08ag/TzHK5LmIVjtLD4U6pM+TZikgm4QD8ZPO7RX8+PfoC0rTW+yKhi8HnV3u49UW6aY6DjsipcIjJpfmzo4s9Z1a0BQTb3LFJsXe38e7C51B1gtYebrSIneYoKat3IbYuirjQHCaUduGD+Au5uUClEIpEW0C2Lj8qG+FwYiDDtUE8dr5IPmgO1bdk+yb/mzyDIFAewIi0gCQ3vHVyCo09aI60vkdAjLPu0cobzaH617Fld+zqtffhAqJBvoOJrIBwmwQ2Ke5jMsCjcDhqD3laMCjGdjbgRgZkRMknzaH1LWFsXX5MUH0tRDiRFRAwg5flVAim+BCOsHyP7iZfp9GxbafJJjKiMJQLh7xHfA6bEVzsieSivNWEl+Xs7Uc49HGitpTwXbaRK6cZtLMOB6oQSsg34RD4Fvn59OhqkMbaA3BZzjcmlgf9brudnRsNfa57ZGq6ZUdSZELJJ82hcOamxWLe1RtdAWlZuz8urGE2E99PLrQHhYNP2bdHBmdW+e6xTcV2cVy5aHf1RlZA4H8c6Me8yqX2UMIxcNxII7lXczDDWj/TEQBEhHqHGNDGAYAqSBCRFZDSuiVZJT8ztceOzlB8jxTh2NtbZp6cjrTOrf1w/Nb79Q05RTK8xiIpIDxm6+cuEFvtwaOyAfse3YQjh/urPA8laqTmDa5vx/IMP88rRDWK1YVNir79jxTfI6BVczUOQhEOL9tHfAxI5C8N9GZgHyj0WJVIahBSU9zz5+Fx9D08wMhU1HTIDz7ASNKsCkJzhCwcok+tG2MfJBNzC+o7t0d0+ru5NazIlS4c/Q5DRp1CEQ4wPrHt7YnFuqs3mhpk87ueDkmFHbkqZOEQ2rh1Fa+OiOZYyTDzR7LTyS1LfUWwUiJXAfseZTCrQtEczKXLx/o7SJXf1d4HoV73qZOCbLuHYUVSQLBJcS+3dHWMXLkFkKEctUdowsG2lQ9i/R0Q/gpMsvGtSQGDLAhwkRMQcQ59+1fDvVI/jMgVhaNk7z2D0xx6p3KhOfT2sCerGLecRE5AhK3cvsFVWDLMyJUSjgHjsB0sCIdc1xY51BxKRnhnSDH6IdETkMba/bFJ0ZWAKOYH7XuYmuMIoBG0cORacygitW8hTYvu+G30BGTnJsWMqTjD8j10zRHKmY4c+RzdTNT2un1xurDoEslFT0Damvp72aQYpPaIpOaQkoJQ79BivDMkeltNtq/JeN2zs/bwfxOUWOvo19fY6XPUe40R2JfXV8l7SnMozHbeGRJKCqVgiBUOlMhpkJLtq7xf1skdu1mse5jCMR5XakTF57AZbzh++3fhDMP8hRopDSJCvK997+/Tkdv2rLm43Maf9lDCMWgS5LKANEdrY7uxua3cqG/aRZDra+xqt3v2HNAoXpf3bTEG79p0KK9/KystlZeI5O/ADgqzSEUluM29dM63GnDZpWOqmm4CAu0hzoT7eHTNEYpD7gOndFU62gYbb1T3M9bV9zfWbCoXRbc0uvO7d+vX3FTW/8Avhg4b9lp5efnKysrKJ/YYPHhzwCjmHbhoCUhz3a695lRsc6KyU6YSP+ZVoQgHNUV1wxBjWe0Q4+Ov9jRacSNdAA/VyqZjxo79XwhM1dFjxjwTAMy8BBEtAdm87PBe8yd8aEdpO+EwfGoPtflwwPeODO4ceQjb1qs+G2p8unYPY9XGQaEOviFDhnx8/AknzIBWeRbmlz91HCqG/oFHS0C+nP/dXot+9Fe3AsJMIl61hykc448ySgZt8U95vWbAwvHp2sHG3A8OcW0+BdMJw4CgfDj5jDMuGVFR8U5QMHsaTrSiWNvtb2a1C+tSe0RNOGhOUWs89faonAsHB/L69etHzZo16+WXX3nl6qicH4mMBiFDkm+c/2LJuhdOsc46Qfge1By79O40ysZ+Jy81x7r6XY1Zb4zuEcGwm+WhTZZBm1wIbfJ+T2uBbNqPkgZhJsVuyQWC0B7KrOp95OF5KRw0qR545Tt5IxxSm1RSm7z7/vtnZTNAe7pulDQIQ7ytCPGmCH222iO03FUBcZ4m1QvLvK+NBtS8GzA7Jp166rUnTZx4r5vC+VYmUhoEl+U4CodJeA++Ryi5qwJ0yCkcC5bvzM+dx0/veS+99Gv4JdPyGEdH1KIjIA3LD0+3SdG811ysmmd+8j09j9IcAa1rZCZIdiVKICR3QkiuzA5M7mtHR0A2vjNeJ5/TuoebyFW+Cwd9jgLQHNbRTCG5ZWV19ZjcD3P/LUZGQNxsUnRz/XK+CwejVU8sOiKoFXH/I8dfzf4PP/TQPAgJbiQtjCcyAtK6owHJpnY+frVHISR24wJggT+7z50z55FCWSeJhIBwk2Kv5uqR6QZOJu1RCLmr6HeEvW0kF8KHBcUxr1dVXZWLtrJtIxICgqOguyAX767ZaA/WDTU9T5acomn19krmTYjGU1VVdQNMre63EOdZ96IhIE21wxNNax3zx/KiTKeHmiP03FUBML3qs2F5tRCYbZdampsHvlZVdWO2cMKuHw0Bad6wPxcInXyPTNcXBJq7KsB1DsV8ao8PavYOeyzkHP7nn356MrTId3LesIcGI3GiEKlGxzn1eaf26L4DW/kcFI7AcleFIBzcgJiNY44zG8b48eONwbuHcwfOps2bDZhLxjuLF3sYdmbR3tAiv8R/k/1UzkWdgtcgIhry9cspBNYzlaTTHoEKR0jc4mGnL+sG+IL+rUMPNU6fPDk04SBSFDy2wbb8PNAik/J5baTgBQRMScBBH+Alz1XgWQ8DvhdQH2g8Ceh3tXzy6acbvUoCOUGYduyzDRyW8iMfrNN76dKl5/qtHHa9SJhYcND3VYRKzXPlYFqZ6Xm2hk3frODTvOIxWb+Pbla9snChsXLFCr+gbOuNOOggY+KJJ4pvg8rLfcOGeXYuLIHpOI3Y4RtISBULX0DatvXtaKrv1g873yNwzUGmhOB3KF7TvPKrPazjhcJRXV0d+DBSApIl4N2WLVt2JmDk3dn2wjexmmpH2GkPq++hkiz0CyNfbpajw6k6zatieWrWrDkuH/ta8AKS/GreGVbCWlfNCyUDibUfKjVPPg6coHGCgKRsNg0avl94BS8guCwndZq1nPcoVOGg/+E2Z5Vf5udTPWw/GZ6P+7MK2gfhhS5db5wvLstRzrnue3yTgeSQvE7PYzdQ6X8E+Vx66aVBggsDVr/ampojAfi9MID7hVnoGoSX5Qy1W/colNxVToxzSgXql9EFUC+xZs2a4/MNz8IWENxXgTWQvoqoKoVoSu6qsvpgaK5Hq3JwiQ3TgxbbU19fn3cXhRa0iWVsXX5E56ZPxBoIk8DxSdUcASd2o2Doi4IhX5wZpICodZDSsjJjypQpOVlA9Ip/fUPDMK91wi5f2ALS1jRAmFfCMe/6RjiY9bAsYOEQUiiTmitBUb9D4JLKuh4UaH0dBLa+UTFcuG759uSdRZN3CHnimLwsh2HdUFOCWk2qAtIcnujZw4XbW1tNc7mHUTGbL2gNkmyt36sT2qNZnvcYEFa+XKtAhKg5whoYJ518ssGtIXwOGNotv15YzXqF6y7ljFeoWZQvWAHhMVvjjfPHqsNQA8eNNJJBJ5O2mlJWHyQLwueiavWqVaYpRZMqTLOqrr4+iC51BgEkSBgFbWI1fvLu2JZmw6DmSO7dKxi65NO9gFn2CMkRjLaO8Pf/sY3XX3stS2wNAwGE7VkDCRhAwWoQ0KGrY+v2XUzNEcTc4+SE94BJxSvPsn2wOm3MvO8+A3d3ZLXbNh0e1BwUDrYVwBMEFwNA4xsQhSsgDctHDRx1YDM0Rx+jE2ok2ydCmkMnBQfun55+Olvq5KR++cCBa3LSkIdGCldA+h5Q2zrwsMXJrYsmlO268yJK308eaQ7Vh73LcZNclufQL/3pT32TxGtFrIIbyJzotVpKedx9uDorACFULlgBKeszaAsc9VOM9QvP6vjizt92tK4f5EtQ8lRzqNtls+F5mE55Nng51G0fNmzYohDgZgWyoJ10Xkdctt8pf+wc/czwxF5TZ3S0lns7IqhrDpLRut6RFWmzq1wxMBCbPjskclu7CeHnJbltMnNrBS0gqnvQJvVlh1xyIwRlREvL0Ytat7twcPNUc5h96ldq4OrlzBx0WYIhX2434U8uIlsu0TKL4UaqFfl4AWjBmlh2DICgbITZdaKxefFJ25bfcV/vktUH25pdeehz2PVn2OD6wM6EvLxggXnkFqZMqGsiXoWD5Xn/up96YdeJhAbRiSTMrr2OfWmX4/9nZKLinh/A7KpLIWKeaw4d18oDisbMahs9evQfwh7sfuBHSoNYBQX/P9PaXLfQWPHIHUbj/HNKem3qnUKkHGw69MMUVYd+SBkSfQSRuEFtM+Fu3jzcatKYj/4H+RBZAdH8k80wuy4xNv/dn9tWPnVtsn3RcWWw78WT55sOiedh+37tO+0osx6q1D/MPhJQBhJbmc9mqwmyP/4+H/0PdjRyJpatb1Ja2gmz68WSY2aOTxzy0Knbtu6/mme+xaMiV9lM9SHWpZlFLeLnmfv88zlxyOn0I22PHxRZpwXm1X/5rRx2vaIQEFOblJZ2QVDm7TLmvlNKBk15RAhJiHmtgmAezSxqET8P0noaz8+da1CThPUQNttgW34epCx9MZ/vUs+77cV+iOy3TmvDqoOSNc9e3VE3+2LT7PILLMR6zO5+7zzH/Nwhthw66Bas9h+bzwJSVBrEyu6ygcNXlI7610sY7YLZtdI0u0IfF94a2Lt8u3Hk0HXeKhVAaWiP+fksHCRhUQuIaXrtd8ozCAsfaux3/c8gKGvycWyNP2RNoAuHPd3HXfr02XrC+PG39DQemdqPBURSiOsnvSt++CD8k5M7yv7poXzTJtQi40Z8kYmfBfMdd5bcAu2RVzmw7IgXC4iFKjC7VsLsuiwx+vmDW3aMezWfBGX8ITXG8D1S1z0LRiI0RLGtZMnx48ffUwi4xwLiwCX6JwgLnwKz60qYXdX5IiiTj/ysEMZVOhzrJp9xxoXQ2Hl3OMoO6aKOYrkdaVhoLDVWPn59su5P07AaL27T7cnn07WDjafeHhXICnuO+7EVUasJMK0+yHG7vpuLNYgL0on9XdwtfPDdJ8PsWtTT2uTQfTYZJ48M/q4PF6TIpkjbpFNPvamQhIOdjTWIR5aLbCoNy49KfnTXwx2JJZU9uX5S9dlQY8Hyihbs1crySKVHIngv3grh+PeTJk6823vVnq0RaxCP9Oc1YWW7V77Tecz9x+OQ1m0dbYMDSuHoDRFqsSP36TQmnHTaw6iZz9t+WyAc1xaicMQaxNuYtC2N3cK7JbFbGKvxF+VCm1AwdnQcuLH30HPuTgw96zdAqgP7oM7Gdo87W5qb9w+gS4GBwFrHFtyAe+nRY8Y8GxjQHAOKTawACC4uftm8eFLHyqeuxm7hCWEJCoUDe8h+1zn07NsRZavRUcdVyscgD9ZvkcXkiAC6lDUIhHI/RLTqIvgc72YNrAcBxAISIPGFoKxf+P2Wv838D5xmHBGUoFAwOkuPe7nksKsv4zqNE8qMtr1eVTW9qqrqWmiTgQF2zTUorpBzERDrHPfm4621rjsiC8YC4pViLspjE+RwbIL8NxzS+gHCwuUuqtibbzvNqeUwpx6EOfUIBlxbJli8dQvZ28dCmzyQY22yA1rjI2iNywphhTwTHdX3WEDcUspHOfgng+Cf/Af8k0u8aBNhSpUNWd+x58U3QzAeZZjZa/NSUMbhLPqvcP1zmDc3dVRUVCxAcuzroyQYsYB4HXE+y3Ogwuw6E2bX7SKJhDrN6ABP+hkPdu476VFEy7JOg8P24cT/CLfITnhn8eIfodmgrq7aipOATyDZwqLKysrn8vVEoE+2mdViDZItBV3Wp3+Q/OSeB4wtH43D+snhdtXgZywoGfHPvzZ2H/tKGFsxNm7aNATCch6uOqugwOBGpwPgq5S56QJ8ixamBoVALEQGxGoIxR/2GDw4n8PLbrqVsUwsIBlJFGwBmF39cXXcMV3bv/pWoq1hD0Lv6jVwQ6L8kP8zBo5c5sec8oOhNMGORt0kzpNXNNTX89IQfV2Md9p1DSwvXzOovHwV/u5AYoX3oqop/NAwrhNTIKZATIGYAjEFYgrEFIgpEFMgpkBMgZgCMQViCsQUiCkQUyA/KGAb5sXGtwNmzZp1iUSRRyP1cgz/8X/+JBEXr77oggseY1lZ72IZLuy6ZcaM68Ls5suvvHIi9h2dTFyAx0rg8WiY7fUUbEnXy9E+ecE0i+SB/gh+YA/Uy1if+BjrE5t6AtdHH3/8MqyviLumgcuL2OK+wIoH96tZ13hQ71LUG8G+od581FvYE/i7bhMDj1sTRBw80w869J44RIQH9cbr5dV71w17LHj9DTfcptoDHv/nsXrBFAddT8jEB/Udi3jtGHA/6YnOgQfMPyrGDHhzhxUHCHrFlPPOm4P+nKR/s9S7vSdwd2rT6cCUlwVEzmrWGU215/Q+KBro8L3gHFT7eQcHq+Ql0KRPyEmuJ/FL4T0ns6PGjFk5e9asydQURIzaRGzFMQzPe81y1TFX2d1B7AlSCChQeseTWGltUCoT6v1DWZblOsLYLmEhjI5LQWTJCIKxmkYx+bFs6dIjbrnlltsgIH3Zxv33338Nfr0eRHseYOhZtlMGPcztf9fgmHzjyvy7779/MVbyy/G9E5f71KCshybDLepKQLC3/3UOdjv7UUcPwlKPsrYXMWrmVhdhYV/QAOwLGgOh+shqM7MdfDscRBsE+EnArHI4W6BrDTUrJXAmgqZep4TtmEhKbrfYHze0DpP9YFuLnM4xEC9sJd8H5YfL8gmUfyPTuQe2I3Hi1o16+gmZ6qRju8SR/EhoWz+qYFrVQXv8nnVxwvC7lu8CJPmg0Zb4k7dpZ3DwaiDqjFY4EX/0o85mArS1GNgmyupdouYQZjkfwNNTw4uJTpyt+cb3FWOG7+W44aEw8oq4m0Ip8axkvUx8IXzwROxyljz5yDVPbHwJMRClOnTknaZphB0qOymYwv/lT+ezf/7z92ErN/B//N4B29Q8KopvZ8Dh3qiVZ5l2qOjbrT4N3t2qysGOfUPC3a7Xhc07C4TbzYq0bIcJb7v5WVdMnXq/ta80WcBIJqWyLY82yq1tEF+aFsRfr4f+bSaujoS0fLDxQUQJ4qh++L8N30wTmryQfWaqd7MPkra32fmLmNlH08e06zPev4M+D9ZR1cui30INyN+2vqwqg3pvqTakX6nGmlmPNABfZlro+DVwFBs/rd/QryZMGFMceHKrDU82uuaJnbNNAtr96AjYCIiYJSwC0oUB8pXqKBBtU8xBJ//TjhnqHQbo33RGgpjM7SqICDitTnVR7xOFJweUG6cXuNyn6kgmpA1Y4Ox1yiXhxBPtrkjXH8nUjHJixVfRQAkxBz/fAYe/aLT6WJugEhT6DLRdodOWkwpoqiJmtn1n//SJBAOdx2uVk64E5GandsE/fmPE620bAVHmo4CHtpbbwQGOzZgEf+/Uhu6LEVfA4T0NjrwEnR5wwxBXUSxKvk4giYxy2qlBTDVqg5QoR6aSkdbIGQc/w7iYBS4AEUytIIVC9ME6O7EcZw3CAtz/0dtUkR3iqzMExH2SA5CzqxQkQTwI8RcKf5ThBS8mo1iWk4iVMXIgK9x04W1k+5xArDi7caatExbwfx0/i0h//LzJvzlj2vWXyFjrc5bGu4nA6XzUa9QGJzWywt+MEIIu1eQF8deFkPUYglZ1LAIiElOTJmjvRh030G026SDxooC8acVBjit9IHeizk2sg983WMcT8eI39OlcnRZo6ymtT6bFgTJ1KHsh+yUFVddW9LmdH+tgdZI4DjQ1S2mMyCggHHwg7H60GTE7iyQD+iDUZ29+w4A8U+GgD1ybjqWcnONAUvXIBCXMhEdBA1Ff0KkgB3g3/HWBQp3/1U02ChhNvbvvvnsa+jRMwQOePCshiI72GLkxH/TvN+obB0taZshB5sQDm/edhK/zxULblBlS4qYmhU2qHvhyJAUJ/Z2Pfg214KgPJpPmMtSuNIgpbLKuXoc+ovk4aBCa9WYdORmZdegHaWMi5VwKzWqN7+/Y8IRm/tkWntBiEO2h/tPqm5OTnhIylQON76gR1LfkqMrKJTaOWsZw65QpUx7H8cwvJRJLOHAPGjFiokJq2NChazjD4X9lQ9dL5BNYUNoPjvK++L9WvhPVMCBr6Zjxb8Kj83rueec9ioXE4/gOTuYoBf/ss856Dn8/JwcDHe8DXquqmoDID/2CbvgD7gLAGcv6cH5P22Pu3M1kKt6/AkbNwSCaQwdv+vTpogkKP/q3l2yP5l8DZyrZn05EnFTfDcCdqPDVGWb529b5tZanoJ6HPuPcRq1+bgNtsG0+XaBtDXBR6xCEu02j7e6gxX6kLVL1MD3oB8o8pnNMXPFzwsz7aa1l/zj0W/TVcu6k6/TTT5+DELHZKGi6Vf2Db88SJwVvKMaPFTsKucYTQ/JkEsqJxVfwhONJPOjjJAXLVRRrAZhr5+EDkC8qYVAt0StKYgxR7zDQ0mb+llEks0OsB8ZzUIhIhyIu3q1WMBH+ZE5dMSuR6bNnzz4XgnImBvw/ZOrE1KlT70W5MyFkIzUijkP/xbVP0tH9FTUa6aRFufg5gZXhV53agMDvg28iLJ4JD/Ud+JeyHWr66dOmzVTCjz5dDGF9FgOhRmlL0gJt7C3rJkDbbgt4eruKtqzPyNtFF154Efr+Q9DPzVjRBTnjROnl8BVoXO9EH5pLqn/kr6Wc+B/9OlB7T57MT8OTcvXNTac54MwQqpdOpelQ2myE9AUkQZQGUWscorMIy9nVz8gQhQ8E43kw/XtW/KiFMJhMm1p9Rxi6DgNmFIUK9f4RA+dEDJg+6jsHD2L31+P3big3Fd9TmMQImyxrXUcizuybpzUcxQ8w+XXM7MdD+9ai7QHAfS/07SW8G4kytjSWtGUEkY8yJ03rgCFPfph5333TIEx32dDoC7SjJ6hzTXcNlnUQ6zDstKXbNlTdjOWlWWcdX6xHmUivsdOFC50GPd87RVtkHVu7VcHD4KTZYWuzg+H9ad9z5tcdf90HoYNuCQoY8AuuUjABfzVNKtie1BgmLnT4YG9XSvxpT3fzQVS7DHuqNvg3nLzz9KgIcBDaCbjSBDTbAP6763RjWJvvrP1xoq1dVFEvi+/H6u3Rr1G+BDWBFjWk7X2GXpemE/AZTq3EH36TIWsTf/pdxIEwpWYyaaQcbdaz+CB08vWnG/+VlkO9xQp/PQij9alTD4DItvTIV8pNVXogRMKm2Us/SuHAdbhBFp4cwLC1lSeucvOGuSKuEek1hTDsyav1wQ7f4BcwG1ZzQQsz5BzFfL2DmEH7Yda7Qn1jAOD+mTN3OgU7mccFzC4uTqp3XEikIwp7exnfwWRi9CJl9qE/gRn6C7aNckuUSYa/l2JRbhbq/1LBAw7iT+D6lRyU4n/gb+LF/l54wQX/zcVRwgTOV1oGkpt/U2Y4aJI3ZKRI1IWtfi60mPC9qPHR94USaAK0/YWFtj8HvtUo1wbavkj66YuCpNljjz32E7TBxdpOubiWcYbO1AnJJzX+Mplmdu3p76zfu5Wn2WnhyVUKR8mTp8GTjZIn09W4tO2HdcbK1Fn13Y8GUYjIcKE5M1GjUEPIKI85+0ArmMjbLUIx2sHBQnOJzFU/agaS4V7zPc0fwtFnMVVHDSQ9ysJvKkzJaJu+/oKZ9q+qDkOoevuynZuUoKpv1ESZ6GujQboNAGoCXQtzUVPhYpk9GcJey5CpNUwN2v4bcZG8MGnEhVvSiBE7vU/8O40GsW46NOFR61JTcB2I/Ge4WsFloEGjh84/Tl7mgzqMTonvljoM/5shdqVBWNGG929J3pthZsJjBM+TgFhNFyeGOgmIbEzv7Hg7GIxh470pJFZmkKE6LrqAcCFJD/3pdTmQVT2qVmoOK2z+z/cMI2tCJZiSro4qy7Z1U4ozpB5utGmvU/Y3k3y43iWth2zVwFGMlqvKJg9saPukbpbpoWG9LKNHGHSv6oOTbciBzh3VatCmCIh1/YTlOHhlPX0dRJhmkl/6mFGROEGvdOacFBhRVwqSqEOYGXjSRbNZlhWTkK2Tzg2Ictbk93a3e1To4KEeV1MJPCVNpuYUif1IdqMCJsuTkN6lNLFgypytHGHOOFdceeWdCA/P0oME9CskXAMh5/fgTlw3Y8aMm5+cPftC1O0vTajraEMrM5EONwbysXBAZzIyRdMMcGoA+wk42jfTb3n++ef/EfglEfo7Er9flXWOg+lyPr6dCVOMNr94KBiA/xwiXb9hOfWe7YEh5yME+Ryc+wv1aBkHC8r/GmaL7b41K20kXWlz0yThthVbpx4m0lzuRvhw2bJjODhgKh2F/WwD8Xc9aDsbtF0C2k5noEFtauTEAtrexT1cDKNywJLG+H0ewqXVjIwxCsYFReD9J9JHRM1mzGA0rFdNTY04/8EHPGBoWEQKQdNVej9gpp0zvbz8PrQhBiDXiRAmn8e2gDPriUVlrR4HNwVHOM3WMSPbEiYax4HeFmFIAUqg3Psq2spxjH5dIHlyAehwuqqHvj0PntzNwAffqXGWtS1pZab6XxHa6X+nelp5tVlN2KdOfpCcIXkIxwyTaj4KN7ml2Ot6u2p2tStjxd+Kb6bvNuVNe9tvJDAdvnb0JB3s6CbpIwYyfzLQSO2jS+GBHY2d2rPQvBsdnPrlBl6mcZTpu1c+ZoIXf48pEFMgpkBMgZgCMQViCsQUiCkQUyCmQEyBmAIxBWIKxBSIKRBTIKZATIGYAjEFYgrEFIgpEFMgAhQIbSU932kjU8QcIfG027qRMXVMPvSR58RVH3gQDdtdzJN2+YBfjEOBUsBmx7LtRj7uwlWpZYLqKjfNcWcp4JrHgLOA3e2cRRaw4qoxBXZSwK2AoKgYgG533maiL4/Jqvxa+Fuc2cjyybhLOkv4RV3d1ZHbiFIoZRMjz0fIfgqzEztWK7Hb8wzVd7UbFgelmE3D98ODR74rZ67ouDEzc9W4REwBjQJuDoXh4NA++iEkbpt3IqI6E6F+pyG2a5NIh+kVngs8uoFUu2rdDBQ/8N3AjcvkCQWczt1rg1Jsy7YeQrKmGKUvYT1xSKHi6Tv9ABUP4qCcmacLoEW2QB7o0a8roAlGQdQTuvGQEs+QwGc5zIZ8KQKH8xpX8sQg4RMG8bDJa2UQFk9G6knW5JmPF5x8Lm4/J67A+3PC5488+XmT9Yx3nrA5RsMvBdwcY9Vg2876LlKlfsKEE4QjTTjbQIBKVGAVRjUI1W8mpsDgNVMPSfz0o6xmMjW9Lge+Puil7+N4upB1ZfJAkwSM+unHXK24USiDDmb45W1cLwAK2GSPdISKgUG/QR0lvZkFZcJtc5AxmyHPwqPsa/rgwaAXp9Z45FWHIzXIpzz5po55qpmf33jCjfAwy/P2Lr2d+yyIpgx0ntST581T6snTeaKqChJoGuBGZneRydiUZkjJVqjn9mU5HmNmO3qeZQk3AO7EIHqcAh4FhHmtUgSEGoipSzFAvpbph8w+6Wfe9Wwj1hlfT2XDRAk8B466f8NgZhID88FgZCI9dcZa5dhS300Bobmjm4A0t3ThUumNtHci074CxLAzBv82ChNz2irTTJpPZjso921VB9966wkyrGlWe5zRMQL+KOBRQPSkAkKD2D1c36Dg6Jogg4Ck5BK2wqTNz0ENQZyrCQhx0R9z4EIgfs4PurPNFJuqrqapzMQU/EZtxbpcdJTJElIakLm0RDsQ4A9ZRvth5nhTgK15lf1xJ39qFXOY1zUXmDFRK2yGUjlIePCfiRx4CSXOdov8vR6elJ0MFAheboPEBhcg8cLRew4ePBZtW3c7OIZyK0ePfp9t62fMMaCXqfzEwHE4v0MYfsYEDwpPJpRQSSWYxgja40+wuK5HLqk1LAOc1I4D/n04c0c59ZEJI6J0zjsWEBejGYPiEFWMKW+YdInmB9ZE5uHbt1yAcCqiC1sCg/YvdilRs4DPqt22EzH1KjUdEtoxwwkzTZplIJBlENBz8P6fmXlfJdXzgAOv3ovMeoyrzIoeiBO5ovoKOkOiKoP8tGnTfquEg+/ppNOel7cyidQxLh5zICHD4lRdODCLPyHvFOF9GDe5gGWsqak50FoO74apd+UDB9apv9GPN+W1ErybhXd43EpTS32n5kKKIJFIDvXqtQmCAQsKFHNh0dQSKUvVDxKdB7E7wE134zJhUsDqg1gXyWjuMBzK0CrwEPY3nWhtgcy0/a2OqR7ZyeCDmPm1pGMuYEqb3uy+ngER5ay5tEw8uM6i+xDWnL10wuU6yzyGbImn9Xo6/e4SlOH1Bwm5Z8xsR19XYXvMvMh8aBCweW4yRYbJ1xh2QBSwCggHF6M3HKjcoKgPcg5aZptXC38cNPi/RQkOF/yoPTgj6wOd39MJCAc+TR06z/IyHzEI6VhL7XGCNRNgOgFhXTr07BvDypawrbiThLmGFd78zT4Td2oRtok6zeo7hOVBTXOYyaIpEEytSqee6VZVefovdouSAbEsBpMrCnCAW9Ok6oPG+jfTkWohUoGmjNbYLrZZ1jNe0Gd1u/SoGKSLZaTINu2qHkbVs9hTy+m4UlAd+sHs6GbETJqNaRcKuabBxUHFE/ZfFx67dlSULFd8jNsJkQJudvNytmb407q9hGhxcOrmiNIyXHvQE3FLzaMPtNF6/l8564s9XvJ+PXXjkzK37qUZJNNrincSd3VVshroFIJu9/dRuJRw6GYkzUIngZLbZMqt5Kd2sMuxS21rvVYhRNblFHTRHpiSg1xdMqqcZfHbGoVJF7ZkVnV1XQAdX5n/lXTVU2ymHMiicMlrBLqGIS8wrkzj9QrMGyvq4Rt9E97z/iEOQDWo92pkWNKsmhelqvfyMFglcyxTYynYdv1C7l7iXwnYwvGWd4+nvdBH63NCtiHuGI9SeDenUlgIjWmbFM1Jw+q4Z+oHB76q46VuurJu4elt63h6wUNOGp4mTUk3s9+ZaBR/jykQUyCmQEyBmAIxBWIKxBQoegr8f05oLZFePXXUAAAAAElFTkSuQmCC;" vertex="1" parent="1">
          <mxGeometry x="580" y="160" width="110" height="110" as="geometry" />
        </mxCell>
        <mxCell id="VRWgpDQhtX4QynFnC1eO-14" value="" style="shape=image;verticalLabelPosition=bottom;labelBackgroundColor=default;verticalAlign=top;aspect=fixed;imageAspect=0;image=data:image/png,iVBORw0KGgoAAAANSUhEUgAAAMgAAADICAYAAACtWK6eAAAzgElEQVR4Xu19CZhUxbX/7e6ZwWFHdmRXQHABE42KsrglxqfiGn1RcX9JzDNBTXzJixo10fzN4lOjL9+LwYXExPjUoC8xUYMCKq4oowiCAsO+w8AwwKz9//3uVF2r79zbt27f29M9fe/9vv5mum/VqapT59Spc+qcUwkjfiwMNDQ1lYkvzRVlZekYNTEGJEFEHhMN+7YMTCz+yY8T+zeNSfed9CyY5TdgkqbIIyZGQIwBMMeAhjcuWNDyzNB0+sk+5qfprW/Mbthfc0CMnWhjIBnt4beOPrHsoZvL1849PtG410JHqvqZaYltb341xk+0MRB5BsFWKpXc/NIFTmSQXPbAHXwfbRKJ9ugjzyBi+h2ZILn13SMSm16eFm0SifboYwapWznCaNh9oEoG6fLO1tfkx3c+2LD57ROjTSbRHX3MIPt39rNPv6qLJHd+OjC5/ukroksi0R555BkksefTwxMNtVmtVclVf74Klq6+0SaVaI4+8gxi1H56mCox5PZK3WbhfQKWrluiSSLRHnWkGYQWKhwMDlVJQDKLyjR8D0vXRY3r/n5OtMkleqOPNIPwCKSleftATrsqMZz+hy7SP7Fu9mXRI5FojzjqDGKk9qwfQhJQJYbb/8n1fz+vYdfyQ6NNMtEafeQZBJJhkI4EkUyUXPqrO+GCUhktMonuaKPNIHUrD5ZTryNBTF1k/d8vTKz/a7zVigjPRJpBEpvmnGmfZzddxGKk+l1GsvqJ66DgJyJCI5EeZrQZZOeiY+XsS8ZwkyQWlSTLjUTNx4cbjTvaHDBGmpJKdPCRZRDTxLvrwy85bbHsOol97sFEqdSCy1/A4WGvEqWLeFgCA5FlEKNpD0/PM5wUbYeDWYkEjoxfSKx55qqYkkobA9FlkPotA+CkaEoAp+2V57S3NEIXmfVdmH1HeZaNC3RYDESXQfbv7I9ZMxVtJ1cTzxmFLgIT8RAo+oHd4RkLD9Nxd/Pv53Hxnl2IC+QfA5FlEDgpHgYnRcuv3ZIisFL5eZLLH7wF7vAT/dRRy8J95dzUnEmryv525K7U38fXJN/79hNxkFau2Ay/XnSTNtTCi1cJsbX+h2Tw8yTrNvdo2fjCRaizwE89lqWHcHL+tPuS25cMNiVZ/a4uRt0zX0PSiH/i68N+4cXlw8dAJCWIk5NizqilLrL26WtyCapKbHhpWnLrhxnOkgbhffbQrWCe3jn3Ka4YGgYiySBcrOGkOCAULFIXqdvcOdEqRbQf6By9kkt+9jMj2VaIm7pNbCHTxmU+C0aVQYzUjqXjw0QspMiVkCKTdGEml9x1d3JXdR/H8pQiyx/8fqyw62Izf+UiyyDJ2nWhOhwCXpfkqkdugGTo4jVdMA2PQZTiN5ykh6wL5umLRHa/8IIVv88vBqLJIHUrD8kHWuHIeC5yaZ3uBTux6omrE/u2Z/flwtbL1G1i93ovdOb1fSQZBGcXZ+cDq7BCGenVM2dk2xoxi2NqxaMzskkPS4rUrusKZvpWPvoaw9TDQOQYxEwUt+75Sw2f5tys6ITOIB9kaDwxsfrJa5zKm+cb7183C9JD25Zc9slD38FZSeDDSD1yME3P/SG1jsBWsatunVIuFzkGMSezqSY8E6rCHK2w9xmJra+dDkLLyLXFV0hCd1bZpndO05EeFtER3pZXzso3EaK/gxo3PPG9stUz3izbePs/Ulsf/m/+lu92ix1+9A4KG3dwZQznagM7c3C2oTukPvvDtHSvCZQiP1cJAKlMf8RtmPbT0ppcPrH+hYtgIXukov+xvg8jddoiI5Qt/9f3E41b6X7T2uaexZcl6lePwLtzKyr7bdOBU4ploidBGmr6SifFQBPqxBwSIBXs5Q/ejG2KJUWoe8AD+GjtNgVzmDxXt7krzlkuzkeQFvp1UGrb47eqzGExSc38ExMNK47Q7nMJFoycBEnUrhin+mDlNKfZmEMAhNm3d3rJXT/B128zbgTxI3/h9ktre6UwhwkO9coW//L6pm6jFuPbb3Pqs0MlITkWgTmcz2PSzWE11WHhRE+C1Ac8QddgDmsF3rn4KBBhn1aXknePM3+3E78P0jF1m5CyzQvJ8WNX5vi8X9GjEWVOIidBkElxnKkH5GLF8sEc5tZo4/zjjfnT5jXt3D6gqW6vUdZJHH1IJrG7mXgwD89Z0oNfpsI+2wdftSlK5oDO8RGYwzsism7lOACYE6S9jlw3UqtDICdFn8whiWLfsiXjGrdsPrClMW001bd+rEdlCA3JAvOwgeR1V4DAe+ZKdEJy3KnFHImUkWzeEOmAsEgxCIgqkahbM9o3ceXCHCD4hj0tSPDQZCQamo3Ghgo46roYzzSYQ/bZvPlqw0tf8z0GVABzDC5bf+ezyc2/1w4VhiVrXD6MA7n0vxB1osYghrF3zTBf26tcmEPMZNMeEfK+N+3OJD6YwwQLhR1ph77pVxcBcwwBc/xvoma+lahCi+CadgxC/L6nf5kWrA5YKHIMQpOp9jzlyhxCehhgDOsR/1OSZGyztDvzeUGkHToKh45tcnq5gRKS4ykwR6uhwN+TMNINkb3MNFoMwkyKukSvW85ObGAOU9eQ0kN5z60WH6mP+KNThUGgi+DQ8Tan03o7zIDMYRj1m4dG+SwkUgwCJ0U9l41cmUNQp6lrqNLDRrVSHwkiScy0Q8seui0bkynMcXzOzNi4tbNRtzKyh4WRYRAqmultYBAv825A5nCTHiaBCl1EEqur0q5DzTw8XHLfd90SaQvm+DO2VTkzh9kNHBbCkjU6qop6ZBgEU53EVQfZ40ACMgcPAb2kh5QslCJ8gkgRtof4k1PbbKuamiqgkD8B5sg524oKE5asCUi1Gp6Dp84CUCRlosMgrZkU3Z+gzCGI3Un3sDcqdRGpjwShBdzCe7+avA7/H1lWPeNvYI7JQeBadXEWYtQhPLmhJpK5iKPDIPVbBro6KYbAHFrSQ1KdYtEKSsRI8DACQVXfJhwGasFV/TEwRxupEqSdRMOmrgljeyQZJDKuJsJJsW0cekjM8bnuoedJTymSrmg9J+GBYkXXHNcqOkAu/MV3Ecvxaap6xpfhpn5UEGbIUjfHDuapN+0ENjqDrm+9izDjCYk5CLO+DkGCWSxXbdq2SZFcdRHWa+ky2EhtfeQWSI68hBKbfW/1yYrcEwkGoQUmsavq2IxgpTCYQ5ALiVTVK3SpiG4ofLK6oWQBxnaT/UYYZSMHtcC3Kpw8Xy7twZJl3calO75SKBcJBsGpXVfoH5/vocNgDrqICDcRT8uVJqX4kSJSciSGDjCSyR15n0dYsvz7sGmOu5iL5R2xRTF4uErASbF1BQyDOZRBZT330Bi83aKlyySpnn0oOZCZfqtGK8GLYPt2il//r+CtFh5CNBhk96pDTCfFsB7FwdC37mHrQ7q21f1Enot4ddGUHD2GG8Yhoyg5vIqH856m3nRzJ5yFdAsHYMeBEgkGSTTu6ItMhaFmUuQU56p7qOSRSCUt/UVHF6HkMPr3bTfJkUHKETwLiQSDGPUh2vBDlB4W8dlcUJy2WQWRHLaFHqbyUPMZdwQ5Eg0Gqf30sLAnQwZDhQ3XzZGxoJJDDDKZXnxC2OMtdnglzyBmJsXt75yslU3Ea7YU6aHjUuIFTn1PXcSusJMJ+Wl3ncPecZHdBJas8XCOjFRsSMkziFz8/BCrV1kSra9DQS+A8r2DC0p5376F0zns/W7a0R/BU6HrcrroKUS50meQpj2dkGq0R1jIpS6ga3HSbTPdDIbDw79Sipht9BxipIeMbD9rlZPkUHJjwY1lLIKnDtcdVymUK30Gqd/SD4eEPQNPlnIomMupuVv7kjnke7nVKu/X3ygfO6SwzOG81Sp9mlHGXfqD3b+zrQ9WAG4xdQ8/PldZ2rIzh8Uklf3a9RDQFzpqa6z8vb7qddDCJc8giZr3j0eihmAHXEJ6hKl7uDGH0W+g0fnEEYWTHK17PVdyhiUrWIRiB2OUknd3T9StHBPIvUQwh1939mx0kI05Dhh/UGEOAT0YQ44HlqwxHYzGA3W3pCWIeV9gw27nxMw+0RaWQ6IXc6QO8HE9gs8xhFK8bukRMJ2XNN2oeCrtgSKKEE6Ko3JOGN1GegQjsWzMUXnMUKOgzKGZyd10q/cKXw6GpqKqXdoMsn9nHyRZOyKnQ0LlUDAM6eElOdrN8dDDlOtJnenmMpyFdPIsVyIFSppB4KTYhwmffT/qiblLEjg/MItacvgZiCiLs5Ajc6jWIauUNIPASdG/SdKWKzewO7s4BGxDHbBWUSEvmOTQVModqbpuZWQYpKStWAiz1b/yjJRgY46g7uxekqNgzKGpb7gt+Qi/PbRDioMcOl2yEsSMQ98Jm739kho3JDlkWaf0kAFNfnHrxhyJbimDCnlHZQ7iAabeI3mtnF+cdMTypSxBeJ2TuNLJY2ocmMOSHgho8vu4MQddRxgm25GZw8RF3dKjkEiO5vOdfnHT0cr7n/2OMkKGhzbVeK9yLvdz5Gq5yiY5SoI5uOo0bOoSlURypStBuMI17M7uxevCHOap+Rb/a0fJS47MxdE/gjrK4qr0s2QHKTIpdnedkyw3OzXsTJqu536eopUcfgbhp2xErkQoXQlSVz0m0bjXecqzMIcZD45qTKag+xSt5OAAAlqs3HAAS1YkMi3qU4EutRRJOVcnRY87Ac1zDx9P0UoOMkaemIPogSVrkg80ddiiJSlB4KTYzVj0H33Ncw3VzOvBHKblSqQD1ZnRrO4jHcWUi5xX+5o+J4Ode1uvAdld39P8u6eh9UrHrhV7zL/dO9UYvTrDO2HbgiOZTb6irKw1f2qJPiXJILx0Ek6Kh/hhDs5vq+6B5Aka26uOfgi4D3ngVu882GSAdbuHGnWNcHxuqjDq8bvG09IpVb9kcr81k7Zs27aiX58+azTqdMgieucEHWxoDZvfPr7s9QsXWMmqNa5aZjCUruXKy/GwYF65HlsqMgUlxIbawcZHm8frMoPb7DOqaiM+e7t167Z7zNixf+rVq9fH3bt3X1pKDFOSEsRyUuT2SoM5SAGtaXy87/boiJKDjPExGIKSYtOe0JLAE2GDibva2lrjvXfeObqiU6f9nSoq1n62cuUNYJQlYJRVHWxtbdPdkpQgjSv+cE3Zm994WHdydKVH0UoODtRBesht1MKNxxi19cGijnVxKcqlR40e/XqPnj3fGDZs2MNglJU+6xdN8dKUID6cFHVDaTua5NhQO8h4Z/3EMCWGH6JNfLp8+SRIlEnLli69BBLlm5AoVWCU9X6AFEPZkpMgzKSYmnfWe8mN8yfoILhuR5mn5apoJYeL1OB2KgQdQwd92mX69uv34cSJE6cPGjiwSrtSERQs1XMQbcb3ynFVtMzhQDzcUs2vPtl4b8OXgirgoZPm1i1bjlyyZMmvIU1ODx14HgFqE1Ie+xAqaLhh90jNn/ZhcuuHQ70Ae+keXql52uvymjbjcJAcBd5SeaFafV939Je+dDd0k0ex5aIVrKif0tNBGmp6ezopYkq8dA8vyVFMzEHJ8Wr1ae2tiOdK2F0+rKq6A5XLcYYyE0yyLldA7VGv5BhEOCl65uKlS0lir/MhcNFKDgeK+GTbOKMAVqpAtNlQX18Gs/Dtu2pqDt+wceMt0EuWBQKYx8qlp4PUVY92dVIUiMwWSlvUksO2taLk6GjModLy6tWrL1i/YcPlkCTmeUoxPqUnQepWjjaa9mXFtVswVNFKjiw6Rzufb4RKw5AkPGD8ISTJSFgfL4Ffl3vO01Bb1gdWUhJEZFJs9bZzedxupS1ayeEwDkqOj7aML9QZhz51aZaEJLmoqqrqR5rF27VYSTGIUb9lgJlJMcvjlMbHizkK6lvlID14zrEKjoal8lCSrK6uvgEm4DOKbUylxSD7d/ZNbn3X9aJJJ3d2rxPygjKHA7XQnLts+9hio6PA/cE5Sc9FH3zwK+gjQwIDCxFASTEIr3t2y+RO5rAHQ3lJjoJlH3GZYLm16sh6RzbaBZMcunv37iNCpO/AoEqKQYxtb01y896lYq6emhet5OCUuritM36jlLZWTtT71oIFv8NW66TAlB0SgJKxYjFRXHLeWY5hoJZiLm6GKlrJkSWew/TM3TUslGmHE2FLjx49PurSuTMDnRJ1e/cO279v38FwW++s2wBg1APGcsCgA2JSwBgOGFoRV27toP7A6lWrrsb7V3X7ks9yJcMgnGg4KB7nhCzVrOslOQq2rfIIdqL02LA7+HEBnAbfGzZ8+B/Hjx//IMyqjcQXQ2fXrFlzKgjzUliULobSzFgP12f48OHPjxoz5sGhQ4e+KkNuAaMcML4MGJfAk/dfgxAt6k/DAeJhOED8OAicMOqWEoO44sO8Mba5wfU904EeUMQx5FJ6aIbDuo4TkX9LJk+ZcpE9PkMQ+T9A5C/D3FqFs4l7uOA4AQKM5V885pjr7VGDgtn+Bhgvol49iPyKAATaFQeI56B+zCABkJhZtXGH4/aADonUPdxiBTtCOlCGyQbVPUDYK798+ulnZovy40EdCPxeIDYNf6l7IEkydFRKDifmUCeCzAYY1zY2NPSurq4+K9f5RRzJDEiR5yBFFucKI4x6paOk00nR9lh3mrvcSkvJ0RHSgTKGPOgzYODAF3RCYMkk2H7dD/3CTpjN2FbdpxNvTiZB2QfQ55wznkAX6QMpkjODBcWXrF8yDEInRTtSTN1je4NjlkRKjgMmH124RNKaM8jtFWPJAz512Fp9TxcGt0s9e/bMYBAo5bWICvxMF8YhI0f+ExKH262cHxweBtJlcm5YqVgyDGIgk2IbCWImYmj7FIXk0Ezqxu0VU/IEfBpA9PV+YCCePGP/j2QMOyE91vqBUV5RkcP1Xp+3gHORQ7DNGu2nzbDLloySjkyKGZe6tN5p3pb/O4LOYU0ykroxgRvzVQV8cgmMs6ttuWyXvNPEZB8YBx7IbBwQb0ZJSBDhpNhXRQbT+NhNukUhOXzMGDMe8uwjqPUKTaYYq++jaRbNIO76hoYuPGvyCcNveTv4FPSQgobolgSDwEmxP5wUR0rsMhFDm5uheCdgB9A57BSyL/j2iiA744ziRD/Ejf3/uWp5WLQOBIyJujDgUzVy08aNU3XLu5WDK7y/a/SCNmirXxoM0uqkOEGOrU0iBjBHwa8909Q57PO7c5/3HUAaNJGCI+BtulIErh6Td+3adbgN7gE8BNSVIjAT/wCWqMDWBZiLeZNVwZ6SYBBmUpRBUpQehmrWLTRzBJhaKughbK/MHkDhPXn+vHm/BoFnnXMwx5R5c+c+A4nR5lwJh3//BhgPeDEJYJzMGI8AQ7eq0oUF0mhEGLBygVEaSrqwYMlQWkv3KDRz5Cg1cplInTog8G9hRe4LAv4fmmEztlDQL3CIfhOcBb8P5nBbtVOAcR1g9ALR/qf9TITMBwb6LRjsa4ARSipHMPZQePgy+KUgaUyDKlE685LXMlzNkCjubfhhHWNKD5x7mE8JMAcTMsxFnqs8PM3wyfoIZx2fEDYIvhtOvU/Avz19tLVHwODZSFLAoJ5zoA8YOkXTp33lK18FQwc6U9FpyKlMKUiQJJlDBkOZppcSYI5cJ1SzXgor8wR+NMs7FeuK+sfzEwCGTlUu4gVTBQrWsA5m/JQx7zTnvYKFZg4/nfYoKy+vCRFkDMonBjq+BGnaU27pHjTljj+ocO4jRaZz+KSFuLgDBjo+g+xadrh5M1RlP6PziSOMYsp4GJTi5LVnQeHI+vCnaobLSO0BlZU7oH/QlUSm2UlDh+gBi9EQBE71xaFgZyjZnsf30EE2Ac48wGFcSTlgHAgYI2EiZlx5OWCEpeMGPZHPGYUdnkFg4h2UrkA8ByRHwZgjZ/TnvyKYYhtcxl/v06/fW7gB6n04HK4gY8ACtdreOixTw5oaG7vt3bdvAM48LsNB3yScZfRHOcdQAkQTfnrk+PG3g0mWwdcrTStWTU3NKFid6D+VYgAWYEwEDCruQVxGYgbJmVTqtw/qPOXoOjBHYI++nPqQx20VL8zM5aHnLZjiRbic/xbWn5d1YShMQ09e0wwMphmFM43zcLJ+sV2ph+VrEj5zz7/wQlrAVoBJeLk804jKVKKzBYyxzKKIGI/rwSwZLkFefWNoryLpvIqH/j4sERh6x3QBIpv7AOP9615OtCw7vKyynYeTR+bg+Onq/uSH030dFsLF/Ckwxm/AGHN1cahTDowynIyCE/IbsXU6SK3DQKpTTjvtXMEgruDgmTsBvlVnIGLxByikdU4C2AsQpHUJmLdap59hl2lnigq7+63wGFNt0Jt38X8+lSrfNgZx5e1jnWsHBnnx07O0MigiYnArLtK8+5gvfvG+/GDZwnVqzssvPwXJcZ7STjPOKs4AU76k0zaY7dCF7757P2B82as8rnJ77tRTTjnHq1y+3rcPIeWr9wIuI9gqeoxebHzhvye19L7mxub9PRgllb9WCTuf8JWeV5bXaY0DzHEXIwG1CgcoZEYcTpjwI4bwKmBSny5b9m1dsJAGnwDGfwDGFo06+zXK5K1ISTCIxE5FZb/t5Qdfen/LqF+e2tT933/aWD96ReiE3E6MwTFVljUZvSu3G7iTPCsBYJ++FczxEBXlvFGKAhj6zSfHTZzI1DxWJgxsn3hnurbPFGAsAlN7SrvhI0Y81h5jcmujpBjEYpT+x75WPuZbtxqH331mc+qMvzbtaxe6CX8ewYyDuq0zKsrcM7KwURDbGzL9TvidcIZIHQeMaUUM0vcK1ittBiFUWNXe5tXRWfpc17mysrq9xuTUTkkyiMUoPUZ/0jL2+5cZI35+UXPyKy+2tBzYlLNEacdtlTpRvTpvN7p4bLNowi0EEeFMZZfSru9VCMS/ATD2uvUd+scrlFaFGJtss8Ofg3ghD9uuGpR5Cor8s4lNL5/fvHrm3bB4jfRl8WrHbZV9PJXYXg3uvkZLUffCRR7eq0zhm0HKysv3oE80DTs+iItfmIc++wJZ8gxiSRMo8vj/zw27li8yNs2Z3lI96+bkgbtxB7RHJGoBmUP2ndssw/iSr4ktQGESul8moRXVsQ5O6bcdNGjQ7AKMI6PJkt5iOSEX1q5l0E9+1Dz5uYFQ5O8y9ZMiYIJshMBt1oCum7IVMVOItucjAq9U4s6lD1ygHSUI0qP+thjuVI8cg1gSpbLfNjDKLdBPvt7cfOKbbRilQDqHE5Fzm3VonyXZrFmFmMdy9JUf+VAaqN91+JUuLE67mP2QHk/pAMh3mZI4KAyKJDNWe/vCycZnv/gN9JMxZQe4bouDNpVzfZ6qz0fwlFMKUpwn7Ojdu/frYjWW8RPcO/JD5lHn2Ulv8NIl+F798JCpBabdL8N6Zbn4YFv0LvyzuB+U7cm+SAYmYuVvZKYugDGRN0ypD5Tzv+BwUD2IzBlvQSvGDKJgEG4rvRMbXroysfF/7sDNUp2LbeuVxwjDoHQUWn0w2dYJRx01HWbkf4QGNACgQojmAN3Nb1Vx0PjLli8+M6yp1803NdcfuK9pf/GgaFivFcYIfEr5ge5BP7KiYA7iuXhmv4hmHYyyDSfy97YcMfNoo9t5f2zZ0d2vdSYvo6EuckS/KqNbp9q8wC80UGytXhg2bNjMQvdDbT9mkCyzAYvXkvIJd1zSfNzjRzY2jF1eDBM3qPtmY0zvpcXQlVD7wFN5uJVoZY8PtWEPYLEOoolt6Cc9E9sXnpFePfN2KPKjCqnIZ1PYNYdTVMVgZKiDb9fF2Fr9tag6Fm+x9KeDJ/Llg7/6R+PYJ8cZ/a67B/pJdgcpfdC+S8qtlsfZiG+4hagAyWHAafE3iHQs+Km50/hjCZIjVeBE/tAETuQTW/94Y6rTjiDhpDn2ILeAqpwby1NFBES9hoCo6YUKiPIaVswgXhjyeA9GOSy54uH/l677x5mF2HbR9Pvm2hP2IUVpZcChtHt1mHQ/xsU+Z+ncfNXunRMNxgwSAubNXLXbF56UXPXInenGBSe0J6PQDJ1OjjGqDvjh9xDz/W+I+S7ohTM66ITOsRvbqgdwWv4nuJMs0alTqDIxg4SIeZ7I02M4UX33TGy7uoYI2hEU9CAjPfAbP0sPu/gOFGjE9QRTkRf3DziZHpjvtnOFz4QSU6ZO/Tp0jvcgObI6mOXaRpj1YgYJE5sCVsPmtycnNr7wzcSeV84Go4SebcU8vOx23tNGn+P+YhoOlOfdhQtv3LZly5mI9z4pD0MLBBLMsQNpgn6Os45HwRw64baB2gujcswgYWDRBQZMw30Tyx66z6h99uthbLsEYzyZHvPtGbCqbXbrOkJfD0EGkmuw5boRWy6/DoShY4SWKjDFs+PGjbu12LdU9sHHDBI6OWQCpFt4YvWTNyR2VZ2San7hq7k2B4/jN9J9Jz2L7dQDOuG1TAKHENjxuDjnbuSzOizXdgPWa4a+sQlXUM8Bc/wUzPFpQHjtXj1mkHZCOVMTQT+5ILFu9nWp1OuTdJqlxEg2DF7XMuY7N6UHnPasDmPY4ZJBoZucjns/HkVK0X52z1mdfvgtQ4mBUNp1OPy7CmG1q8AY2tdH+20r3+VjBsk3hm3wxbbr/nTdx+NxIj/OaetlMkan3ptbelz0u/SAUx6Hy0vglRdu5Ychads0ZEi8EBJlLLqVj7ObBphuFyMVaRUkxs8LHU8extTGDBIGFn3CEHcFJpDsbnRi1RM/ALMcJUAkkpUjlrccfO2tRpeRzHeby9XLnr1heh7oKBdCR7kBhXtAslTmKlmwhWIk4Q6abZGl5K2hQ4e+2l7phzwHGkKBmEFCQGJQEOrlmkzMFhSebn0wyhAkq+6JZNWDkWj666hXgeTTh0PCjMH/TsH69Grej9PvV8orKnbg/0Y4GD6JbdTaUpAWTniLGUSXmiJSTij3vFKbnt5qNCKZgxGBzZAS80pJSkRkauNhxhiIMRBjIMZAjIEYAzEGYgzEGIgxEGMgxkCMgRgDMQZiDJQsBiJj5v3nnDlTMIsy+ZnTuPmb+Tts+ysQH72W/3+2cuVQnBHQ7GkgmfJO3OBUlW9qQJvD0ObB7K9oc1G+24zhxxiwZwd0/X7rbbf9VKIL/98lGWvKlCnvtAca0eZPlDbfbI824zacMRCn/XHGS8qMEmx9VBypv+eTptTcpx7p5/PZjRh2ZK4/UKca15XRoW6XIH41j6yZyxauFLx/j7+n8f8KSI4P+D+Cfd5ppxNk1d0kl6zpMWXHGPCNAWtLRX2EbuC2j8kolBy2D6VGGf2lRMp/q2HxW8YK7/SbrCDgEk5WSYQt1m3KFus1pT773KYfbpiQfcnWJ7WuwIfsn3Y7Am9WPd8zU8QVorrFSvNOb9vHTC9KCaF+fj9r1tWnnXLK+/gsvOnGG3+jziV+ex2ftyBhFiDU9cjrv/Od/6IHLsJJ6391770zFMJO4ft3oOAvNW/kxWfUIYdsQPn74PvU24M+WlCm5/TLL2eY6h5Rdy2Y6Mf4vZdT3aefeebss6dNex7l62R7rIvf/g+Lw4n2OoQPeLejf5/I8vyL7x+Ldg50aocMj7bOIlylnV3o62PAx+FFTPdx1xwwoEqQyVLHsEsMez0QyM+V1fx9tZ78nX9BJLPV7yD+BwkLxNcDWzrmCnU0CmCrt9dOTKoEQTLntSjDiy7b1AfcjwE/g3jBiN91a0v+DqI+U45T9O/jbHXQzhInRgYjPJ6t3sxHHrm0o1NiJHWQWbNmXTFv3ryTQYiJn9x5p3qHRRlW2JdwN8U/lYlV9QFLebbrIs8/99w0lRimTZv21K8feMC45uqr/1BVVXUo34HQ91w2ffrv8LcGfbgWwUsHwb288oLzz38RBDgWq/xuO0GhzGD+Bik1Hzmk5syfN+8k9H0qfwPccd+76ab/wr+X8zvMw0Ngnr5PwkCdN1gHbfSAJLwWf3lhjYF+3Yw/ZppP/H8j4Yj+7QOjP4X48VWIFxk26/HHrxTtjEU7D+D/SyRsSkRI1Onie5pSA/VWo38no3+T+fvVV131ezD/IkiixR2dUaLQfy0zL5jmHhUZ+H43vpt1QXDvKdYtFsuAibK3gsEmg1hmcT8vJIMs04LvR0jYYIhKrMwfSRhYbS+T71QJwvfc5qjt2t+DMUwmQttTQeB/A9xP0NfXVZ2JWyG1v/IdyvGGXLOPgHunGpvCdiHBtqDM25CIGdtLMPk+WY/MouKM20H5TkiZKNBXhx+jLoP8LAuDvOvGIFxBZT1JfNzXS0IB4f7FjkGxBZHM94aEbWMAS2rJ92Au5tyyxgPiz5BectvI9tgXMpCdqSQjkKEUWC0cB/p1Oeu4GQTAiIypN9sHozBwKuNB3f42ZuywB9KR3GKBCB7BdqAak6gGBJkBQlgtX+EpnfKod4O43s2GVft9ex1sN74if9tVU9ObK7TSZjO2IkPke2xzjhXvuKWzCIpbK5Qzi8ltHRVu/P4afjeTP6AuQ3afk7CQpGHwc7Nnnw/iPxXGgGOwTetnJ2JBwMb06dN/i+3hGeJ9Atuqy/nhd0iPDWefffZTkHyPUtrJ9tHuKRIeTvr3QLowcZ287q358cceywgVRv+OZDcd+hD/VEQYUJV0rawi7Ls4VZerPLcjduYx34lVNeMlrVuCELWkl1zVVclDRnDCIbdQErYoT2mR4vZOp011+wWJMZ36UbZ6YIIHnCSjTlvc+hURHfjqSiQliC8M6d/9rUoa2YT1G/f6UJhfkSu3jbBMieEUjw7F2tGU6zQGKM2/wupv6TJkIraJv1TUe8EYMFupZ/UNyjR1picgSc56/vnnL4CEOA1Spy/KWpIMyvz1MDw8jd/mq79DymyEFCJTSslHuFLSUiq3wLeNB6/xU+QYyDDz6vbV5heVTYK0OV/gqisZwUlZpVMi9Ik+9oM8VYKQwHhO4dDfjINPvocUqJPtCXOvVY3GAxtTmu/YBx6covwNqoJOPYeGA8CkZU0q8dxKGdB5zpG/gUHWqfX4nv0F3BH43Txg1cV1XK6wGMiVQag3WFssNyXd6QDOTpTYy0+QKCDhgLiYPtSEDQK9Ub6zMQhNqI/K7Q3btyvcyoGhNUZum5QznpRNGTelB4h4kMo0gkmsw2O2yTMQex/ZHhiHdzfLvt8kGUFs856U79DuSzGTFJbwdVtvs+LqVLRJkLfVvbtKXE46CAlU6BDS4tMEYv89lXWaT9X6KvPgPVfqDL2F2yUyDgiOyrj1TtUNVLMxzbB8J9piFvUMeHIcKHO/+o6n4qzDD83FyrsWuv4TZ4JJrYWDZciA1NeEx7PVFpju+7ZFRQftcZn2xICYIJVBpuq2b1PSySDqlsFTKnG7oRKunVDxvUWegShmXlVqvYf6yxzqpel0qZ6kC3Ovo0GADMbtkIQjtknmdoiWMif46m/qOY3EnZdBgIuBLp7jcgXGAIkAnzf5UVdrr26BMK7kqshDQvthGYmOyrf0xXKDRXcOrv7qdoVWIxIQfbjs9USbC9hXtPkQmZL1JYHj73p+d/LFoiSjFJDEjTY/5LkGmY/+YewrP9xOyXb5DmWu4FhUtxa2wz5KyeE0PlnPJoVeAAOe64Xb+H0RYcC2NfLVM7ctglCutR0+2Qf1oxKoU4fs7UqdwqvzopzpjWsft5c+oNuGW3/VPsdbK6+Zit/HGIgxEGMgxkCMgRgDMQZiDMQYiDEQYyDGQIyBGAMxBmIMxBiIMRBjIMZAjIEYAzEGYgzEGIgxUJQYyHsopDjJZTtMs+MUM9EuiFFOkM2UP+3SaB4akafThcSl17CKZc69+lnw9/D3uQn+Pe/Sjwk+PX9qjw4xs4d0xFPbE/5U77M/Tv5P7dE3P23Qzwp+TlfZ6zCBAvHJv2oSCD+wwypLHy3g+jyHPrJ/xPV76OP4sNorKThc6dSYAQwuzeCcfA2SBCVivpmdwxZWbraak7t7vvqbDS4dAIG7FhDYQodyOXklhzkO4XxpJvUW3s528AXvY1jjzVvILfIwTUeYZ4Xa0TvvuIOEK3MphTUGEw7yTzFk9KuaQAu21fPqH71sEQJ7ryjntRX0eu/VXE7vgeungetTNSsXLa51+p83BkFs9DftHQBSL8LqMwNZOdqkitHpbLYyyBrSQ3nvddd43nWvXMfDJG9K3QY7HCUBQguSaS/KtZ0g9Wy4zshgQrjo48mULviwjx06m0leGIR7U2T4O05OAuIKNiEJwABKlP97/vmz8ftjThMkLo5RL6vJIADlvbxYpgoM1/3DqqrxSFhgERayAo7AJJ2ENhLIkshECY4P98dg2vP5EnETHzCfrVPiBL7nlhHpa45A+Qv5HVug7dPOOecZedGO2oDoE1PxmMYJ9IEBSWYsN2B8gf+jrf9FxkEmjrMeEj8yLg6XPzDRgiQ2ENoHWFhq8I4BWyQ+mRGyzdioh82bO/fk6upqXsLDsb2P5A3zUH+nEyJowEBuoRPVdD5mVvupU19Rx8etlcA183KZj8A1GYK4niN+ZggA+2imUnJqkzhiFkbg44t8z4z6aG8O2lvjVF5humYyHcayS5m/hJi/59zmzwlmu/8mLSxqGCf20W+oYasYyHK3jqGcelnNu/Zytvdv871DMgJ7aKmMALR+ZzAP+yUm0fqdkXskLnu7VOpFv9tE64HQ/2rPW2vvE2AepAZLyXYZuERCYXvC8uMYDcjy4oYsFnXVpYh/NVGEWhYM3cA4dfvY2Fc1S6IdJ2IuzWq2W7ra9FXEx0gGNt+LhSqjWeqK7I+9LX5nlKJLUm51/s5ximZkjH/RGwU40Wp2DSqcIjkA98vmIN2sSBoMwpufTBgi9pmTxmwiroSlmndlObdk0AJuxo1OlIZ2Y4MDYy1Vg4PsDKKGutrrKjmtzPtI3D4CZlYG8UomTdhqFkaMbbjX2FhHMpbOYiTw7crEIgzXdZxsj7HwYJJuNma26jChnRueGIVpXwSK6jvDOxVC3C0JVKTeNAcJJP3BqdP2BAmyjCQ+aaVSCZmIZJgp47Nlu8wCwtXOlrAsY1JkPlnU74LyM1WEqysYzanyHduQEoaMqabEUdPs2JmWKzSvJOB4uFhggrmNMPvD7aeM+hN5fR9V2vtIjGOykvpHJT4zSTQfNR0o68v+MAewmnmeySLknGDcf3QaG/vIUF0Fn8x7xfj17gLXVk5hMqXo4xRlTh37qNIGYYuwYXNrLFIM1co2eTWEjUbs8zeDqYnE+P6izp/TLsCJ3grym5oAgHleJXGLoH9zkFzBnXI9+WUQddVmfLhEklyViQAlhNRCsEijYynqIvlzm0kViLZ+51ZJRaqaEFrkhzL323ZitW9tVFywz+o40Pcfy3FgTE5ZFR1XZzUO3Z6Di+OgVOeWDu+ekOZ2MgqJm1LevjVRUwuJ7ag1dBuuzVxZbsSsbA2pC6mLmMl0NnxOcyJ0gR91/njtgvWImHlHpgzKBKEq6ZwIKFlWWk9xoYxJAFCefo9J+jWtNPh0grJOZGQMVCBHjokDdkK825hVZdD8XyCWbWeYQ5FvdjZPopX3zPbR5oGiS0XffLiiDh06VK72krleEH1OiKsMqE/U2AGdhfZkf9iuyAtsFbOdimuPQ20Hyu7R8jvG9yysiHL8zNi4FmPtZuIBeX75jo9QaOfhHRkxQX0BcMbzaghkUrTyCjugpo3iLebYac7M6oI2DpOwQBv3ij4m5fwg8+NzXDxBHwewHPDPHMCP2dpPc/5+N3Om1QfUtyv2oVkpQ2EQiZz777vve3IwGGgtLD7nYCU6l3dw4G8Lvq/B4M0rAB64//4fot4sG3E4ItjNrcLL3UK8bwMTfdspCIRM4jD/rT/BCmRa1PgwATNvUXItjBew8EzAn7n2MvLeD6/+OsCWKUnl6ujaPK2ECu6t8cnfJBHaCZmWNRDmNZibf8kytmwEZ+LXa2y41nqECh8WvEWiXsbiRWsUGPR4gX/TCmd/lPlrkdvTbPMS5F0oDCJW4xQI4RrZGTBCNzDG7W6dA8GN8cj67SVBXFcrtJntXUaXXCY21xVIt91Q+o6B+O6nOl7qBGCOx1SEgPgaQaTmnSHyIpwgBJZDXa0xKbsCXZzn0BUXG3UukHByfqm8wcijvjUgiPGbbGVV5LQZOOD31OxbKEiTKxXbxL57LlYrLii85FOm75GXe5oXfeIcYJ5D/5z6okUEGoxuwRaZGs3mcTYx3N4P6hk0Wkhdg2caOLG3mIOGE+YL41kVGUMk2tZEt3cxewJrN0umulUUtw0TuC6+vDvis0QoEoRtYj95rWwbxDRPIJgDkx++TmPyhsqrvXjohom6noc+9n5X4wowKpHqwQ8OllT3hlCYIBu+VCIB0UzBvRvMZbtWrsI0mSIb+oXQKVaI+0Ge9Yl/p+IqMWi7kqD9hdhmma424oo2SwkmMwDHj8rGaDTAdnCV0ngae/orVFxjnqztpQejas0DdNN1tN6hj2b6UiyON+DPlSoCaOmDRJM0mYbuxmzyBWWQEObTVMA4aMuKYL/xiI1ISw1Nc2JlNsurFh576kxmAiST0OKlXuvFerSs2KxY1l0cNGuyHvtF4hCDdLT+KDAcrSDqgSKIcClWvi8I689JmHC6zJj10OaLEpbtvKANkTucJ5hdZH01Ly8v8GT/aV5Vshs6jsN+iEczLyUd66vnI9xC8WBTeAJbsGhCF7jmRT+0TFnvaP1SCUXFiYJrZqrvmQ3XDmbe22hS57jFHSXWtW7iwFNaIdXDxxbVfO8yf1NCIeywgGAwv5YIxaRWE9EqbGlqlb+rh0U8YZa/80xDZR51kvg/zwzkbzwQUttR+6DWczmBnir7J7ZLGYd06gSQkGhwsPdF/c7DNsV0SmsQ4VsEZseznZilosnxiJSdal3zf5quBTGoDGKOQ+JX56BQEKlZJ9sBptp/nlCrynAWXEu8tumj6GfSK58v2+VCRMYW4zLvX7fNqWVdlNtdt/dBaVw7baZbQxwE9I/L5XtcpvKY3R+GWxJpUWJ5lHlYlseecyw+pvkP24BarnziAC6jSRII6vEiSSnSzZN5SRzfnTHjHtRrs1VTyrsNwdUYQNj0l3p5zpwTuJo7AaB7Ct4fiy3EauW9KjVc4Yvykpj4lZLoOZHs2t5c1q0M8Ytt0pWqa4gKgIeVwlPYtPGyPK+DFkyS0RbPssjwUgfjFW6YI+vec+D6F05zJOfD1nELF1Ss0cfLOZfC26LNGNl/4HOi2HZz4bJLYBNfUnIIZd2uo2ht+3SYJ7DyIxzYJsjJlo5kXo2LbYa5ckOBW0WnOA6aE8ctBc5JzoGZFXra8FVwYpvL99xmwFw4HHUSuBuvBsRbxXaUej14voJ6pkkRE/2qdBRUXDUM9PFD4fhn1RWrutkfesna9SKuYtCBTuAZAdsnfBDzMzz8sp+z2HBi2JV3bkXo9CfgWM6MchxsC/rZmeLuQa6oi6APzWWfVInohmvhrDhVmqlFfTor1tjnhW3yCmvZFj0eyKAcExV6eO72Qp1mzFG1zXGxJx1PZRvA9SsKrqcSjyRu0cfd9naJI+BzsmiXzoqcZzpHrhdzap2P8Lvw6ZIwPwKD1UhdkGPg9dhKm5zfnV40WDLvpZQomQEV+UDU7VQxdlXZFlvdkxJF0ErgnVExjjvuU4yBGAMxBmIMxBiIMRBjIMZAjIEYA6WPgf8P2pIbcEr1WSUAAAAASUVORK5CYII=;" vertex="1" parent="1">
          <mxGeometry x="902" y="150" width="110" height="110" as="geometry" />
        </mxCell>
        <mxCell id="VRWgpDQhtX4QynFnC1eO-15" value="" style="shape=image;verticalLabelPosition=bottom;labelBackgroundColor=default;verticalAlign=top;aspect=fixed;imageAspect=0;image=data:image/png,iVBORw0KGgoAAAANSUhEUgAAAMgAAADICAYAAACtWK6eAAAuoUlEQVR4Xu19CZQV1Zl/db9uwAW62QRF6EaURUU2NY5GUBF1jCNuuCQRUZwzyWSiRp1kTCYOapLJRI+JS5zM/F1Yxpx/MFFByUQUgVaTKIo0Kq4INNA2DTTdLL0v8/tV3/u8r17Ve1X16nW/qnfrnHf69au7fvf+7rfc737XMPL0aT1YfXhrw+Yhedp93W2XFChwmS4yyVrb2wuNujdnxDYvuaWrrb6ka+g5K7pOuPmhPkVF7ZHppO5IYBQoCqyksBRU9+b04r9851mjubrUbPIXr57bWb9hKr59Iyxd0O3sOQoU9lxVOVLTrooL4+AQTSqsevbrrXs3TsmRFupm5BAF8gogEK8KYjVrL7Gjf2z99xfyfQ6NjW5KDlAgrwACehcW1q0/2Y7u+P0U6iY5MCa6CTlEgfwCSHNtqdHprItDcf8urFsDc2h8dFN6mQL5BZCWPSOMQme7BHSRK4yaiit7eUx09TlEgfwCyL5N09LRvrD6+RvBRYanS6ff5wcF8gsgTVvGpxvW2BevnmlsWXRbunT6fX5QIG8AAgtVzGjefaybYS2oWn4duMhRbtLqNNGmQN4AxDi0rbywqfp4N8NZdHDzqILty693k1aniTYF8gcg7Yf6dx3YVu56OD9f9F34ao1xnV4njCQF8gcgzTvKwRlci01IW2ZULf37SI667pRrCuQPQLBJ6JoqImHxpl/+QHMRr1SLVnrPkya03a+rPM1X26uW3gyFvdRXXp0p9BTIC4DQghU7uO0EP6NV/Pnvvm00bqG3r37ykAJ5ARCOK85+uNY/EuZBc3WJ6YJCM7F+8o4C+QGQ5tqBBS31Q/2ObmHtX2caW38/z29+nS+8FMgPgMAHq7O1ocT3MDVX949tWXgLuIjvA2bkQDhzMq219o3zoNMc47stOmOPUsD3gPdoKzOtbN+mqTDbHp1JMXSH79i1cjbK+IPXcsxzJh/e/+84i3I1gVo4aNI6AOU/+hx11iqvZen0PUuB/ABI0xZfCrp1KGKbHr4bq/9rfY48ptbTMO1aeRVMxv9MV3uTZR/cPMs4uPVYAOcUfRbeEyV7PHHkRSwzSEPz7kBEGvNQVU3FpV5GCfsoJwBYCxLOoRAodesnaL3GCyV7J23kAQKyFsbqN50aFHmLP/j5vV50kYLql68AGE5Mqh8ggV5zh3atD2pkslNOPgDEKGysGREY+Rqrji749PHb3JQHpXxy4Y7nb3A6xVi4563xcIq8wU1ZOk3vUCAvAGKNYpIRqXkikY6MbqKgVK+4zhSlUjxFn/zmXzQXyWhEspo5+gBprh0WNAXpDm9Ur7g2VRQUTPpjsQv/96nOwJvtaqwqBRfRMbmCHqSAyos+QGoQBysLDw5VXYsoKOc4Fr1l0Xcw+d0FgPh80W3gSJOy0EzbIrVXgHtKRxogZhys3WuyAhByEbigfMu0klkeWK7Gg3t8y+0wFO3/+FhyJLfp/aZDu05u3/7Yg4Xb7n0WgDzbbzn5lC/SAMFAFmK/wTYOVsaDTFNt1bNXGw2bkhwZY5vu/5lXvYfiGDYPp2fcLocCWnf+8YbYzrteitU++b1Y/R8vLaq6ZSXq+1q26otKudEGSHPtIAxU9qIl0lT7yWPfV0UWupMAOJen1T2sM6i5ejA40rezMbEAhItjDQt/Vtj0eXw/qKCjoV/hgZfmQVfSEe5TED3aAGEkxcaa4EP4KMHnAIY5CREZq1dc6RkcHKBujnRt0H5a5BKxPQ/9PxUc5nwoiBkFLR+dbnQ0+fdRywaac6zMaAOkcctYiDruFGW3A6OAo6PNMDpawEUq73uA2SHGXAKXkrvcFpWUjiBZfztjBAcyLgDH3xXt/NELSeAQFRe01I4yWmpG+25vHmQMZCBylk5tDVkDh9rnri/emgJwzDaqX5nti3sohSEu1yzoNRlHmgc4LgHn+K+CzoOOIibeGUZbg79zMjk76ME2LNrOik37gxt8S0xfcg/5tLdiDv7v9c/0PaKrOOPhIRf54Gc/Bxe5EI6MnX7KA1hvAjh+Cs6RWrzs6jAKO7NkxPDT8BzME1kOQn8phBH9ZiA0TxHw2gQHVYhdHcUtdYHUZoCLnA+9xpdFy9Q5uhXy9LoX9BCjtSYQT+dgep57pUQWICR1bN9HmW++2YBD5R7mkLZ0mX+6mqGTKJzF93DTOrZ5yW1eLUxCIf8vgMO190BXy54yvXHoPFKRBojXvYgkMqXgHEwb5x713ZJQV3On0bYbX1JEkHcLGli0ZntxrY+Do/FTT46ZhQYi3h/adpzbduVbuugCpLnW9xn0bpnJ/h4RK4foaujmHvIhSGjZyvihLlL9/DfcuNYLcDwGzjGC5lvXD3QQwhmWrHLXefIsYXQB0rhlnO+xTMM5VO5BQFgfk4sE8EAXOQ+u9d9LVRQU8uuhkP8nwDHKc5XmXkjtcG3JcqZcZAFSsPc9f4ekUoBDcg8pWlm5RwIXCUgXwXkSRy4idsjvBThGegaHyEBTLyxZyQe6/BYYsXyRBUhX+z7vIpYLcMTHXyjmTvMhKC6CQ1WTjF0rk475AhwXgXM8CnBkJh5RzGrVIpbTOEYSILD+DEYkRVdXHcQJ40KsShStupVyp8fURQLgIiyjYMN9D6BPccADHH+LHfKlAEfmu+DdLieTtCXLfiQjCRD4Fx0JL173YkMacNiZdVOBQ5KaXCQTkMi8BXs/Hg2Llul5C3BcAM7xIESj/hlLM+Qe+EAP4YZq9pw6M25o7xUQzZ309kMlcFJ0dZuUF9eQuO6B/Q43D0HUfqDQiNGnOIOH9Xa8df+/4yxHecGeh64B50h7lZyX6gC2QTD1liHPZi/58iFtNAHScaAUeyBHph1AF2KVX+4h65abhzEPTihJbiworE9Jn6GFe5Z+H5P5sLT9Speg27yrPjFh6tUAsRAmmiJWW0P6Mw4uwKHSyiv3+BIg5CLpZuyX7+3AETt6rBE7pm8sEHDYNYWAaWvIKPKk+x6GK2U0AUKv2lSPS3Bkyj1kEzqx0+5GF0kBDsP0vA3iSeYe3WdDGl78tlbUkwkcOYBwkFNe1ukSHEFwj4QyPHARya0E58guOEQjTZcTragnISRyABGDbN8vD+AIinu44SLmwSthEpbgKDyhjGJVMOAQ1ipHBtTNVQqM5trBQTCpKJURPYDgumfcBZI80B7AETT3kOXZ6SJOYlXRgAHBgMPlbIWpd5hpHtdPAgWiB5CWmmNxxcCAhF56BEfQ3MOJiySBA7vzgYpV6TiHQiToOH2N9kPBnsCMANgiBxD4YE1DzKovz0NkAA6/liunedHV0RW3aNlyjvJxwYlVXicnwdS8w5v3gdc6Qpg+cgDBGHzp7+0RHHaiFQ9Dudk1dzP2BbECw9ai1YucQ203nBZPctOPfEoTOYAU1m/ovu7ZBzjsTLGc0EE+5CLSkZEcip/Ck8t7j3OoYtaBNbODiqgSJM16s6xIAcS04x/cOt4POJy4R5CDQ3CY2D3UERe1qHMEqpDb7XO47ARcWChiRWpOuOy6Y7LIEcNvoLhscw8JDo5Ea1uh0VQTsELOgjMAh5ghRTD1akVdgUu0ANJcSx+s9G4mKZaVdIehMl2RCA4+fSYcF5xY5cFalbL9XR3FBm4EzrSPUcofLYB0NGXuAi5GNyjFnJxDcg8VHIdN6N+j+xyuJ23zDh0GKKochPcBup4ISkK3R2m9lm0Vq5j/yDPGG4GBIyjOoU4IbclKGObIcBDeBdJ18JMpmSroQZl17cARuFjlFbFu0utActEECHpFJ8UxXmNSJXEPl4ehUs01J3AExjncTHQ/abraefx2Gi7acXfYzE8dIcsTnQNTzbVDug4gAJqP/Q+pmAfBPaz6hlTIAwFH5laq1NOzoIjHb3kuxENwrZDNeI/NjYyIxX4XtTd5Om2XFAQuQ+6hcg45DhSrAgGHx4H1mxwX6wzQgeS+pF50OEjLnqNg4k10UkwxS6yiVabcw0khD9Rl3e+s95qvrcF1bF+vRYctfXQ4SPOO8kyIz7Pjfp/QKuQOHdZXInxJmMgApGB/1fFu9Y+guYckZ1b2ObKtd9iApOvA+2f5XSyili8SAKGJN+6k6GOEguAeUQEHyYfjt8dop8XuiRQJgJj9oJOihydTy1XWd8h7gXMo5DsMcbK0qTdCADEK69a7uiwnCMtVj+yQewB70Elh6i2DJcvTghN0G3KlvGhwEDopdra7Dp2ZKfew0zlCaa1ymIVmxPeWyvNyZZL2ZjuiARDeBeLiVqcguUeUdI6kCdgt3h3emxMzV+qOBkD2bx/j1oKlurN78diNuM6RjJED71+hFXVsPucKUjNqR9OWsenyJ3MP90dpQ+0+IgmD6Ik7G/oaB5v7GlW7S+Pkqm/sZ5Qe/uUm0Kih9caR/VqMwW2fj4C/CedHazraRvl96AGCezMGxd67NyVA7PY9vA6qFKmYjy7rgekcXhviNj0A8fGuASYYPsIZMgLhAMDh5ikuKjBixf12T9zx3MOfbt78ZElJybajhgzZ5SZv1NKEHiAYkKKutnreb2H7ZHqUltxDBUdOu6wLLrFp+zDPoFCJ19aOwBLtTUPXvfXWjVXbtl1YOnDgnldWrfrfsvLylwGWzQBLddSA4NQf15afXCVI696NpxS/PneN0ViVdJbaLvYU7xV0o3tk3WU94H2OvU19jPW45Pavnx3rmlN4HdN+hx3WNHHixIopU6f+oqysbHWfoqLEK369FhiC9OEHyM4//l3x6/OWW5V0K+eI32m+K+lujGQFVUQf4Ytct1ZJYKz56His+j03X8eNH//OpEmTHp00efISACU9UUMABrsmhl/Eato/OJ0Fy0sghjBxjsodQ4zl70wQHKPnwMGJ9PFHH03btm3bU5WVlTfW7tnzdYhdO0OKgZTNjgBAtowht1BvcJL/J3ARjxESJecIVCEPSqyCrvHMW2ONdRCpevNpbmoiUKYv3rfvL+vefvuH4CZPR03sCj9AmncfYwUHJ43Xo7RhcVnfuf9w488fl/U6OFRg7tq1a+Ty5csfb2hoKAc3eRzcpKY3gRtk3aEGCDeyYqsv6Q41murxwD1yWecgOJ598yRje11Juh73+Htwk75r165dgIqLMS73gZO093gjslBhqAGCKIC8PzbuDWAVrdxEZw+LzkFwPLl6WtYsVEHMLYAkBpDcXVdXdxxAchNAEsBN8UG0zH8Z4QZI45YJCDWaIIh7udsjLOCgpYqcw+1Gn//pkHlO6iXvvffeNwcNGvQZQPLTsHOSUAMEd4GcinPopXbDmo572LmPBKaQB6WMs2NQyH/7+qScFKuc4ESQvPrKSwsUThJaM3ConRW72vcNkSZeu01Bp0AMTtFHcs59BOB4+f1RoQKHBA33ZMBJvlG5YcPczPlS75UQWoDwmK3RvDsuXqmWLElOu6O0KufIZYWcfajcPhAAGdN7syPDmqmTYJ/kB1Xbt0/MsKheyx5mEasQkRTLJeXsHBJ5DwdvdUr1BBq3KkDRikp5xYeje21iBFUx9knGDRgw4B4saHPCuOMeWg5iSudfvDrDzhmRg0vuoYIjbOc5uNeRi+ZcP8CBqHVZWEWtMAMkfs2aF8uVukMeWMTDADkHJyC5R2/vkvsBQgqlvWDtmjU/BhcpDrLcnigrvABp2HSSk0Oiqns4cY7AFPKAwUGrFblH1J66vbWjwUWuD1u/QquDFDa+fq5KbLtADGHZ51D7wVN/G6oYcce78yE8bA3I+2nn4P79++lDlTZdkAlo1YLCfjtcUf4UpvMkoQVIZ81nJ9uxP7tbaXPdWqVORHIPr27rOKdhzJgxw5h5nrtAJG0dHcbzzz1n4EBUkBhIWxa8f0/atnXrxUj4eNrEOZIglADhbbbwwTpdrrEJ3ANnOaicZ/Xas6DFKjkZIF7xeKzXB4eYjOkAiNunOBYzLrv8cjM5QdLc0uI2q5muX193R3ethXIDEVzkHzRAPJHbX+LO1oYBVgMuuYcdOALbIWdTswUOFM0z5H7cSeDWYXDSe3kkSEaPHm1s2bLFS1Yz7Yb16zxzOuar37dvNMSsEWE5PxJKDoKwmCOKDm4uo/+C9TBUqM6QW6alGm3E84z1kYEgwRkO8+P1ISjhmGiQK3h54Bo/GGLWLORZ6CVfb6UNJ0BaakZaTxHynLkdOHLVlJs04D7Fq0wnjlfOI+ujSAdfK196DM6NhGZnPZxm3raGQTTxJgSBs4k+EhpwYNbResXQPD30MBAWDzUxOkm9nzoJLIpnfp6tUNQhZvGqt5x/QslBcBfIl3d52xyGylX3kVSzYQ82B5vbCRDv5l2Ps4wa+ef4fILPXnyocfNGKYZO4kksXmPHecHfj/RYtqvk0EOOgWg2FIm/cJWhFxOFEiC8C6SttVtF56agKlqFRSG3jnltQ39fSq+PubMHed7HZy0+n+FDVa4UH5rP+gtgcF4QHMfhcyY+w33U45gFesgAfKYiwcYgy81GWaEDCE28zUu/8lXTZgPuQYdEdZ8jZ3fIszF6/sqsQ7YP8HlT/OXR2D74DMaHu4zkHHQJIUDIqUnq2f6qSpkrFOJ96ABCkscat5qXu9CsG6ZNwFTTpQf1j3q0gyF6dhYUFMigvO1dXab9mgGLS/Ehe+Z3ynv88J03O3IaREFRD4U/TfgAcmhbN2HBPVqau8WsMOocWViR3RZJHYS2WYICGCnAny7OA+oEvDSH9OVZf4pc4/D5StDgEA0NRdDC8AFk97qzCY6mmm5lVoPDLS7i6cghGKaVgGgGOChOERjT8DkRbihU2MfDSsXfsiYGwURM8OX8EzqAFCBQtfTWDatC3suzguIpr6uj7rFfAIUK84mfff756MWLFg2hXxf3OfzukfRy/wKtPnQAwTn0Yc31XSbn0Aq5t7mwe+9eY2Nl5XBM/tMx+U9Fbirl/PTfvmNHv2VwYKyvrzc2vPuugSjuxqnTyFSy82AnflN2Sg621Kyx0GCb2V0a7gIZ1lJVe5IWq7xTlx68a1avNl76058MnMuYhP+noBQeeB+K7/1WrlxpwPRqOiLyLw44GQRUFp9QRDoJFUCMlj0jDuv/xQmB7JDTaJNFx0OvE0u95clrXjfpVff2pb/7HUFiZiMI+A5etgnFECSLFy7MGkh4KY+bdvd2mlABpM/gU9Z3jpm7oB0HfjJ6cggYsh9HlRzIqEupMkO3SPKZQixdc/KTq9Dl3c6FnSBZvmyZQe4T8NOCS3k+DbjMrBQXKoCQAn1GXPw/xrQXR7SV3Hlbc+uQDJGSFZr6KrRfnw6jP+4GDPohOKB4JxVLL9xHHn44rbMhTx6SwwQJEpx8/AQcpCrovmajvNAp6SZIjjyGTnYPtda+8VHbrorrOg6uvbxfnz3pz5oycw5yDzZrSP9D5mWafs6DOE0McgjqEh1tzQbvHbQ+Tr9b0yEqiUH39qAsWzgW/ElYjt2GEiByAPscddZLcD1ZFds1aWVn1fLvFfZ5m5YZ5ydHwcEGDz68wxheejDwUD+4BcrgJ9MHIlGmRcTzwwt4eWCFZbmgUAPE5CbdYfZ/C6As7dj6+3/q2L3wrn7Fu45idJCEJ4fBYXShC/iMPXp3oOF+hg4ebPCTY0/TsGHD3s6xNjk2J/QAiXOTbqD8Cqbg/99WU3EtgPJDiF3cLc5Zsaq7bV9eo3Hs4P2mKOQ1aAMPLvXGA38qz9UCHNuHH330h54z9lKG0Cnp6egE/aSmz/HX/io28ckp7Yff/HMo8vvS5em19wo42IbB/RqNyaN2eG4Ormo2qIz35IONRXND0ctD8E+eMuW3YbqmLRQOY14GwZoWivwsY9sfftjRvmkaRC+ed8idxwIQNqxy53Dj6Tcme24jVmZOPnMHvCceKv80A3t50Ma9V19zzcxRI0cmbrp4KaSH00YeIKQn9JMiY9fKa2JVy28tLH4z/ZVtPTEINuAwqy3sazyycmrgynpPdCldHaedfvrSq+fMuSZdulx6HzkRy464VOSxf/J0x2mPntlW+oPbOhrH9aw8ojZKKOSOk6CzxZg+wXsYHrU8adLl32x89zOBEdxu3znnnnunn7y9mScySrobIgqL10NQ5J/p2r781vb65+dDkR/cI3sjThzDpuGTjt1jVAxq8M1FpJKvKvvZ+O6G5kzDyI8IbvcS9j62u82TK+nyQsRyInZrw+YxBdUvz++q/e+7io/IcrAEDwBhe6mLLH9nQqAbh7016bBz/vGls2fPCiNA8kLEcpoYfUrGbC6e8K0fGhMeuaj98L+paG4bVp+VSeQRHGzDpJH7jPHHML5CuB9wjw5sVP48jOAg5fMaIHLqcUe+a+zDM2ND590DkHgzzaSbvz7AYRYJXeTMcduMkRC1wvxAtHoakRuTncFC0qm8FrHsxsi0eG39/T+KHfnMwt34BYfSsJ0HBhiPvXyW583D3p5/NA4cd/y4V+fecMNFYb4vXQPEYSZBPznBqFp6l1H3zI2+9JMAwCGb5ndvpDdBAr3jdegdV0O0yvngcKnopAGSZha17t14qlG94jvwGL4MG42lriZdgOAII0iwIfj53HnzpoclgrsGiKtZ7ZwIZuFSo3HLadiR/1fsyE9JuSOfBXCYLSsoMl7+YLSxcfeZVbjObATMtoHGqcqQRGZ2IVa9NeOcc249YcyYvwZRZm+XoTmIhxHgmXijpuKb0E/+GSBheJzkJ0sAaW4fYRSVXvbc1j6zHnt3/fp5OAXIHemc2sfiTvkZZ5xxD1xJQhGQwc3Qa4C4oZIlDRX5gk8f/wk2Gm/uV7RzMFd31SvXR5GOWQCMptiRM140Rt9wmzgoRteZQpzyewIHma7CycCsBJj20gdwjs7JU09bglur5ofxLnQtYnkZbQ9phSL/IyjyN5iKfIDco60R8dwOP2etcdy8HxglJ75l9YAFSApw598MhOpZCKfBXgvjSfd1iFT/ClPukjB56bodZs1B3FIqRToAZZzxya9/bXoMF+0szaRIAYyXAIx/ATA2YtIxRq7jg3s2yhHr6p9w29Mt4CY9dg85NgAbEGDu/lMmTXoy7JYqzUEymbEu80I/GWo0bLjAqH5lXnHB6vM9cxOIadik3B4bdcudRsnklRCn6l1WbSb7dPPmWdBNFuBsyJlQ4rOyb0IlfNDgo/aNKitbMWXq1EegiPfsNbleCBJQWs1BAiKkLAaiTzH0k59BP/k6uMkxboqHnrENesZK6Bk/BjB87+RTN4HYdRGA8iMAZTxELwahDuLppOkWwKgAMP4bwODVCXnxaIBkYZipH6DYIuPD+3+D/ZOLY621w5N0lG6OUR0rOrHSmPKLy5C+LUgZnveoACzn48LMa3Dl2fm41WlQw/79R7i5dJPetyUDBuxDoIaPysvLXywrL19VVlaWpAdlgXQ5V6QGSJaHBPrJaOPgx18x6ioviNWsvQjVdXUMn7HCGDRppXHkuHXGEWU7esLyA13lOJwhHwOgjMXfsTjHPpZt2b9//3CE4WGUw3aE9vkAJxK3Mqgb/0Zhoy/T4dUAyZSCLvMLriI39zrTKd8ui9XJNAU0BTQFNAU0BTQFNAU0BTQFNAU0BTQFNAU0BTQFNAU0BTQFNAU0BTQFNAU0BTQFNAU0BTQFNAU0BTQFNAU0BTQFNAU0BTQFNAVyngKBOSvSvdptb1XvVTVfT3i1so29Uadb2mQ7nTgzMgJu8KNRVxdc2bfClb06Fe3DQi/hEGpGC+2pueR6vHD88jUS3M3nx3fffY8sGPkYHsbMp/7uumKPCV9ZteqrljZ6LCGcyeHuPhD0vbe0tJR3viWME0BS8/gTT8wjeKy9CxO9MJfeCHouBRk2xkuc3yKiXRwQUtvgmgsFNU2VdgRVZM6Vs+7ttyePPf74v9bX1/e1axy4ybCb589/asnixf8AIF2McyCO19blOL3UuRSIdBQkQOLBBbAibS8vK+MtMGykbKj8HgNLj19gg0P/65CmA59C9fcszjK5eprtCvIUXxbb7LtonFUvO23atLcAjnhAB8TLXQxab8VvpcuXL78WADmKFSDwwxn33XvvAny9Vakw4V6IHKeX2taUwS58E9RvRrC3192yN65CyscL50nQH/y0NUwig+yfkK39dNcAGJbIccHC9QW4ScKl6eAYA9Q0TAtQjZKV+aFXJu311UmRCXPwL27noNt6guQgtixNEEu+UxHO37oWL1o0H7IxFUYDHXz5/JkzV/M7BwnvbsZXpuvgyoZ0/zZr5syv4e+fvnvLLb+AKHCQaTHIpYsXLryp4rXXzmuorx9UUlq6b/rZZ7+K+LCLkCbVJRtmezAJzl4M8QIr6fGYRJ9Onz59FSbNIrvVEmlnLFu27CqE2jlVEhlc8O3Zs2c/Mx16mDUPZX+0bR7aNottYx7UsRl1vILgzsvQPts7nJFvkOjTLPR5INLWoU8vo09POeWxDjpoOBIBFr4pf3/iiSeuO+3UUxMu0ERZ+1HXd5ajT+Ao/TjJQIfjkKdK5EsrqrCPyD+7oqJiJvKOQXsLMEYrL7300j+gvo3WdkHfuQnn5VkHx/wVjPkaNQ3y3ifGvRPj8AT6wCPB8UeMwRyMwWkY6zrU8wxExCc5T5RkWb4RydqrNP+nU5CsqwoVQv6GfLxLWCrpP5HpQITp8nf+BSB+qf7PwWeTuCJC8WxU38nv+P0Q3p9iIW6Cko4BeMouL8UQq2VOGBEcDREElVoX60YbCGLbPADKTnW1lnmpMyBfk0OfDlr75DQ0DzzwwO2yDFxikzIcKNoxWu2vMg5nW9qRUB3pTyXfqY8Yt19Z6YgxZ7ggOeYEAyUDFYhxehEMaoUA1w12dbF/+LynlLvA4xTObnILQP6NRFE+BIP83ySEtJgg33qlU/c6AUQlCgjxPtMRJJhIzQogDqK8CnVS4vt+pDtW9t5GZOhieuRbi4HmShUfHAAiTmQxUPF3HBBa7pD3gJoHE2airAvl8dJzMw/ByvTI94Ganiu2OoEIGBUcBD/FV/ZDKeuA2ienkVVFJ0zUR/3MAHJXJ4CIxanF0p81VjqiHQvVui0A+Yk6H0Q6SedOFSDWRVOMWwXqI7dLWIQobfjpb9byqDqIHcIVENwj9A9T90C+t9V3ykS2Dgy5yIP4PERzJdMJwpuEITDI6vk7/h4BkWS5LFcdICtAMGE3ynyiTLLqOLEp6vB3Uaf5O1dmCWS870fZXumDOTCWidUpy+E7rILXy/TIWy25oah/sXxH8Mh8+NvX0idyvpQP8v9ZaZdJM69PKoCoJnouGJY+zlXpKCa3Wb3FtJ8OIOfINquLMBdJy7glSAJhBohkqRIgtGJJdhvfH7EOjNphhR3HJzJWs5PVwcek4+1QtGRw9a6XqzTKPUsduKXPPHOZmo/gcnrPMqxKLtvCwUoDkC5M7hdQ15Wy7eQ0kqvK+gVXVfs02dKnIUqf9qVThi0AidPWC0icAEIxUKFTJ61l1nKxMMUXG/T/RWWiq8q0K4AI8MU5C2h5hWXcBqjjFhRAsqKkU7YWZl72QZp3TdHKxpTrSpnCYK82kYWHijAHDspdnEYwV14FolyNH7iXQuWfG2JmnVA+Syo3bDgJX5MURkQkJ6eJP1BaD2HCf1hZWTmBPyKCOnWY50W9HRio7Rwc/D65Yu3a89GWv7GbcFDY3yB3gNJqRleEEnsJP/zO8mEUWHnLwIEPQgGVyrCB8qgfWft0nehTG/rUqvSpFH2iOJfUJ6UIlbau6GzTF9t8a9esOVempdiIca2y7pFccskly9DmG5kOfTvPjk5uf4NCHhddmefqOXOelQsK5wONDZQGMG5S5/Tb34QmBQmQeMFz5859nAqtnRUItna3NEnoICdcqoywcqWUOREsrVTkT7DK2MWnAsfZZ60LwCi58447HsVAxK1CqdrDcrHKfu2qq65aIUEi0xN8/Dzy8MO3YpV9moqncI1I6DP69KNUdSh9sk0G69o7oPeZYoKej78LnMqjrI9gcQ2I0v6eGzcNRGkskWVRP7IbawSi2yvTYJE6zKFu2WenCe040a1jJ/Q0t/PLVbogAWKdeIEgWPbCZtASVkdhGmRyybES6sdqvsWOIlyF0gRxM8uZc+WVKzDZKJ6ZD7kAJtO6UyZOrFyyZMlNmPDkUHzi9cLEuQHlj8RdHpe++OKLVyD/Bdy1VtuBFfYbKONdpHsQq2xCm9EnU/wQfYqLXuK3Tqc+yfLPPvvsNQDhd/k/2jeVYoqTifiO22//DdKMR5m10LH+484773zQ1QzqTqSaV9VsaU3EHuoId1LLJs2CdL2R8jPyMRCy1EHi+dJtUHFFRz5Tx+BfqwzM99J0qVqJrOVadRC2WzUb8z3KGSHbyL9CLo93kRYwpQ8mJ2OdXJUpjqmWGCrkLFOYXc1+06rD9Ny0U+phn8pVOoo+lQvdxdXkUy16wlSeNDTgYAkKtTClmums9FKsjOeobVUVZlmBapoXRhzzlUVJTzAeCINFXNeQtLPqIFLpl+2x6m9B6SDp5rHr9xkARLWJqwBJaX9nw1TlWN234ASi6CIHEAriH2VHrEqnsGINlu+xet6qgoGbkNZJgt/i6cWeRHx1x8DczbLYHlkOdTI1D9/TGiffS4CIPsXNwCjjfyS4bfq0zM3goD/fU/vDzUkaGgQgS9HeH6vvRVvj4pPTQsX86kJCS6G6EIk9oPj+FEBn6iKc0KrxQJi9za5wklv2peJmXqsxhP1Q+y8AoY5DSpHbDe0CTWNZFVxbTJDPyYqVsFFo11isxJfjd8lFuBK/QXOs1XUCk+ROJ4BwctB3jARWrS78XZTDXf0EDoL0u6hj8T0mSZs6weTeiVj94wNGU7AwUd9Di5aaR04etlH0KZ6PC49Dn7gJ6OpRzeFqvXbfrdwxFSe3go+TXdDxKRU8ct9KNlbdwGQbyF1IT/y1eoQnAIQex2qbmZ70tutfrnMQaXBKO4CWfZB4PuumkFNB1h1266Bzd1s1h1rLtYJJ5hd29vj9GuqKb61DnfBiMpgmbAwoFfo4gO0mpOB8CeISd59TTWSxyqalrUzA/pOzOe3Oi0VipxUczG/luCot+T0d/QUdaZ6OP+TK6san2lerZ4MqnrI+J7CzHstOem5xEO7UUp8gJ8HEmO929JDvPwkS5lVXUtrZyRHIjoWM71gkB5GTVN3V5sqrliczU7zAuwpR9hoSnTI4RS0OFGV2TloOorVCrlYUQeSAsk7uZyBtf1Em28oNS+oS5kOZmuVZdtUPcl9ArIi2/eLKLfoUd1XhSqvqB25pLNOxT1i9b2O5LIsfLiDiLIjtUQOKSkrfuMInPaQ/J666o808TmdMBF3KLAvLe1If5HiLcX/Nbt+JnItcXwB7G7kF9TMuYmJcX8uETmoHXSl6bgfCagd3k0+uSJm6UYtyZH9Ma1CqMv3Wq6ygPM8Sd6lOV561fW76q+SR/eK1CRlbB9W2uL2GQSrBLmgqvbPTtlWUyb6ZIqUsW/ndsQyVkyn5WJZZvxtTtZv5qdNoCmgKaApoCmgKaApoCmgKaApoCmgKaApoCmgKaApoCmgKaApoCmgKaApoCmgKaApoCmgK5CEFAt1Jz3X60R1hzerV5+I04BTZVrgmvIrDWK/rnddcHz3dvqxSQHjZqoeO4t/pxEcfpVQNoNMcfH1+ndVG6sI1BXqDApjYD6NeW3Cov8uzHGob6Xgoz3bQga432q/r1BTIGgVEYLY4OBg6h2cu6PZOL15rTCU1BA8bpR7EEecVstZWXbCmQI9TQI2GqJ5ekw2xHPHsUt2keULOAhC6x6eMQE9PVKZJl471qx6p4n/HfGq5bspOVR7rtdatDox4nxDor8cHTlfYMxRQA77xTIbdOQ+KUOLk3gJLgLM/M3SPFMN43oRchOcorBOMXEmc3zBDhjKSIo+F2p15Z8+pz4jzMzy3cgODySFPCz6t0IfukNTheRO1XFF2I3+zO+DEfCIPj6SanJOHiXi+hLHDxDkQnltJEhdpxKCuxoAUSl6eElxgR7eeGUFdS1YpIAKMqUdfd3JCUvQS5w7iYVCtq6icJHZ/5SrOMpxOJcp8dicAebBMvufhIrUOaQywOVWZpEehf7PVdouz4Ifs2mw9UqzmIzgAjI+c+iwiJ8bP4md10HThPUsBp4HnEU0eGaWFyk5s4ek09QShjAWr6iJWAwBW9mcZCAF//4Bexo/bWiOKsGynySiPmap1s06u5CwH7WhQVviEoNSW9tYzXCuND/h9q0198YEgB5XvGYmS9Vjr0kaKnp23PVYbj++qE8duYlKUUsUr2TiLDrJWld9T6S/Mr8bgZZ1qJHcrQMhlCAyKhKyDYYwY1UQGyVaJJbiGNU4W65un9I2B6ybJfAypahPk2XytciqCTwSpMN8h32Fq6CC3keV7bHB1RcFQgCIEo5sIbsKV3TaYglWuT2XFshgA4iFAVf3EEkhggeyNChBxXt18lUp55nuC0hriRpaphhoCB3veSjlhxk4ClhqQwk4cVAMzyKgtwYxK7pcSZGTFnO4tIgpSLHmAH14dgNiy5+HCl3N58QvCYg6UjZ8/f/7TmKRlytlr1dvAvNNEvkMkxAtkPopWiExo/que28bvv8fvZmBtpL8Q+ZNCsgJE7yLiYlJeAYiyZc89dyUvB0I5ZyCWr6MewMtrZHtQ5gb0LWFMAMpVCBuTFJJJvQwI0R8vFOKWtNa1Ie6xedmN7AP+LsjpwQ6wcZEHCHULBHmejDi2A+TtVZhkvLeDgd34oUXplwjReRu/Y5KNRHpOaF7GwichSIIlaIEKHqdgCurv8cAEarmYzO9YJzOBiHCgD6GtZuhQH4+v4A7o/9H8+KgvklkiDRDqHpjQ78qRw/9TGC/XOpIAB6MPmgDhYwkKncBB1Ly8/kv+Dy5ku7Lj93hsLTV9utmEmL1zZVxdpqWSDp+xVfQdq6urG4To5s+nKkOtV6bb2n21WsqHYhqCj8trC9S0Jh0Y4Bo0TFdMZN7LEC2R6ZDaEQSX3igiH5o/33fffeblPdbOWpVzTgIHgiTcnMo7A2U6Xr9gZwnD73NkGt6bqJSbcoVX81FHgOgzHdHe7wEXZGwqWydTAEhtz5XWPqBMRqKMP5IWaj7efIs61uJTIT8b3n33NGQqBF0O2C0wkZw8+dIp6x4FxSmxB2LuFHMjj5t6oIepvNLSo0506068ukuOcnj3R1zZV+PTMp0aJZAOkWqAZ2EqNuu0U3xVsys3HGWbWIa6kSfabQ6n1arG+plebAAmxOBlPgkQa3xhBtyT/cTicY6kDf/yEqB8mTt50U86G8oofOpAO3237nxb48HS7Eqrk9yrsFqGCARu/KmxaVmXNYqi2FOQAEm6Hk31ABDA3eW0dyIi3ZvjmSpsKY0Bar9VbmqNF0xrn7U+gtatm0teTK6odJJ7CsIPy9GjlxNaXAOQ0G0CTA1pKieYGjOWG4NOgHMqNx1AWC/BaFcuQYB3NJmZ/bH4j3FnP+GeRaYR+ywMCK6at+N9JcjUOxCt9ZJrqUCMytxI14+8OTDF1RIX2cwWV6ddKCcAuAHvLF/FyQFT8D47gtEsDPn/p8KM2kWZnZOU137J9Nxcgzn2KphjZ+I+9IFUyKFzrMa95ovtLq0hR8Fd4eXMT8Wb8r61boKEd6W/8MILV/Ed2voZFOgnqIfQtwp6CW+NMibiEh8o7c/xu1jhO2GJO1HqMbhH/Dnej848QoeRVdnpY1/FPfC8g/x0WSfo8yruIX8q3WTS7yNCASFfc08jK0aKdJt92SIjjQ3SHUZwDN6xEn/UO8YFB8pWU3S5mgK5RwGrks47ScTZlxkEh2qMYFT33OuBbpGmQJYpQOdEKT46/RX+VqOy3BRdvKZAblKAZmPrzVcSLPJOk9xsee61Km+U9NwjfXZbRP0KRoDhMCyMFjUVwLjwFx29xRvdNUC80SsUqZW9CmnWNh0ohfGAhom0l9uEoqO6kZoCmgK9S4H/A4H3L21BuUvJAAAAAElFTkSuQmCC;" vertex="1" parent="1">
          <mxGeometry x="748" y="160" width="110" height="110" as="geometry" />
        </mxCell>
        <mxCell id="VRWgpDQhtX4QynFnC1eO-16" value="" style="line;strokeWidth=2;html=1;strokeColor=#3700CC;fontColor=#ffffff;fillColor=#6a00ff;rotation=90;" vertex="1" parent="1">
          <mxGeometry x="597" y="500" width="84" height="10" as="geometry" />
        </mxCell>
        <mxCell id="VRWgpDQhtX4QynFnC1eO-17" value="" style="line;strokeWidth=2;html=1;strokeColor=#3700CC;fontColor=#ffffff;fillColor=#6a00ff;" vertex="1" parent="1">
          <mxGeometry x="639" y="459.52" width="271" height="10" as="geometry" />
        </mxCell>
        <mxCell id="VRWgpDQhtX4QynFnC1eO-19" value="" style="line;strokeWidth=2;html=1;strokeColor=#3700CC;fontColor=#ffffff;fillColor=#6a00ff;rotation=90;direction=east;" vertex="1" parent="1">
          <mxGeometry x="597" y="569.74" width="84" height="10" as="geometry" />
        </mxCell>
        <mxCell id="VRWgpDQhtX4QynFnC1eO-20" value="" style="line;strokeWidth=2;html=1;strokeColor=#3700CC;fontColor=#ffffff;fillColor=#6a00ff;direction=east;" vertex="1" parent="1">
          <mxGeometry x="640" y="610" width="271" height="10" as="geometry" />
        </mxCell>
        <mxCell id="VRWgpDQhtX4QynFnC1eO-21" value="" style="rounded=1;arcSize=10;dashed=1;fillColor=none;gradientColor=none;dashPattern=1 1;strokeWidth=2;" vertex="1" parent="1">
          <mxGeometry x="540" y="90" width="510" height="250" as="geometry" />
        </mxCell>
        <mxCell id="VRWgpDQhtX4QynFnC1eO-22" value="" style="line;strokeWidth=2;html=1;strokeColor=#3700CC;fontColor=#ffffff;fillColor=#6a00ff;" vertex="1" parent="1">
          <mxGeometry x="280" y="210" width="260" height="10" as="geometry" />
        </mxCell>
        <mxCell id="VRWgpDQhtX4QynFnC1eO-23" value="" style="line;strokeWidth=2;html=1;strokeColor=#3700CC;fontColor=#ffffff;fillColor=#6a00ff;rotation=90;" vertex="1" parent="1">
          <mxGeometry x="164" y="324" width="232" height="10" as="geometry" />
        </mxCell>
        <mxCell id="VRWgpDQhtX4QynFnC1eO-24" value="" style="rounded=1;arcSize=10;dashed=0;fillColor=none;gradientColor=none;strokeWidth=2;" vertex="1" parent="1">
          <mxGeometry x="360" y="379.74" width="690" height="360.26" as="geometry" />
        </mxCell>
        <mxCell id="VRWgpDQhtX4QynFnC1eO-25" value="" style="dashed=0;html=1;shape=mxgraph.aws3.cloud;fillColor=#F58536;gradientColor=none;dashed=0;" vertex="1" parent="1">
          <mxGeometry x="380" y="359.74" width="52" height="36" as="geometry" />
        </mxCell>
      </root>
    </mxGraphModel>
  </diagram>
</mxfile>
